<svg width="96" height="110" viewBox="0 0 96 110" fill="none" xmlns="http://www.w3.org/2000/svg">
<g clip-path="url(#clip0_78_412)">
<path d="M7.91479 44.3428C7.97541 42.6002 8.06634 40.8656 8.24661 39.1454C8.387 37.8022 8.63745 36.4607 9.01873 35.1558C9.14476 34.7245 9.14795 34.3346 9.05064 33.8906C8.74913 32.5125 8.67734 31.0771 8.1493 29.7546C7.51437 28.1633 7.23838 26.5289 7.28624 24.823C7.34367 22.786 7.66912 20.8111 8.51462 18.9396C8.8257 18.2522 9.11126 17.5551 9.41915 16.8677C9.54358 16.5908 9.76692 16.3998 10.0844 16.4173C10.4242 16.4364 10.4976 16.7419 10.547 16.9902C10.8884 18.6914 11.383 20.3639 11.4021 22.1256C11.4276 24.3599 11.0846 26.5178 10.3508 28.6279C9.95038 29.7785 9.47977 30.9339 9.88338 32.2563C10.1594 31.642 10.4896 31.0675 10.6794 30.4501C11.3319 28.3304 12.3034 26.357 13.3069 24.3901C13.5765 23.8618 13.4951 23.1663 13.6754 22.5775C14.071 21.2885 13.7041 19.9868 13.8142 18.6962C14.0838 15.5341 14.8575 12.52 16.5182 9.78602C17.067 8.88371 17.7657 8.07529 18.4916 7.30029C18.6814 7.09819 18.9095 6.92154 19.1855 7.02339C19.4759 7.1316 19.503 7.43874 19.4902 7.7045C19.3817 10.238 19.1728 12.7508 18.3847 15.1935C17.7689 17.1016 16.8309 18.8298 15.7588 20.504C15.6392 20.6917 15.4286 20.87 15.5546 21.1819C17.0032 19.2165 18.683 17.5058 20.374 15.8126C21.5162 14.6684 22.2325 13.3316 22.5213 11.7832C23.1514 8.40312 24.8823 5.68822 27.422 3.43165C27.958 2.95424 28.4685 2.44659 28.9918 1.95485C29.1848 1.77343 29.3683 1.5761 29.6331 1.49653C30.0526 1.37081 30.2744 1.54905 30.1994 1.9819C29.6379 5.18694 28.5307 8.13258 26.1554 10.4878C25.6145 11.0257 25.1407 11.6304 24.6989 12.267C25.9687 11.3631 27.1891 10.378 28.5228 9.57915C29.7033 8.87257 30.6892 8.0005 31.5442 6.95496C32.0356 6.35501 32.5078 5.73756 32.9465 5.09941C34.253 3.20249 35.9967 1.84823 38.1392 1.03822C39.8493 0.392116 41.6217 -0.0184578 43.4706 0.000638701C43.9971 0.00541284 44.1566 0.24571 43.9189 0.713576C43.8009 0.947508 43.6429 1.1703 43.4627 1.36286C41.9503 2.98288 40.2083 4.31646 38.278 5.40178C36.7912 6.23725 35.29 7.07432 33.6261 7.49762C32.8348 7.69973 32.1249 7.97503 31.4549 8.5352C31.8777 8.59249 32.2478 8.44131 32.6179 8.44768C34.2403 8.47632 35.6872 7.83499 37.123 7.23345C38.3019 6.74013 39.5319 6.58099 40.7571 6.39798C42.5597 6.12745 44.3512 6.29772 46.0981 6.8372C46.331 6.90881 46.5719 6.95974 46.7697 7.12683C47.3009 7.5756 47.2595 8.06574 46.6054 8.27899C45.3467 8.69115 44.1024 9.14629 42.8373 9.54732C40.7427 10.2109 38.6959 9.99768 36.6141 9.52663C34.9071 9.14152 33.2002 9.27838 31.4852 9.63644C30.3159 9.87992 29.2773 10.4051 28.1925 10.8395C27.8304 10.9843 27.6023 11.2947 27.296 11.5095C25.924 12.4739 24.5441 13.4303 23.1961 14.4265C22.7765 14.7352 22.4447 15.1633 22.0953 15.577C22.9552 15.1569 23.8581 14.818 24.643 14.2594C26.2208 13.1327 27.9245 12.2352 29.858 12.0219C31.9255 11.7959 34.0169 11.7466 36.094 12.0569C36.4179 12.1047 36.7082 12.2431 37.0017 12.3752C37.2283 12.4755 37.5027 12.5598 37.525 12.8335C37.5521 13.1582 37.2299 13.252 37.0081 13.3682C36.153 13.8154 35.3027 14.2721 34.4221 14.662C32.9002 15.3352 31.3544 15.9813 29.6714 16.0927C28.108 16.1961 26.5462 16.29 24.9669 16.2279C23.1083 16.1547 21.3838 16.6353 19.846 17.8384C17.9763 19.3025 16.5389 21.0928 15.2866 23.0677C14.9054 23.6676 14.339 24.1259 14.071 24.8277C13.819 25.485 13.3531 26.0547 13.0947 26.7835C14.02 26.2393 14.5464 25.4006 15.1462 24.6272C17.402 21.7261 20.1746 19.6207 23.906 18.9874C24.8201 18.833 25.7071 18.5338 26.6387 18.4654C26.9131 18.4447 27.1731 18.4208 27.3646 18.6627C27.5752 18.9285 27.4045 19.1656 27.2928 19.3995C27.1604 19.6764 26.9658 19.9215 26.7201 20.0966C25.3625 21.0593 24.0544 22.0906 22.7239 23.0884C20.7617 24.562 18.6718 25.7905 16.3459 26.4987C14.6118 27.027 13.3723 28.0805 12.2508 29.3775C12.0434 29.6178 11.8839 29.9106 11.7563 30.2034C10.7097 32.5953 9.88816 35.0683 9.38724 37.624C9.18304 38.6664 9.29312 39.7724 9.13519 40.8402C9.03468 41.5197 8.78901 42.1801 8.91504 43.0188C9.16709 42.1197 9.45424 41.3717 9.82116 40.6556C9.9775 40.3484 9.88657 40.0222 9.93602 39.7071C10.5343 35.8958 12.3912 32.8149 15.352 30.3657C16.1991 29.6639 17.0526 28.9733 18.0337 28.4608C18.1342 28.4083 18.2395 28.3638 18.34 28.3129C18.6096 28.1776 18.9127 28.1203 19.1472 28.3097C19.4168 28.5261 19.2669 28.838 19.1696 29.0974C18.3113 31.4033 17.3812 33.6615 15.9024 35.6762C14.4491 37.6558 12.865 39.4939 11.0065 41.1091C10.3795 41.6534 10.204 42.4952 9.88976 43.2384C9.31864 44.5927 9.18623 46.0138 9.18783 47.4587C9.18783 48.2735 9.11924 49.1026 9.25483 49.8967C9.45903 51.0982 9.68876 52.2997 9.95357 53.4932C10.2758 54.9493 10.6858 56.3752 11.1756 57.7804C11.2218 57.9125 11.284 58.0366 11.3431 58.1767C11.6749 56.867 11.3016 55.6814 10.9427 54.464C10.0254 51.3544 10.1929 48.3228 11.7259 45.3979C12.4135 44.085 13.1569 42.8167 14.0614 41.6454C14.3757 41.2396 14.7091 40.5999 15.2962 40.8577C15.8083 41.0821 15.5514 41.7234 15.5052 42.196C15.3138 44.1518 15.1638 46.1124 14.9085 48.0587C14.7235 49.4655 14.0886 50.764 13.7232 52.131C13.4664 53.0938 13.0676 54.0232 12.8506 54.9939C12.53 56.423 12.4949 57.8791 12.7916 59.3225C13.058 60.621 13.4457 61.8957 14.2018 62.997C15.5514 64.9655 16.5453 67.1934 18.5442 68.8946C18.2475 68.1785 18.0561 67.5594 17.7482 67.004C16.9346 65.5368 16.0396 64.1205 15.6185 62.4622C14.9548 59.8508 15.1064 57.2568 15.6424 54.6549C15.7907 53.934 15.9582 53.2195 16.188 52.5209C16.2773 52.2504 16.397 51.9735 16.7463 51.956C17.0925 51.9385 17.2712 52.1819 17.3557 52.4588C17.5615 53.1256 17.7338 53.802 17.9157 54.4767C18.3815 56.2049 18.9398 57.9125 19.144 59.6996C19.3817 61.7875 19.3801 63.8849 19.2302 65.976C19.0483 68.5111 20.0502 70.5799 21.8193 72.2476C22.8387 73.2072 23.9172 74.1302 25.0753 74.9577C26.3851 75.8951 27.6852 76.8356 29.0827 77.636C29.1274 77.6615 29.1816 77.6726 29.2662 77.6519C28.3106 76.721 27.4284 75.7312 26.4154 74.8511C24.1772 72.9081 22.5101 70.6196 22.207 67.5244C22.0571 66.0031 21.7412 64.4976 21.7715 62.9572C21.7779 62.6437 21.7747 62.3317 22.1336 62.2044C22.4926 62.0771 22.6633 62.3843 22.8276 62.5864C24.3638 64.4674 25.7629 66.4518 26.8062 68.6448C27.7379 70.6037 28.4988 72.6391 29.0827 74.735C29.5996 76.5889 30.5472 78.0848 32.361 79.0046C34.0026 79.8369 35.6872 80.561 37.3718 81.2914C38.4774 81.7704 39.5558 82.3083 40.7283 82.6171C40.9373 82.6727 41.1479 82.7157 41.3744 82.7237C40.9389 82.2844 40.4029 82.0107 39.8637 81.7593C37.2937 80.5626 35.2373 78.7946 33.6229 76.4616C32.3499 74.6236 31.6288 72.5755 31.0162 70.4669C30.9572 70.2632 30.8918 70.0133 31.0784 69.886C31.3161 69.7237 31.624 69.6903 31.8825 69.8701C32.3961 70.2266 32.9226 70.5703 33.3964 70.9761C34.8896 72.2556 36.4035 73.5096 37.675 75.0325C38.9161 76.5221 39.9785 78.1214 40.9214 79.8051C41.4143 80.6835 42.0237 81.4792 42.6475 82.2622C43.0575 82.7778 43.7115 82.9878 44.2874 83.2297C45.3994 83.696 46.548 84.0827 47.7173 84.393C47.888 84.4392 48.0332 84.4551 48.2007 84.3803C49.2727 83.9045 50.3846 83.5225 51.4646 83.0642C52.567 82.5964 53.3503 81.8484 53.8975 80.8108C54.727 79.237 55.6092 77.6917 56.6254 76.2324C57.648 74.7636 58.929 73.5319 60.3377 72.4243C61.0811 71.8386 61.7878 71.2085 62.512 70.5974C62.5838 70.5369 62.646 70.4605 62.7242 70.408C63.0592 70.1804 63.4006 69.7571 63.825 70.0786C64.2062 70.3666 63.8776 70.7756 63.7691 71.1146C63.3017 72.5866 62.8439 74.0586 62.1866 75.4686C61.3953 77.165 60.084 78.4047 58.7583 79.6555C57.4055 80.9334 55.7576 81.7466 54.2006 82.7507C54.5627 82.6568 54.928 82.5741 55.287 82.469C55.6682 82.3561 56.0735 82.2797 56.4132 82.0887C57.6225 81.406 58.9865 81.083 60.2084 80.4321C61.2948 79.8544 62.3541 79.229 63.4166 78.6116C64.9417 77.7252 65.6659 76.2834 66.0297 74.6713C66.6534 71.9087 67.7717 69.3752 69.3112 67.0104C70.0546 65.8694 70.7916 64.7252 71.6227 63.6446C71.7264 63.5094 71.8413 63.3837 71.9514 63.2532C72.1731 62.989 72.4491 62.8155 72.7985 62.9206C73.1367 63.0224 73.1399 63.3582 73.1654 63.6303C73.2515 64.5199 73.1574 65.4047 73.0138 66.2815C72.7299 68.0162 72.4108 69.7508 71.5669 71.3199C70.8586 72.6359 70.0067 73.8804 68.823 74.8129C67.9313 75.5147 67.1272 76.2722 66.4827 77.2461C67.215 76.9565 67.8611 76.5491 68.504 76.1401C70.2827 75.0087 71.9769 73.7579 73.4749 72.2747C74.5996 71.1623 75.126 69.7317 75.4132 68.1976C75.6907 66.7144 75.4546 65.2249 75.5057 63.7385C75.6062 60.7388 76.1709 57.86 77.3323 55.0942C77.5365 54.6072 77.5285 54.0582 77.7758 53.5776C77.9114 53.3134 78.0294 53.0381 78.3581 53.0381C78.666 53.0381 78.8095 53.3134 78.9164 53.5489C79.32 54.4321 79.4732 55.3838 79.6407 56.3307C80.0874 58.8466 80.0922 61.3451 79.1796 63.7608C78.7633 64.862 78.3421 65.9792 77.6083 66.9436C77.3211 67.3223 77.0563 67.7472 76.967 68.2517C76.9016 68.6193 76.7724 68.9789 76.5889 69.2988C76.6798 69.415 76.7516 69.3465 76.7931 69.2988C78.3661 67.526 79.7141 65.5845 80.9887 63.5985C81.8916 62.1901 82.1293 60.559 82.4053 58.931C82.718 57.0866 82.166 55.4108 81.6444 53.7256C80.8005 50.9964 80.1065 48.2433 79.8289 45.3947C79.7157 44.2266 79.6487 43.0602 79.6439 41.8873C79.6439 41.5452 79.663 41.2014 80.014 41.0773C80.3554 40.9579 80.6106 41.1855 80.8372 41.4465C82.4739 43.3371 83.5859 45.4791 84.2208 47.9107C84.9546 50.7179 84.7759 53.4439 83.865 56.1604C83.7821 56.4086 83.7374 56.676 83.7183 56.937C83.6991 57.1996 83.7534 57.4669 83.7438 57.7311C83.7342 57.9873 83.6864 58.2435 83.6911 58.5124C84.2798 57.155 85.02 55.8851 85.4093 54.421C85.8336 52.8217 86.0522 51.2032 86.3042 49.5832C86.6233 47.5319 86.4031 45.5554 85.5847 43.6044C85.0025 42.2183 83.881 41.3208 83.0083 40.1989C80.9887 37.6017 78.8973 35.0476 77.653 31.9507C77.3786 31.268 77.093 30.5933 76.7596 29.9361C76.6384 29.6973 76.4549 29.4268 76.6878 29.1436C76.9367 28.8428 77.2366 28.9733 77.5221 29.0656C78.0518 29.2358 78.4921 29.5748 78.9579 29.8613C82.466 32.016 84.6036 35.1637 85.6374 39.0897C85.7905 39.6737 85.99 40.3071 85.639 40.9118C85.564 41.0407 85.623 41.1298 85.6948 41.2173C86.2021 41.8316 86.5898 42.5143 86.9328 43.2527C86.8227 42.0098 86.7605 40.7606 86.5898 39.5273C86.3792 37.9996 86.1272 36.4718 85.8033 34.9648C85.3486 32.8451 84.4888 30.9052 82.9318 29.3329C82.4181 28.8141 81.7927 28.499 81.1084 28.2333C78.264 27.1289 75.6445 25.6362 73.3552 23.6024C72.1221 22.5075 70.8841 21.419 69.6573 20.3178C69.434 20.1173 69.2474 19.8722 69.0559 19.6382C68.9411 19.4982 68.7608 19.3645 68.8916 19.1449C69.0256 18.9205 69.2553 18.8744 69.4867 18.9014C70.0689 18.9699 70.6528 19.0463 71.2319 19.1449C74.2502 19.6558 76.8457 21.053 79.1302 23.0215C80.1783 23.9238 81.0254 25.0378 81.638 26.2934C82.0065 27.0461 82.7005 27.4822 83.2381 28.0773C82.8329 27.0175 82.2921 26.034 81.7018 25.0839C80.8946 23.787 80.207 22.4088 79.0855 21.3187C78.122 20.3814 77.2525 19.3486 76.281 18.4208C75.7466 17.91 74.9521 17.7922 74.322 17.404C73.8689 17.1255 73.3967 17.0507 72.8607 17.1414C71.2909 17.4071 69.7658 16.96 68.2248 16.7801C67.3075 16.6735 66.3998 16.4985 65.5112 16.2056C64.0611 15.7266 62.855 14.8705 61.7272 13.8886C61.4528 13.6499 61.1417 13.4764 60.8625 13.2552C60.6822 13.1136 60.5068 12.937 60.6009 12.676C60.6886 12.4357 60.9168 12.4532 61.1289 12.4373C62.1691 12.3593 63.2076 12.2224 64.2493 12.1986C67.4208 12.1253 70.1902 13.1948 72.5847 15.2429C73.1479 15.725 73.786 16.0656 74.4576 16.4189C73.3935 14.888 72.0455 13.7231 70.5316 12.7348C69.6111 12.1333 68.7417 11.4426 67.7781 10.9223C66.6694 10.3239 65.5 9.79239 64.2653 9.52186C63.6782 9.39295 63.0209 9.55686 62.4004 9.62689C61.0476 9.77966 59.7011 10.02 58.3435 10.1138C56.3925 10.2475 54.5117 9.75101 52.6292 9.31975C52.0948 9.19721 51.554 9.10491 51.0148 8.99829C50.7053 8.93782 50.4038 8.8312 50.3176 8.49701C50.2347 8.17714 50.5314 8.03869 50.7244 7.87478C51.7933 6.9661 53.1174 6.76877 54.4367 6.64942C56.5058 6.46164 58.4552 7.04408 60.368 7.74906C61.7654 8.26308 63.1502 8.83279 64.7582 8.60681C64.1057 8.17714 63.5984 7.70768 62.7896 7.47693C59.9819 6.67806 57.2683 5.60706 54.8052 3.98227C53.9517 3.41892 53.0488 2.93196 52.2798 2.24766C52.0469 2.04079 51.814 1.80526 51.9576 1.47107C52.0932 1.15757 52.4218 1.30557 52.6707 1.26419C54.2516 1.0048 55.7911 1.29125 57.3385 1.57929C59.8208 2.04079 61.7064 3.39823 63.2172 5.34767C63.7372 6.01923 64.2158 6.73217 64.7502 7.38145C65.4027 8.17396 66.1732 8.91395 67.1033 9.41205C68.5821 10.2046 69.86 11.2724 71.192 12.2686C71.3579 12.3927 71.527 12.5121 71.7855 12.5502C71.5446 12.2988 71.3101 12.0426 71.0628 11.7975C69.3112 10.0566 67.8435 8.11985 67.0347 5.76461C66.6263 4.57426 66.2578 3.36322 66.1158 2.10285C66.0935 1.91029 65.9515 1.66045 66.1764 1.52518C66.4061 1.38673 66.671 1.49972 66.8863 1.60952C67.601 1.97713 68.1849 2.52297 68.7449 3.08314C69.7898 4.13026 70.8602 5.19012 71.3627 6.60963C71.9514 8.27421 72.5656 9.93243 72.8128 11.71C72.9676 12.816 73.4254 13.8727 74.2135 14.732C75.686 16.3361 77.3323 17.7779 78.7011 19.4791C78.8718 19.6908 79.0488 19.8976 79.2578 20.0854C78.642 18.9858 78.1315 17.8384 77.5604 16.7228C76.6368 14.9214 76.222 12.999 75.9891 11.0162C75.8152 9.53459 75.5854 8.0562 75.6285 6.55871C75.6349 6.34069 75.5743 6.07652 75.8407 5.95876C76.0848 5.85055 76.273 6.01127 76.4613 6.14177C76.9925 6.50938 77.2876 7.07272 77.6386 7.58197C78.5033 8.83438 79.0217 10.2587 79.6359 11.6384C80.1974 12.9004 80.7319 14.1544 81.0701 15.5054C81.4641 17.0761 81.3126 18.6643 81.4146 20.2414C81.5056 21.6498 81.5215 22.9929 82.3655 24.2851C83.4885 26.0038 84.3755 27.88 84.9753 29.8676C85.1046 30.2957 85.312 30.6999 85.5289 31.1073C85.5161 30.3498 85.6565 29.613 85.2178 28.8635C84.7313 28.0312 84.693 27.0222 84.4473 26.0945C83.8937 24.0066 83.8905 21.8678 83.9879 19.7321C84.0549 18.2537 84.366 16.8136 84.8876 15.4227C84.9403 15.2826 84.9801 15.1346 85.0057 14.9866C85.0599 14.6668 85.1716 14.3708 85.5433 14.3612C85.891 14.3533 86.0713 14.6095 86.1718 14.9182C86.5499 16.0831 86.9743 17.2353 87.1816 18.4495C87.4161 19.8244 87.7065 21.1883 87.8692 22.5791C88.0782 24.3535 87.7017 26.0117 87.2056 27.6938C86.5228 30.0093 86.2229 32.3581 86.7669 34.7834C87.2135 36.7806 87.4831 38.816 87.8261 40.8354C87.8437 40.9357 87.807 41.0471 87.8596 41.16C87.9378 40.323 88.3462 39.5177 88.1962 38.6743C87.6427 35.5759 88.3558 32.6987 89.506 29.8438C90.1329 28.289 91.0582 26.9061 91.7474 25.3943C91.816 25.2431 91.9356 25.1078 92.0537 24.9885C92.4126 24.6224 92.7859 24.7068 92.9646 25.1858C93.1401 25.6553 93.1592 26.1534 93.1799 26.6403C93.3235 29.8549 92.9773 33.0201 92.0808 36.1122C91.6548 37.5794 90.8093 38.8112 89.9 40.0493C88.7275 41.6454 87.9043 43.4453 87.8357 45.5252C87.7831 47.1277 87.6315 48.7398 87.2789 50.3089C87.0205 51.4595 86.8594 52.6307 86.5371 53.7733C87.0732 53.1415 87.2805 52.3602 87.5071 51.6059C88.2617 49.0867 89.1502 46.6264 90.4727 44.3428C91.122 43.2193 92.1047 42.3552 92.9024 41.3447C93.4416 40.6619 94.0175 40.0095 94.5886 39.3522C94.7226 39.1979 94.8821 39.0435 95.0624 38.9544C95.7547 38.6107 96.077 38.808 95.9845 39.5703C95.6734 42.1372 95.0448 44.634 93.901 46.9559C92.62 49.5546 90.6657 51.6488 88.5137 53.5585C87.8261 54.168 87.0476 54.6581 86.4478 55.3902C85.6629 56.3482 85.1748 57.4494 84.7169 58.5634C83.8539 60.664 82.7212 62.615 81.5295 64.5374C81.4801 64.617 81.4386 64.7029 81.3636 64.8382C81.6316 64.8079 81.7289 64.6186 81.8661 64.4897C82.8169 63.5921 83.4199 62.4447 84.0947 61.3531C85.5975 58.9182 87.7049 57.1518 90.1696 55.7578C91.4219 55.0496 92.6375 54.2698 94.0286 53.8433C94.4227 53.7224 94.8997 53.4725 95.2028 53.8179C95.5362 54.1982 95.1389 54.6088 94.9236 54.9366C93.5421 57.0404 92.1063 59.1092 90.176 60.7626C88.3941 62.2872 86.3983 63.4919 84.208 64.3433C83.3067 64.6934 82.6207 65.349 81.8103 65.8248C80.4894 66.603 79.521 67.7393 78.5176 68.8787C77.3164 70.2425 75.9157 71.4313 74.6028 72.698C74.523 72.7744 74.448 72.8587 74.3986 72.9797C75.0861 72.7139 75.7211 72.3574 76.2906 71.8943C77.4504 70.9491 78.6357 70.0436 79.9087 69.2527C81.7305 68.1196 83.755 67.5817 85.8464 67.2507C86.7796 67.1027 87.7224 67.0088 88.6653 66.9308C89.0162 66.9022 89.3815 66.9627 89.7325 67.0295C90.1058 67.1011 90.1776 67.4671 89.8538 67.7552C88.6621 68.8102 87.4959 69.8972 86.1495 70.7661C83.8698 72.2349 81.2615 72.846 78.717 73.6226C78.0007 73.8406 77.2701 73.8597 76.5267 73.8661C74.6091 73.882 72.8719 74.4469 71.2718 75.5306C69.0607 77.0281 66.7667 78.3967 64.3721 79.5902C64.3275 79.6125 64.2892 79.6491 64.1568 79.7446C65.0916 79.7701 65.8462 79.4709 66.5784 79.1542C67.8802 78.5909 69.1309 77.8954 70.5188 77.5565C72.4491 77.0854 74.4065 76.9247 76.3959 77.0743C77.9848 77.1936 79.5386 77.5422 81.1195 77.7172C81.4019 77.749 81.78 77.8127 81.8215 78.1755C81.8597 78.5145 81.5423 78.6195 81.2711 78.7309C79.2068 79.5855 77.16 80.4607 74.984 81.0495C72.9197 81.6097 70.9113 81.6224 68.8533 81.1928C67.9281 81.0002 66.9836 80.6756 66.0663 80.7249C64.8124 80.7933 63.549 80.666 62.2871 80.9668C61.03 81.266 59.8431 81.7497 58.6195 82.1253C57.8777 82.3529 57.2077 82.808 56.3654 83.2297C57.4358 83.3077 58.3356 83.0961 59.2385 83.0181C61.8835 82.7921 64.4567 82.9926 66.9501 83.984C68.1259 84.4519 69.3463 84.802 70.5475 85.2046C70.5826 85.2174 70.6257 85.211 70.6592 85.2269C70.9591 85.3749 71.3516 85.4577 71.334 85.8937C71.3165 86.3059 70.9352 86.387 70.6401 86.4507C69.8057 86.6289 68.957 86.7467 68.1179 86.901C65.5144 87.3816 62.9396 87.1923 60.3919 86.5414C59.2848 86.2581 58.2335 85.7918 57.2731 85.1999C56.1277 84.4933 54.9105 84.2991 53.6087 84.1702C52.24 84.035 51.1488 84.611 49.9794 85.1664C50.2985 85.5261 50.7595 85.5866 51.1536 85.7648C52.9594 86.5812 54.6106 87.641 56.1867 88.8362C56.8184 89.3152 57.4741 89.756 58.0181 90.3384C58.2446 90.5803 58.3802 90.8333 58.2303 91.1532C58.0707 91.4938 57.7597 91.4874 57.4454 91.4619C57.0083 91.4269 56.6462 91.236 56.3494 90.9209C54.3713 88.8282 51.8842 87.4978 49.3333 86.2629C48.7734 85.9924 48.2852 85.9494 47.6854 86.274C46.2177 87.0681 44.7118 87.7986 43.485 88.9523C42.657 89.7305 41.8961 90.5755 41.0905 91.3776C40.7842 91.6831 40.4539 91.9664 40.0136 92.0873C39.6866 92.1765 39.3723 92.1208 39.1857 91.8805C38.999 91.6402 39.1091 91.3426 39.2798 91.088C40.0136 89.9851 41.0171 89.1528 42.0524 88.3587C43.4611 87.2766 44.9367 86.2915 46.5288 85.4545C45.2255 84.5999 43.5648 84.2419 42.5645 84.6206C41.5531 85.0041 40.6231 85.5293 39.7297 86.1563C38.0068 87.3641 36.1148 88.1646 33.9787 88.3985C32.0005 88.615 30.0447 88.5704 28.0841 88.2935C28.0458 88.2887 28.0059 88.2935 27.9708 88.2839C27.6342 88.1901 27.1747 88.2155 27.1205 87.7604C27.0663 87.3196 27.438 87.0697 27.7937 86.9472C28.8721 86.5748 29.8788 86.0385 30.8567 85.4847C33.2129 84.1511 35.7893 83.8042 38.4104 83.6753C39.3037 83.6308 40.2019 83.9936 41.1208 83.844C41.2037 83.8297 41.3058 83.879 41.3952 83.7262C40.6932 83.505 40.0152 83.2488 39.3165 83.0786C38.1009 82.7841 36.9475 82.2972 35.7431 81.9678C35.3714 81.8675 35.0108 81.7927 34.6311 81.8055C32.9625 81.8611 31.3305 82.0903 29.7304 82.6155C27.0344 83.5003 24.3016 83.5782 21.5657 82.7698C19.9162 82.2829 18.198 82.0123 16.6283 81.2644C16.4751 81.1912 16.306 81.1339 16.1768 81.0289C15.829 80.7488 15.8673 80.3796 16.2789 80.1934C17.4084 79.6841 18.6256 79.4661 19.8236 79.202C21.4843 78.8359 23.1833 78.7214 24.868 78.8678C26.9865 79.0508 29.0795 79.4311 30.9875 80.4591C31.7708 80.8809 32.629 80.7933 33.4522 80.9063C33.516 80.6867 33.382 80.6692 33.2799 80.6326C30.7833 79.716 28.3824 78.6004 26.1952 77.0807C25.2269 76.4075 24.1214 76.3136 23.0302 76.1401C21.6981 75.9285 20.3437 75.9794 19.0005 75.9094C17.1627 75.8139 15.36 75.4845 13.7009 74.5965C11.6095 73.4746 9.59782 72.2317 7.709 70.7931C7.60371 70.712 7.50001 70.6292 7.39951 70.5417C7.12831 70.303 6.91773 69.9735 7.01983 69.6489C7.12671 69.3068 7.53032 69.407 7.82545 69.4054C9.48775 69.3895 11.0926 69.8033 12.723 70.0372C16.3347 70.5576 19.4408 72.1633 22.3203 74.3005C22.684 74.571 23.0924 74.7811 23.4785 75.0198C23.5423 75.0596 23.5997 75.1169 23.7082 75.0325C23.5167 74.727 23.2184 74.5297 22.9313 74.3371C21.73 73.5319 20.717 72.5134 19.6625 71.5411C18.7867 70.7326 17.8343 69.999 17.2249 68.9455C16.8022 68.2151 15.9423 68.2883 15.3281 67.9048C14.1588 67.1759 12.7342 67.0725 11.5249 66.4407C9.66961 65.4699 7.7074 64.6536 6.11051 63.2675C4.95233 62.2633 3.94251 61.0937 2.97258 59.9017C2.45889 59.2699 1.97233 58.6175 1.46343 57.9825C1.27678 57.7502 1.08216 57.4971 1.24487 57.2202C1.41079 56.937 1.74739 57.0086 2.02497 57.0531C3.0316 57.2155 3.91699 57.6961 4.8279 58.113C6.28919 58.783 7.78238 59.375 9.13838 60.2661C10.7927 61.3531 12.179 62.6994 13.3484 64.2828C13.8094 64.9066 14.2768 65.5257 14.7506 66.1399C14.8703 66.2959 14.9883 66.4725 15.3026 66.5489C14.765 65.7118 14.2513 64.9543 13.7823 64.1698C13.0772 62.989 12.3848 61.7986 11.6765 60.621C10.5965 58.8244 9.333 57.198 7.51916 55.979C5.37668 54.5388 3.76544 52.5734 2.56897 50.2405C1.3725 47.9075 0.836479 45.3836 0.112217 42.909C0.0324525 42.6337 -0.154195 42.2454 0.255795 42.0512C0.622712 41.8778 0.936983 42.0417 1.2369 42.2947C4.64444 45.1687 6.96878 48.7525 8.31521 52.9824C8.61034 53.9102 9.05542 54.7679 9.58346 55.5954C9.37767 54.7982 9.21495 53.9882 8.9597 53.2068C8.41571 51.5438 8.10782 49.8267 7.91639 48.1048C7.72655 46.3973 6.95123 44.9284 6.30035 43.4007C6.20145 43.1684 5.97811 42.9854 5.79943 42.7928C4.48013 41.3749 3.87551 39.6037 3.33152 37.8102C2.68064 35.6634 2.72052 33.445 2.73966 31.233C2.74764 30.3976 2.80986 29.5684 2.93269 28.7425C2.96619 28.5197 3.00767 28.2922 3.08744 28.0837C3.24697 27.6683 3.57879 27.6079 3.86275 27.9548C4.25838 28.4386 4.57903 28.9796 4.80716 29.5605C5.55376 31.4558 6.27802 33.3607 6.82361 35.3261C7.24636 36.8474 7.29263 38.4149 7.4027 39.9777C7.44896 40.6397 7.46651 41.2874 7.39153 41.9478C7.29582 42.8008 7.8079 43.5376 7.9116 44.3635L7.91479 44.3428ZM19.0164 80.9763C20.7457 81.441 22.467 81.9296 24.257 82.1651C26.1043 82.4086 27.8623 82.1317 29.5757 81.4219C26.0644 81.0989 22.5388 81.2246 19.018 80.9763H19.0164ZM69.3925 6.86585C69.434 6.84038 69.4739 6.81492 69.5154 6.78946C69.8743 7.24141 70.1902 7.72201 70.4694 8.23443C70.7565 8.76277 71.0708 9.27678 71.4537 9.93721C70.8474 7.32894 69.7962 5.18376 67.66 3.69423C67.7669 5.79325 69.7164 9.46456 71.3021 10.5467C70.664 9.31338 70.0291 8.08961 69.3941 6.86425L69.3925 6.86585ZM91.583 28.0503C89.6719 31.3397 88.8136 34.742 89.1391 38.5629C89.9654 35.0094 90.7599 31.5927 91.583 28.0503ZM12.5076 65.7532C12.0019 65.053 4.54553 59.6773 3.99994 59.5246C4.24083 59.7887 4.43386 60.0163 4.64285 60.2295C5.66064 61.2687 6.53008 62.467 7.84141 63.1959C9.01714 63.8499 10.1833 64.5215 11.3574 65.174C11.7323 65.3824 12.1232 65.5607 12.5076 65.7532ZM94.5216 41.7043C92.7763 45.0048 90.98 48.3929 89.013 51.687C91.6804 48.7732 93.9281 45.6271 94.5216 41.7043ZM10.7672 71.471C13.7137 73.8215 18.1502 75.327 20.3293 74.7843C17.1276 73.8326 13.9609 72.6168 10.7672 71.471ZM20.9802 74.5854C17.8901 72.3877 14.4507 71.1321 10.6746 70.782C14.0104 72.3176 17.603 73.1611 20.9802 74.5854ZM4.32698 31.4351C4.28869 33.2095 5.85846 40.366 6.38171 40.8641C6.45669 37.5683 5.72765 34.3999 4.32698 31.4351ZM7.31655 53.6667C6.28759 50.1211 4.56627 46.9861 1.95638 44.521C3.27249 47.7515 5.82974 50.3932 7.31655 53.6667ZM77.8221 78.8805C74.6666 79.6109 71.4074 79.3627 68.3747 79.8878C71.5924 81.0623 74.7368 80.2109 77.8221 78.8805ZM84.9929 62.8028C88.0112 61.178 90.8269 59.324 92.5322 56.2145C90.1919 58.6063 87.4018 60.4858 84.9929 62.8028ZM83.3258 53.2498C84.0437 49.1138 82.801 45.7926 81.228 43.8893C82.3351 46.9193 82.9366 50.0606 83.3258 53.2498ZM92.1302 28.4768C91.4171 31.8393 90.3642 35.1208 89.7309 38.6043C90.1569 37.9757 90.4472 37.3869 90.7136 36.7854C91.8814 34.1405 91.9308 31.2967 92.1302 28.4768ZM27.8145 74.3769C27.0391 71.1591 25.1216 67.0868 23.7162 65.7325C25.0323 68.6145 25.7741 71.7639 27.8145 74.3769ZM77.9433 72.5739C80.2788 72.4911 85.8735 69.9449 87.0237 68.5079C84.1219 70.034 80.8802 70.7724 77.9433 72.5739ZM84.2814 38.8828C83.6353 35.735 81.8869 33.3432 79.2371 31.4304C79.9486 32.8706 80.9361 33.9893 81.8278 35.1685C82.7292 36.3589 83.5874 37.5651 84.2814 38.8828ZM2.08081 45.896C2.1526 48.1223 5.79305 53.872 7.56542 54.6311C5.76274 51.7491 3.57241 49.0421 2.08081 45.896ZM30.7115 87.3769C33.8558 87.711 36.705 86.9886 39.3372 84.9166C36.3365 85.6868 33.6405 86.9376 30.7115 87.3769ZM17.1691 30.9195C16.0572 32.1608 11.9078 38.3449 11.6845 39.096C13.8844 37.1211 16.8739 32.6637 17.1691 30.9195ZM77.8157 78.4381C74.8452 77.7045 71.9817 77.9782 69.2075 79.2195C72.071 78.9489 74.9537 78.8837 77.8157 78.4381ZM80.3889 18.8426C80.4511 15.6948 79.1669 12.9083 77.8173 10.1409C78.5144 13.0897 79.1366 16.0608 80.3889 18.8426ZM76.9989 66.3611C78.2624 63.3566 79.4461 60.3282 78.5591 56.999C78.2943 60.1309 77.4759 63.2118 76.9989 66.3611ZM71.8238 20.792C72.682 22.1988 78.1794 26.0706 79.856 26.4493C78.725 25.3943 73.1654 21.4795 71.8238 20.792ZM12.2636 53.428C12.9687 50.4171 14.481 47.5701 14.0726 44.2155C13.3866 47.3505 12.1391 50.2484 12.2636 53.428ZM62.7386 13.4812C65.3756 15.6375 68.429 15.6757 71.3803 16.0847C71.393 16.0401 71.4058 15.994 71.4186 15.9494C68.5773 15.1426 65.7361 14.3342 62.7386 13.4828V13.4812ZM11.7706 52.7278C11.7068 49.666 12.999 46.8986 13.6706 44.0325C11.7913 46.636 11.0288 49.5196 11.7706 52.7278ZM67.4894 85.8539C64.3275 85.7919 61.2853 84.9452 58.1952 84.4424C61.1305 86.0369 64.2477 86.3934 67.4894 85.8539ZM93.6697 42.169C91.2656 44.4112 89.8649 47.2264 89.0162 50.433C90.7934 47.7324 92.0489 44.8377 93.6697 42.169ZM61.5389 72.9813C58.9928 74.9418 56.9014 77.278 55.5103 80.1918C57.3943 77.6838 59.7729 75.5879 61.5389 72.9813ZM18.206 10.0327C17.0813 13.1995 16.3523 16.3155 15.3169 19.3375C16.8069 16.4555 18.2172 13.548 18.206 10.0327ZM11.4101 38.2637C13.007 35.9642 14.3342 33.488 16.038 31.2569C13.6562 33.0456 12.1343 35.3961 11.4101 38.2637ZM67.4862 73.6385C69.3558 71.2244 70.3242 68.3631 71.6164 65.6641C69.8089 68.0973 68.2072 70.6356 67.4862 73.6385ZM28.4893 80.7631C26.3931 79.4661 20.717 79.9579 19.2685 80.5005C22.3155 80.4989 25.3577 80.6517 28.4893 80.7631ZM23.2487 66.3007C23.1626 69.2049 24.5266 71.6445 26.7217 73.6974C25.1248 71.3644 24.4803 68.5954 23.2487 66.3007ZM39.3484 79.3356C37.7691 76.7162 35.8212 74.4103 33.4331 72.4752C35.2086 74.9275 37.1214 77.2653 39.3484 79.3356ZM85.7554 26.8313C85.8575 23.5801 85.4125 20.4562 85.4268 17.3132C84.6946 20.4865 84.8174 23.6231 85.7554 26.8313ZM79.9597 25.8828C78.0805 22.9276 75.2664 21.3331 71.8748 20.3623C74.665 22.2083 77.7566 23.4003 79.9597 25.8828ZM33.0518 72.7823C34.2929 76.1656 36.5455 78.5638 39.4457 80.4194C37.0049 78.1787 35.0284 75.5481 33.0518 72.7823ZM4.86778 59.2986C7.03578 60.9791 9.31386 62.4973 11.643 64.0759C11.0448 62.6277 7.90681 60.4237 4.86778 59.2986ZM77.9959 56.7683C76.6974 59.4943 76.5729 62.4495 76.5378 65.4206C77.0244 62.5243 78.0199 59.7171 77.9959 56.7683ZM70.8921 15.3081C68.6651 13.7501 66.253 12.9067 63.4995 13.3794C65.9563 14.0477 68.4625 14.5299 70.8921 15.3081ZM18.2188 64.9559C18.3464 61.7493 18.0752 58.5856 17.1037 55.3551C17.0558 58.6986 17.7067 61.8177 18.2188 64.9559ZM40.706 1.54428C38.1328 1.91666 35.9425 2.95105 34.4014 5.10896C36.4817 3.8836 38.5364 2.61368 40.706 1.54428ZM17.4786 63.8086C16.9409 61.0125 16.665 58.191 16.6123 55.3456C16.046 58.2435 15.8705 61.1064 17.4786 63.8086ZM62.6349 6.5046C60.3377 4.65065 57.6081 3.71173 54.8355 2.86035C57.2667 4.42785 59.9532 5.45429 62.6349 6.5046ZM71.9003 65.9076C71.0724 68.6829 69.7291 71.2085 68.2152 73.6544C70.3992 71.5251 71.7536 68.9996 71.9003 65.9076ZM61.4655 74.205C59.7937 76.312 57.7373 78.0721 56.1803 80.2634C58.4377 78.6688 60.3456 76.7703 61.4655 74.205ZM78.6676 71.5108C81.0956 70.3077 83.688 69.4977 86.1224 68.3265C83.3131 68.6416 80.7749 69.5837 78.6676 71.5108ZM23.5008 21.1262C22.1416 21.462 17.2121 24.4792 16.3012 25.5375C18.9494 24.2867 21.3487 22.9069 23.5008 21.1262ZM67.3346 85.3319C65.4952 84.3246 62.0223 83.8185 59.1827 84.1416C61.858 84.5442 64.5093 85.1155 67.3346 85.3319ZM85.2992 61.7191C87.113 59.8699 89.4294 58.5872 91.0917 56.5678C88.7993 57.8727 86.5978 59.2827 85.2992 61.7191ZM28.2771 4.57585C26.5558 6.51574 25.6257 8.941 24.2266 11.0782C26.1394 9.2545 27.4986 7.09341 28.2771 4.57585ZM37.5441 84.8991C34.8656 84.8386 32.4169 85.5818 30.1085 87.0188C32.7295 86.6719 35.0523 85.499 37.5441 84.8991ZM10.0301 20.0234C9.68875 22.6937 9.66801 25.3895 9.37767 28.0646C10.2327 25.4356 10.6475 22.7717 10.0301 20.0234ZM33.6899 6.47914C35.3921 6.04151 40.8416 2.71394 41.2388 1.91507C38.6592 3.25501 36.0478 4.64746 33.6899 6.47914ZM78.5431 31.4654C79.8114 34.5367 82.0081 36.997 83.9272 39.6403C82.5649 36.631 80.2581 34.2423 78.5431 31.4654ZM33.9515 13.1359C31.1279 12.5662 28.5579 13.3157 26.074 14.522C28.6727 13.9284 31.3241 13.6212 33.9515 13.1359ZM9.46222 19.4234C8.43485 22.2163 8.41412 25.0887 8.7587 27.9914C9.01235 25.1365 9.21016 22.2768 9.46222 19.4234ZM86.0952 18.2967C85.9947 19.6764 86.2962 25.3402 86.5212 25.8319C86.8913 23.2921 86.8418 20.7713 86.0952 18.2967ZM61.4926 5.06759C59.5799 2.94787 57.0753 2.2413 54.3489 2.06466C56.7977 2.9065 59.2624 3.70378 61.4926 5.06759ZM5.63831 40.681C5.02252 37.8325 3.98878 35.0746 3.81489 32.129C3.62665 35.1526 4.10683 38.0298 5.63831 40.681ZM25.7103 15.2317C28.2404 14.8928 30.9045 15.324 33.24 13.8775C30.7434 14.4042 28.1606 14.4376 25.7103 15.2317ZM23.697 20.208C20.8478 20.7697 18.5745 22.2672 16.7591 24.4951C18.8154 22.6603 21.3168 21.5431 23.697 20.208ZM77.0962 10.1107C76.8633 11.8437 78.1363 16.3043 79.3025 17.8718C78.4538 15.3177 77.9289 12.6696 77.0962 10.1107ZM82.6973 53.4662C82.4261 50.7163 81.9331 48.0253 81.0142 45.269C81.035 48.2194 82.0001 50.8213 82.6973 53.4662ZM17.2472 10.8427C15.9567 12.555 14.9947 16.656 15.0537 18.5577C15.7748 16.021 16.4959 13.486 17.2472 10.8427ZM43.9444 7.95116C41.7238 8.15804 39.5016 8.36492 37.2809 8.5718C39.559 9.02057 41.786 8.86939 43.9444 7.95116ZM59.5863 8.47473C57.5204 7.82863 55.4481 7.24778 53.2817 8.04187C55.4002 7.93684 57.4901 8.2408 59.5863 8.47473ZM53.5401 8.35378C55.4704 8.9219 57.447 9.04126 59.4491 8.90281C57.4821 8.68638 55.5342 8.28854 53.5401 8.35378ZM23.9411 10.674C24.8919 8.89963 26.0341 7.23982 27.0663 5.51476C25.9815 6.26749 24.1357 9.32611 23.9411 10.674ZM37.8377 7.98299C39.8717 7.7968 41.8993 7.55014 43.9413 7.44829C41.8626 7.10455 39.8493 7.53422 37.8377 7.98299Z" fill="url(#paint0_linear_78_412)"/>
<path d="M53.0965 31.2713C52.838 31.3079 52.5828 31.3636 52.3275 31.4225C51.8442 31.5323 51.372 31.6739 50.9173 31.8744C50 32.2787 49.4193 32.9709 49.1258 33.9194C48.9743 34.4095 48.8753 34.9124 48.7988 35.4184C48.6648 36.2953 48.5738 37.1769 48.4685 38.0569C48.4638 38.0999 48.4574 38.1413 48.4526 38.1827C48.4271 38.1858 48.4319 38.1683 48.4303 38.1556C48.384 37.6798 48.3425 37.2024 48.2931 36.7266C48.2069 35.8831 48.1176 35.0397 47.8974 34.2185C47.7682 33.7379 47.5863 33.2812 47.2912 32.8754C46.9706 32.4378 46.5494 32.1259 46.0628 31.8967C45.5348 31.6469 44.9733 31.4957 44.4037 31.3795C44.2107 31.3397 44.0161 31.3079 43.8215 31.2713C43.8103 31.2697 43.7991 31.2713 43.7896 31.2522C43.8629 31.2299 43.9395 31.2267 44.0129 31.2156C44.6382 31.1233 45.2572 31.0071 45.8507 30.7812C46.3149 30.6045 46.7361 30.361 47.0727 29.9887C47.3694 29.6624 47.564 29.2773 47.706 28.8651C47.8719 28.3861 47.9676 27.8896 48.0458 27.3915C48.183 26.5195 48.2723 25.6426 48.376 24.7673C48.392 24.6353 48.4095 24.5016 48.4271 24.3695C48.4287 24.3552 48.4223 24.3361 48.451 24.3281C48.4669 24.4634 48.4813 24.5971 48.4973 24.7292C48.5595 25.2718 48.6201 25.8145 48.6839 26.3571C48.7429 26.8616 48.8099 27.3645 48.9057 27.8626C48.9918 28.3098 49.1035 28.7506 49.2837 29.1723C49.5852 29.8789 50.0925 30.377 50.7929 30.6857C51.2699 30.8957 51.7692 31.0231 52.2797 31.1185C52.5493 31.1695 52.8205 31.214 53.0949 31.2411V31.2681L53.0965 31.2713Z" fill="url(#paint1_linear_78_412)"/>
<path d="M45.3484 22.0761C45.1873 22.1095 45.0246 22.1414 44.8635 22.1764C44.4614 22.2655 44.0674 22.3801 43.6941 22.5583C43.0384 22.8702 42.654 23.3986 42.4578 24.0813C42.3206 24.5587 42.2456 25.0488 42.1834 25.5405C42.1196 26.045 42.0605 26.5479 41.9999 27.0524C41.9999 27.0635 41.9935 27.0746 41.9903 27.0874C41.9473 27.0746 41.9648 27.0412 41.9632 27.0189C41.8755 26.1214 41.8228 25.2175 41.6138 24.3359C41.5133 23.9094 41.3602 23.5052 41.0778 23.1598C40.7843 22.8002 40.3966 22.5774 39.9675 22.4167C39.5432 22.2575 39.1029 22.1668 38.6578 22.0904C38.6434 22.0873 38.6291 22.0841 38.6003 22.0777C38.6626 22.0395 38.72 22.0443 38.7726 22.0363C39.1443 21.9822 39.5097 21.9074 39.8702 21.804C40.7604 21.551 41.3028 20.9733 41.5261 20.0789C41.6553 19.5617 41.7303 19.035 41.7957 18.5082C41.8547 18.0292 41.909 17.5486 41.9648 17.0681C41.9648 17.0633 41.9712 17.0585 41.9808 17.0474C42.0111 17.1078 42.0095 17.1699 42.0159 17.2288C42.1068 17.9958 42.1738 18.766 42.3094 19.5267C42.3812 19.9278 42.4785 20.3224 42.6604 20.6916C42.914 21.2072 43.3352 21.5271 43.8616 21.7244C44.3274 21.8995 44.8124 21.9822 45.3022 22.0507C45.3165 22.0522 45.3309 22.0554 45.3468 22.0586C45.3468 22.0666 45.3468 22.0729 45.3484 22.0809V22.0761Z" fill="url(#paint2_linear_78_412)"/>
<path d="M57.5362 24.3103C57.3097 24.3581 57.0911 24.3979 56.8789 24.4599C56.7417 24.4997 56.6077 24.5474 56.4737 24.6016C55.9361 24.8196 55.6282 25.227 55.4847 25.7744C55.3841 26.1579 55.3315 26.5494 55.2836 26.9409C55.2485 27.2241 55.2182 27.509 55.1863 27.7923C55.1863 27.8002 55.1799 27.8066 55.1704 27.8257C55.1401 27.7859 55.1448 27.7461 55.1417 27.7111C55.1082 27.3849 55.0794 27.0571 55.0428 26.7308C55.0029 26.3775 54.947 26.0274 54.8449 25.6853C54.6758 25.1219 54.3105 24.7511 53.7601 24.5522C53.481 24.452 53.1938 24.3835 52.9035 24.3326C52.8684 24.3262 52.8317 24.3247 52.7822 24.2928C52.8652 24.2801 52.9322 24.269 52.9992 24.2594C53.2257 24.2244 53.4475 24.1767 53.6676 24.1146C54.3025 23.9379 54.687 23.529 54.8433 22.894C54.9534 22.4468 55.0061 21.9917 55.0619 21.5366C55.0922 21.2835 55.1225 21.0305 55.1528 20.7759C55.1911 20.7838 55.1847 20.8077 55.1863 20.8268C55.2406 21.3472 55.2948 21.8676 55.3746 22.3832C55.4081 22.5996 55.4559 22.8128 55.5181 23.0229C55.6761 23.5512 56.0175 23.9013 56.5423 24.0764C56.8391 24.1751 57.1422 24.2339 57.4501 24.2769C57.4756 24.2801 57.5059 24.269 57.5362 24.3087V24.3103Z" fill="url(#paint3_linear_78_412)"/>
<path d="M69.7578 40.7638C69.6222 40.3214 69.501 39.9172 69.3877 39.5273C69.0671 38.4293 68.965 37.3838 69.0735 36.3287C69.2075 35.0174 68.9283 33.7554 68.2423 32.5762C68.1593 32.433 68.1466 32.3359 68.1928 32.199C68.4242 31.5275 68.6379 30.7875 68.8485 29.9345C69.1867 28.5612 69.4627 27.3167 69.4308 26.007C69.4117 25.2575 69.0814 24.6305 68.4768 24.1944C67.1703 23.2523 65.4362 23.3717 64.2557 24.4825C64.2062 24.5286 64.1552 24.5748 64.0977 24.6289C64.0339 24.6877 63.9701 24.7466 63.9063 24.8071C62.4227 26.2282 61.4495 27.5888 60.8417 29.0879C60.6519 29.5574 60.5275 30.0475 60.4062 30.5265C60.3584 30.7127 60.3105 30.9053 60.2579 31.093C59.8909 32.4155 60.1255 33.6042 60.9566 34.6259C61.0651 34.758 61.1129 34.8805 61.1129 35.019C61.1161 35.7637 61.2485 36.3923 61.515 36.9398C61.6314 37.1801 61.5469 37.3265 61.4288 37.5302C61.3937 37.5922 61.3522 37.6623 61.3187 37.737C61.3108 37.737 61.3012 37.737 61.2884 37.737C61.0045 37.7211 60.7221 37.7402 60.4493 37.7593C60.2419 37.7736 60.0265 37.7896 59.8176 37.788C58.9067 37.7736 57.9654 37.9742 56.9381 38.3831C55.8931 38.8001 54.853 39.3921 53.5672 40.3039C51.2365 41.9558 49.3078 42.9775 47.3153 43.6188C45.168 44.3094 43.41 45.4727 42.0875 47.08C41.9599 47.2344 41.794 47.3506 41.6169 47.4731C41.3872 47.6322 41.1495 47.7977 40.9867 48.0603C40.9277 48.1558 40.8958 48.1749 40.7427 48.1272C39.9961 47.8932 39.3803 47.7134 38.8044 47.5654C38.6066 47.5145 38.5428 47.4508 38.5188 47.2805C38.4805 47.01 38.3641 46.7474 38.1742 46.496C37.9222 46.165 37.6925 45.8069 37.4675 45.4584C37.1644 44.9874 36.8517 44.5004 36.4753 44.0628C36.4178 43.9959 36.4051 43.9498 36.4529 43.8177C36.9315 42.4698 37.0639 41.0471 36.8454 39.5894C36.4784 37.1482 34.3168 36.647 33.0613 36.5642C32.6705 36.5371 32.3961 36.7313 32.2892 37.1053C32.2015 37.4076 32.1377 37.6623 32.0882 37.9057C31.9478 38.5805 31.8282 39.2664 31.7117 39.9316C31.4581 41.3877 31.1948 42.8931 30.7115 44.319C30.4211 45.1799 30.587 45.9883 31.206 46.7236C31.2475 46.7729 31.2858 46.8238 31.3257 46.8747C31.3831 46.9495 31.4421 47.0259 31.5091 47.0991C32.1919 47.8503 32.8173 48.7176 33.4777 49.8299C33.8239 50.4124 34.1589 50.9057 34.5003 51.3401C35.0507 52.0372 35.7271 52.5369 36.5726 52.8663C37.0384 53.0477 37.5218 53.1559 37.9924 53.2593C38.203 53.3055 38.4407 53.358 38.6656 53.4169C39.1171 53.5347 39.5813 53.6413 40.0312 53.7463L40.2322 53.7925C40.0375 53.8545 39.8333 53.8529 39.6036 53.7861C39.3835 53.7224 39.1585 53.6683 38.9384 53.6142C38.8171 53.5856 38.6959 53.5553 38.5763 53.5251L38.3896 53.4774C37.1102 53.1495 35.7877 52.8106 34.4301 52.7597C34.1318 52.7485 33.9866 52.6514 33.8749 52.3889C33.8255 52.2727 33.7776 52.1565 33.7298 52.0419L33.7122 51.999C33.6117 51.7555 33.5064 51.5025 33.3979 51.2574C32.9146 50.1689 32.3036 48.9276 31.1757 47.9967C29.85 46.9018 28.6615 46.601 27.3199 47.0227C26.8253 47.1787 26.4138 47.5272 26.192 47.9776C25.9814 48.4056 25.9543 48.8878 26.1186 49.3334C26.2255 49.6246 26.3324 49.9159 26.4393 50.2071L26.4839 50.3296C26.8509 51.3306 27.2289 52.3666 27.6246 53.3883C27.7618 53.7415 27.8926 54.0996 28.0186 54.4481C28.3488 55.3504 28.6886 56.2846 29.1449 57.1598C29.6729 58.1719 30.5248 58.7448 31.6782 58.8594C34.6024 59.1522 37.9988 59.5135 41.2962 60.0927C41.7317 60.1691 42.1417 60.1007 42.5501 59.8827C43.3781 59.4387 44.1231 58.8881 44.7437 58.4059C45.2669 58.0001 45.8667 57.6834 46.4474 57.3794C46.2273 57.7088 46.0071 58.051 45.8428 58.425C45.8364 58.425 45.8269 58.4281 45.8141 58.4297L45.7806 58.4361C45.0324 58.5952 44.2938 58.9151 43.4563 59.4419C42.8453 59.8254 42.1657 60.1086 41.3122 60.333C39.8541 60.7166 38.648 61.2449 37.6255 61.9483C36.0238 63.0495 35.14 64.7252 34.4365 66.2084C34.0121 67.1059 34.1988 67.9669 34.9916 68.7673C35.2357 69.014 35.5229 69.2241 35.8451 69.3927C36.4067 69.6856 37.0464 69.8335 37.6797 69.8335C38.2763 69.8335 38.8666 69.7031 39.3787 69.4389C40.6597 68.7801 41.8626 68.0783 42.9521 67.3526C43.7131 66.8449 44.4023 66.5378 45.1201 66.3819C45.5349 66.2927 45.9082 66.0938 46.264 65.7755C46.8782 65.2233 47.5386 64.7045 48.1783 64.2033C48.3825 64.0441 48.5867 63.8834 48.7893 63.7227C49.0478 63.5174 49.2775 63.4092 49.5343 63.3694C50.0193 63.2962 50.4165 63.0543 50.7148 62.6501C50.8775 62.4289 51.0451 62.2077 51.2078 61.9928C51.3753 61.7732 51.5476 61.5441 51.7151 61.3181C52.2032 60.6529 52.7887 60.0227 53.7523 59.9065C54.3058 59.8397 54.3744 59.8492 54.6377 60.3267C55.2359 61.4183 56.1947 62.0008 57.4868 62.0565C59.0997 62.1249 60.6216 61.6395 62.0095 60.6083C62.4418 60.2869 62.7354 59.8508 62.9045 59.2779C63.0066 58.9326 63.0464 58.5921 63.0847 58.2117L63.0895 58.1656C63.0991 58.0605 63.1071 57.9762 63.1597 57.9141C64.1121 56.7731 64.4966 55.4188 64.7247 54.3685C64.747 54.2651 64.7662 54.1601 64.7853 54.0582C64.8491 53.7081 64.9097 53.3787 65.0916 53.0986C65.6069 52.3093 65.8557 51.5884 65.8733 50.8293C65.8733 50.7927 65.8733 50.7561 65.8733 50.7179C65.8733 50.5492 65.8765 50.3901 65.9307 50.2437C66.6007 48.4645 67.3761 46.6042 68.8102 45.1242C69.9636 43.9339 70.2827 42.4714 69.761 40.7734L69.7578 40.7638ZM65.0023 48.334L64.881 48.8592L66.1509 47.6291C65.5861 49.0311 65.0996 50.4665 64.629 51.8558L64.6114 51.9051L64.8284 51.9974C64.8045 52.0451 64.7773 52.0913 64.747 52.1342C64.4104 52.6323 64.2828 53.1846 64.1568 53.7288C64.128 53.8513 64.0993 53.9755 64.069 54.098C63.868 54.8889 63.6032 55.8008 63.1533 56.649C63.1087 55.1961 62.6109 53.9596 62.1004 52.8138L62.0462 52.6896L61.6585 52.7899L61.7016 52.9458C61.7399 53.0875 61.7782 53.2307 61.8165 53.3723C61.8994 53.6779 61.984 53.9946 62.0749 54.3081C62.193 54.7155 62.2807 55.1324 62.3397 55.5605C62.2631 55.2995 62.1515 55.0337 62.0047 54.7632C61.2868 53.4471 60.0967 52.661 58.4664 52.4302C57.849 52.3427 57.2763 52.3507 56.7259 52.4573C57.9367 51.2447 59.6022 50.9137 61.5532 51.5009L62.6987 51.8462L61.5995 51.1619C61.298 50.9725 60.9853 50.7784 60.6136 50.694C59.481 50.4426 58.369 50.6686 57.1104 51.4038C56.8455 51.5598 56.6031 51.7603 56.3701 52.0181C55.9968 52.4334 55.6235 52.8344 55.1705 53.167C54.518 53.6461 54.0075 54.3097 53.5608 55.2565C53.5353 55.3106 53.5082 55.3647 53.4795 55.4188L53.3088 55.0735L53.1923 55.0926C53.1142 55.1053 53.0535 55.142 53.0168 55.1976C52.961 55.282 52.9833 55.3695 52.9945 55.4173C53.1253 55.9726 53.1205 56.5376 53.095 57.0643C53.0631 57.7248 53.2561 58.3597 53.6677 58.9517C53.6932 58.9883 53.7204 59.0233 53.7491 59.0583C53.7778 59.0949 53.8049 59.1284 53.8288 59.165C53.8097 59.1697 53.7905 59.1713 53.773 59.1729C52.4776 59.2684 51.7151 60.1341 51.1424 60.9696C50.9047 61.3149 50.6414 61.6777 50.2889 62.1488L50.2666 62.1774C50.1533 62.3302 50.0544 62.4607 49.8996 62.4909C48.7191 62.7137 47.8688 63.4664 47.0473 64.1953L46.8798 64.3433C46.8319 64.3863 46.7824 64.4276 46.733 64.4706C46.6261 64.5613 46.516 64.6536 46.4139 64.7571C45.8667 65.3045 45.1744 65.6705 44.3544 65.8424C43.8678 65.9442 43.4052 66.1543 42.8516 66.5251C41.5626 67.386 40.556 68.0082 39.5893 68.5398C38.581 69.0951 37.5585 69.2241 36.5502 68.9249C35.8978 68.7307 35.3968 68.3026 35.0602 67.6486C34.8688 67.2762 34.8752 66.8577 35.081 66.4057C36.3684 63.5603 38.337 61.8353 41.1032 61.1351C42.2534 60.8439 43.0989 60.4953 43.8455 60.0068C44.4421 59.6153 45.1026 59.3066 45.8061 59.0886C46.173 58.9756 46.4793 58.9167 46.7697 58.904C46.8431 58.9008 46.9133 58.8992 46.9787 58.8992C47.3918 58.8992 47.6949 58.9597 47.9422 59.0886C48.3075 59.2795 48.5803 59.636 48.8579 60.2821C48.9648 60.5304 49.0111 60.8073 49.0669 61.1303C49.0813 61.2146 49.0956 61.3006 49.1132 61.3897L49.2264 62.0087L49.4211 61.4104C49.772 60.3314 49.3158 59.566 48.8228 58.9581C48.2054 58.199 47.3711 58.1703 46.7601 58.2388C46.8877 57.9746 47.0265 57.755 47.1924 57.5529C47.8098 56.8018 48.4766 56.0124 49.2631 55.3456C50.2027 54.5484 51.1743 54.3845 52.2336 54.8444C52.3133 54.8794 52.4346 54.9319 52.5478 54.8826C52.5909 54.865 52.6483 54.8253 52.6802 54.7409C52.7169 54.6407 52.7345 54.4481 52.4266 54.2953C51.6369 53.8959 50.8217 53.8434 50.0049 54.1394C50.3272 53.5665 50.6351 53.2275 51.0419 52.9904C51.0482 52.9856 51.0626 52.9809 51.0754 52.9761C51.1376 52.9522 51.2317 52.9156 51.2748 52.8154C51.3003 52.7533 51.2971 52.6833 51.2652 52.6148C51.1886 52.443 51.0355 52.4032 50.8121 52.5003L50.7898 52.5098C50.3527 52.6912 49.981 53.0031 49.7146 53.4121C48.6601 55.0306 47.2642 56.275 45.562 57.1089C44.975 57.3969 44.439 57.7741 43.9189 58.1401C43.7306 58.2722 43.536 58.409 43.343 58.5395C42.3396 59.2143 41.3744 59.4419 40.3056 59.2557C38.3513 58.9151 36.3524 58.6748 34.4125 58.4441C33.4761 58.3327 32.5094 58.2165 31.5506 58.0892C30.6732 57.973 30.0207 57.4494 29.6107 56.5344C29.1688 55.5493 28.7796 54.5404 28.3871 53.506C28.5116 53.5108 28.6121 53.479 28.687 53.4105C28.7844 53.3214 28.8226 53.1846 28.7987 53.0047C28.6424 51.8032 28.4111 50.858 28.0681 50.0304C27.8383 49.4782 27.3853 49.0167 26.7918 48.7351C26.618 48.6523 26.6195 48.6109 26.7025 48.4359C26.8764 48.073 27.1604 47.8152 27.5496 47.6688C28.5227 47.3044 29.448 47.4954 30.3781 48.2529C31.3113 49.012 32.0595 50.0098 32.6657 51.3004C33.2767 52.6005 33.8319 53.8848 33.9356 55.309C33.9403 55.3743 33.9754 55.4141 33.9994 55.4411C34.0057 55.4491 34.0153 55.4586 34.0249 55.4714L34.2131 55.7212L34.3041 55.4236C34.4078 55.0862 34.4237 54.7584 34.4062 54.4433C34.446 54.6534 34.454 54.9239 34.4349 55.282C34.4157 55.6432 34.2801 55.9822 34.1382 56.3403C34.0632 56.528 33.9866 56.7222 33.9196 56.9322L33.7058 57.6038L34.1892 57.0882C35.1974 56.0124 35.3235 54.6263 34.5322 53.4455L34.5721 53.4519C36.4848 53.7097 38.2014 53.9818 39.8445 54.7091C40.2114 54.8714 40.5927 55.0656 41.0793 55.3345C41.2516 55.43 41.3489 55.5955 41.4542 55.7705C41.5244 55.8883 41.5961 56.0093 41.6951 56.1206L42.0189 56.4835L41.9663 55.9281C41.9487 55.726 41.9296 55.5175 41.8418 55.3059C42.2343 55.3934 42.5533 55.605 42.8883 55.8294L42.9027 55.839C42.9426 55.866 42.9825 55.8931 43.0223 55.9185C43.4754 56.2177 43.5057 56.7301 43.5376 57.2744L43.5647 57.7343L43.8248 57.3985C44.029 57.1359 44.1167 56.8033 44.072 56.4644C44.0226 56.0825 43.8088 55.7228 43.485 55.4777C42.8245 54.9733 42.1529 54.6789 41.4334 54.577C41.1638 54.5388 40.9086 54.4624 40.6533 54.3431C42.2805 53.3087 44.0688 52.3013 46.1204 51.8669L46.54 51.7778L46.1651 51.5709C45.7487 51.3417 45.3961 51.407 45.0404 51.5009C44.7803 51.5693 44.5251 51.6441 44.2778 51.7221C44.3847 51.3911 44.3432 50.9614 44.1566 50.4872L44.7357 50.7895L44.7963 50.6145C44.8761 50.3853 44.7293 50.2548 44.6687 50.2023L44.6543 50.1896C43.8024 49.3843 43.0431 48.9228 42.196 48.6969C42.0731 48.6634 41.9535 48.6173 41.8259 48.568C41.7429 48.5361 41.6568 48.5027 41.5706 48.4725C41.5977 48.4407 41.6249 48.4072 41.652 48.3754C41.7397 48.2672 41.8243 48.1638 41.9471 48.1001C42.2454 47.9441 42.4592 47.6991 42.6666 47.462L42.7623 47.3537C43.946 46.0234 45.3961 45.0637 47.076 44.502C48.2246 44.1185 49.437 43.692 50.5346 43.0777C50.6765 42.9981 50.8169 42.9202 50.9589 42.8422L50.9988 42.8199C51.9352 42.3027 52.902 41.768 53.7634 41.0789C54.5818 40.4233 55.255 40.0048 55.9442 39.7247C56.2074 39.6181 56.4515 39.4923 56.6669 39.3523C57.4278 38.8606 58.3387 38.5964 59.5352 38.5232C59.8862 38.5009 60.2371 38.477 60.6216 38.4516L60.7875 38.4404C60.1095 39.1979 59.4889 39.9729 59.2114 40.9994L58.9561 41.9383L59.4969 41.1299C59.5416 41.063 59.5878 40.9946 59.6341 40.9278L59.6453 40.9118C59.749 40.7591 59.8574 40.5999 59.958 40.4392C60.0074 40.3612 60.0553 40.288 60.0999 40.2196C59.8718 40.8657 59.8303 41.5548 59.9915 42.1706C60.1622 42.8215 60.5466 43.3323 61.0747 43.6076L61.5182 43.8304L61.3187 43.4119C61.2342 43.2353 61.1448 43.0634 61.0571 42.8963C60.8146 42.4332 60.5849 41.9956 60.4972 41.5007C60.3998 40.9532 60.5482 40.4424 60.7045 39.8997C60.7428 39.7661 60.7827 39.6292 60.8178 39.4923L60.8784 39.2616C60.9359 39.2075 60.9901 39.1613 61.0411 39.1215C61.4575 38.7874 61.7495 38.3481 61.9329 37.7784C62.0861 37.9757 62.1531 38.2192 62.2249 38.477C62.2743 38.6569 62.327 38.8431 62.4099 39.0213L62.5343 39.2902L62.6907 39.0372C62.7529 38.9354 62.772 38.8351 62.7768 38.746C63.34 39.2154 64.0052 39.3969 64.6433 39.5226L65.618 39.7135L64.7534 39.2282C63.9669 38.7858 63.2187 38.3259 62.6955 37.5524C62.2312 36.865 61.9537 36.1186 61.8516 35.272C61.9792 35.3309 62.1834 35.3993 62.2998 35.1956C62.4546 34.9235 62.177 34.7612 62.0589 34.6911C62.0207 34.6689 61.9808 34.645 61.9569 34.6259C61.0651 33.862 60.7093 32.8818 60.872 31.6293C61.1863 29.1961 62.3972 27.0462 64.5763 25.0569C65.4569 24.2533 66.4986 24.0958 67.676 24.5923C68.3396 24.8708 68.7368 25.6171 68.6858 26.4924C68.622 27.592 68.4752 28.6041 68.2375 29.586C67.8004 31.3906 67.1479 33.1045 66.6295 34.3952C66.5912 34.489 66.5609 34.5845 66.5274 34.6991C66.5114 34.75 66.5002 34.801 66.4827 34.8773C66.4731 34.9171 66.462 34.9649 66.4492 35.0253L66.3264 35.5473L66.7156 35.1765C67.3091 34.6116 67.5611 33.9464 67.8004 33.3019C67.802 33.3082 67.8052 33.3146 67.8068 33.321C68.212 34.3315 68.5885 35.5409 68.3109 36.8411C68.2072 37.3297 68.2949 37.8182 68.3811 38.2988C68.3923 38.3625 68.4034 38.4261 68.4146 38.4882C68.5789 39.443 68.7831 40.2944 69.0383 41.0901C69.493 42.5064 69.1197 43.7827 67.8977 44.9937C67.1256 45.7592 66.2322 46.6551 65.4075 47.6131C65.2416 47.8073 65.0772 48.0301 65.0055 48.3404L65.0023 48.334ZM58.8604 56.4628L58.846 56.5185C59.3629 56.789 59.8064 57.4908 59.9229 58.2245C60.025 58.861 59.8654 59.4259 59.4746 59.8158C59.3151 59.9766 59.1236 60.0752 58.8732 60.1309C57.8968 60.3426 57.0067 60.2057 55.9873 59.6901C55.4816 59.3925 54.9886 58.826 54.6377 58.1353C54.4845 57.8361 54.5563 57.5656 54.8833 57.2012C55.7384 56.2495 57.6591 55.917 58.8333 56.5153L58.8588 56.4644L58.8604 56.4628ZM55.807 60.2391L55.8756 60.2757C56.6701 60.6895 57.3114 60.8741 57.975 60.8741C58.0452 60.8741 58.1154 60.8725 58.1872 60.8677C59.7171 60.7802 60.4668 60.1007 60.5466 58.7337C60.612 57.6229 60.2882 56.797 59.5878 56.2782C58.8652 55.7435 57.8617 55.5175 56.8328 55.6591C55.8134 55.7992 54.8945 56.2798 54.3106 56.9768C53.9453 57.416 53.8911 57.8743 54.1447 58.3772C54.175 58.4393 54.2085 58.4998 54.242 58.5586C53.6932 57.8521 53.6151 57.007 53.9963 55.9185C54.4175 54.7202 55.1816 53.8593 56.2696 53.3596C57.9559 52.5862 60.1845 53.2721 61.2342 54.8873C61.6506 55.5287 61.9154 56.2543 62.043 57.1057L62.1531 57.8362L62.3541 57.1248C62.386 57.0134 62.4099 56.902 62.4275 56.7906C62.4322 57.2728 62.4035 57.7693 62.3413 58.2865C62.2376 59.1459 61.8468 59.8174 61.1799 60.2837C59.7841 61.256 58.2701 61.5457 56.6796 61.1446C55.9889 60.9712 55.5055 60.5717 55.2407 59.9575C55.2056 59.8779 55.1673 59.8015 55.1274 59.7251C55.346 59.9336 55.5741 60.1086 55.8054 60.2375L55.807 60.2391ZM27.6469 50.5827C27.7841 51.1142 27.9085 51.6552 28.0282 52.1804L28.033 52.1979C28.084 52.4207 28.1351 52.6435 28.1877 52.8647C28.2021 52.9236 28.2069 52.9777 28.2053 53.0302C28.0298 52.5671 27.8591 52.0913 27.6948 51.6314L27.6884 51.6123C27.4587 50.9694 27.221 50.3058 26.9641 49.6581C27.2672 49.8952 27.5432 50.1753 27.6485 50.5827H27.6469ZM33.0757 39.8584C32.9975 40.3676 32.7949 40.8498 32.5987 41.3161C32.5556 41.4179 32.5126 41.5213 32.4711 41.6248C32.353 41.5007 32.2557 41.3893 32.2589 41.2301C32.2701 40.5888 32.3897 39.9682 32.5189 39.303C32.5652 39.0674 32.6115 38.8255 32.6545 38.5789C32.9321 38.9926 33.1523 39.3682 33.0757 39.8584ZM32.4567 42.1674C32.6657 42.1674 32.8332 41.9892 33.0534 41.6853C33.658 40.845 34.0632 39.4526 33.2193 38.2893C33.1842 38.2399 33.1507 38.1826 33.1188 38.1269C33.0645 38.0314 33.0071 37.9328 32.9257 37.8469C32.8093 37.7243 32.8316 37.6209 32.9162 37.3997C32.9273 37.371 32.9385 37.344 32.9481 37.3153C32.9672 37.2628 32.9975 37.2485 33.1762 37.2533C33.2113 37.2533 33.2464 37.2549 33.2799 37.2533C34.6215 37.2135 35.8132 38.1333 36.1067 39.435C36.3221 40.3883 36.3046 41.402 36.0557 42.535L36.0174 42.7117C35.9249 43.1382 35.8276 43.579 35.692 44.0039C35.483 44.6564 35.0746 45.1656 34.6407 45.7035C34.5418 45.8276 34.4381 45.9549 34.3392 46.0822C34.328 46.0981 34.3136 46.1125 34.2977 46.1316C34.2339 46.2048 34.1445 46.305 34.1206 46.4817L34.0696 46.8445L34.3711 46.6344C35.1193 46.1109 35.6824 45.4616 36.0908 44.6484C36.4338 45.0733 36.7114 45.5237 36.981 45.9581L37.0591 46.0838C37.1804 46.2796 37.2984 46.4817 37.4133 46.6774C37.5026 46.8302 37.592 46.9845 37.6845 47.1357C38.1711 47.9394 38.0929 48.8321 37.9812 49.6055C37.9716 49.674 37.9541 49.744 37.9365 49.8172C37.927 49.8554 37.9174 49.8952 37.9094 49.935L37.8265 50.3169L38.1535 50.1021C38.6034 49.8061 38.6879 49.3907 38.7039 48.2322C39.6435 48.4884 40.497 48.7637 41.3058 49.074C41.3919 49.1074 41.4781 49.1409 41.5642 49.1759C41.8051 49.2714 42.054 49.3716 42.3108 49.4432C43.1707 49.6851 43.4754 50.4012 43.7147 51.1142C43.7673 51.2685 43.7992 51.4356 43.8343 51.6139C43.8503 51.6918 43.8647 51.7698 43.8838 51.851C42.933 52.182 42.0923 52.583 41.3138 53.0763C41.0952 53.2148 40.9245 53.2418 40.6804 53.1798C39.9083 52.9777 39.1202 52.7915 38.3561 52.6101L38.3433 52.6069C38.0291 52.5321 37.7132 52.4573 37.3989 52.3825C36.4258 52.1486 35.5947 51.5948 34.9278 50.737C34.6518 50.3837 34.4078 50.0304 34.2004 49.6899C33.5718 48.6555 32.8587 47.4826 31.9047 46.488C31.3017 45.8578 31.147 45.1179 31.4341 44.2235C31.49 44.0516 31.5506 43.8766 31.6128 43.6999C31.8122 43.135 32.018 42.551 32.0451 41.924C32.1759 42.0736 32.302 42.1658 32.4551 42.1658L32.4567 42.1674Z" fill="url(#paint4_linear_78_412)"/>
<path d="M63.7532 48.2877C63.3895 48.0108 62.9827 47.8262 62.5887 47.6496C62.4355 47.5812 62.2632 47.5032 62.1021 47.422C60.183 46.4592 58.1857 46.3144 56.1644 46.9908C55.5933 47.1817 55.0414 47.4316 54.5053 47.6751C54.1336 47.8437 53.7492 48.0188 53.3631 48.17C50.4693 49.3094 47.995 49.6691 45.5797 49.3046C45.4872 49.2903 45.3962 49.2871 45.3053 49.2839H45.2941C45.259 49.2824 45.2255 49.2808 45.1904 49.2792L44.9336 49.2633L45.0341 49.5004C45.066 49.5752 45.1091 49.6261 45.1681 49.6563C45.1856 49.6659 45.2032 49.6722 45.2239 49.6786C46.0806 49.9221 46.9532 50.0446 47.853 50.0446C48.9027 50.0446 49.9907 49.8775 51.1313 49.5449C52.5734 49.1232 53.9757 48.5981 55.2998 47.9822C57.6146 46.9048 59.9692 46.9749 62.3047 48.1939L62.5297 48.31C63.1438 48.6283 63.7245 48.9291 64.2063 49.4113L64.6801 49.8855L64.4711 49.2489C64.3483 48.8734 64.1202 48.5694 63.7564 48.2909L63.7532 48.2877Z" fill="url(#paint5_linear_78_412)"/>
<path d="M46.0199 46.7539C46.0885 46.7905 46.1539 46.7889 46.1922 46.7873H46.2034C46.2736 46.7889 46.3422 46.7921 46.4124 46.7953C46.5432 46.8001 46.6883 46.8064 46.8335 46.8064C46.8878 46.8064 46.942 46.8064 46.9962 46.8032C49.1483 46.7269 51.2716 46.1094 53.6821 44.8586C54.6265 44.3684 55.5103 43.7589 56.3686 43.1669C56.9189 42.7866 57.4901 42.3935 58.0676 42.0387C58.1649 41.9782 58.243 41.9018 58.3196 41.827C58.3515 41.7968 58.3818 41.7665 58.4137 41.7363L58.5254 41.636L58.3037 41.356L58.184 41.4244C58.1425 41.4483 58.0995 41.4721 58.0564 41.496L58.0452 41.5024C57.9447 41.5581 57.8394 41.6154 57.7389 41.679L57.2731 41.9686C56.5393 42.4254 55.7081 42.9442 54.9121 43.447C52.2623 45.1228 49.4322 46.0967 46.5017 46.3417C46.398 46.3497 46.2927 46.3608 46.1731 46.3736L45.7375 46.4181L45.8955 46.6409C45.9306 46.6918 45.9737 46.73 46.0199 46.7539Z" fill="url(#paint6_linear_78_412)"/>
<path d="M68.225 44.2156L68.3159 43.9546L68.0431 44.0071C67.9011 44.0358 67.8198 44.1265 67.7591 44.1949C67.7416 44.214 67.7256 44.2331 67.7081 44.2474C67.0492 44.8235 66.3313 45.4075 65.4507 45.6574C64.5462 45.9136 63.5635 45.9184 62.5298 45.6701C62.1421 45.5762 61.7497 45.4712 61.3684 45.3677L61.3301 45.3582C61.161 45.312 60.9919 45.2675 60.8244 45.2229L60.0459 45.0176L60.6872 45.5046C60.8627 45.6383 61.0573 45.7608 61.2647 45.869C62.0145 46.2605 62.9206 46.461 63.8459 46.461C64.484 46.461 65.1317 46.3655 65.7411 46.1714C66.4398 45.9486 68.0415 44.7423 68.225 44.2172V44.2156Z" fill="url(#paint7_linear_78_412)"/>
<path d="M62.8199 41.3065C63.0001 41.4322 63.1804 41.542 63.3591 41.6343C63.8919 41.9128 64.4168 42.0497 64.9623 42.0544C64.9767 42.0544 64.9895 42.0544 65.0038 42.0544C65.819 42.0544 66.5911 41.8301 67.3393 41.612L67.5036 41.5643C67.668 41.5166 67.8674 41.429 67.9455 41.1808L68.0253 40.9246L67.2213 41.0869C66.8161 41.168 66.4172 41.2476 66.0184 41.3304C64.5954 41.6216 63.4835 41.2858 62.6189 40.3039C62.5901 40.2705 62.5582 40.2482 62.5231 40.2228C62.5072 40.2116 62.488 40.1973 62.4673 40.1798L62.1387 39.9204L62.2105 40.331C62.2838 40.7495 62.488 41.0773 62.8183 41.3065H62.8199Z" fill="url(#paint8_linear_78_412)"/>
<path d="M52.8334 49.2811L52.7808 49.2922L52.8302 49.5993L52.8829 49.5946C54.8786 49.4052 56.3845 48.8944 57.6225 47.9857L58.6147 47.2568L57.321 47.7677C55.8724 48.339 54.3745 48.9294 52.8318 49.2795L52.8334 49.2811Z" fill="url(#paint9_linear_78_412)"/>
<path d="M47.7142 51.3339L47.6648 51.3498L47.7382 51.649L48.0253 51.6028C49.3542 51.3912 50.7293 51.1716 52.0901 51.0411L53.6057 50.8963L52.0933 50.7244C50.7644 50.5732 49.4148 50.761 47.7142 51.3323V51.3339Z" fill="url(#paint10_linear_78_412)"/>
<path d="M44.2986 61.3307L43.7817 61.3101L44.1965 61.6188C44.9591 62.1853 45.3052 62.9619 45.3196 64.1379L45.3292 64.9177L45.6259 64.1968C45.9194 63.4855 45.8588 62.6643 45.4664 62.0548C45.1808 61.6092 44.7644 61.3514 44.297 61.3323L44.2986 61.3307Z" fill="url(#paint11_linear_78_412)"/>
<path d="M46.7393 52.2632L46.0486 52.2807L46.6771 52.5671C47.4253 52.9093 47.7954 53.5777 48.1384 54.2922L48.4176 54.873L48.4415 54.2301C48.4639 53.6461 48.2676 53.1002 47.9039 52.7342C47.5928 52.4207 47.1812 52.2536 46.7393 52.2648V52.2632Z" fill="url(#paint12_linear_78_412)"/>
<path d="M19.9703 109.747H18.064V95.1128H19.9703V101.51H28.7508V95.1128H30.6572V109.747H28.7508V102.471H19.9703V109.747Z" fill="url(#paint13_linear_78_412)"/>
<path d="M34.6711 99.9012C34.971 99.01 35.4432 98.1905 36.0861 97.4441C36.729 96.6994 37.5458 96.0819 38.538 95.5934C39.5303 95.1064 40.7172 94.8613 42.1003 94.8613C43.4835 94.8613 44.7102 95.1096 45.736 95.6029C46.7634 96.0978 47.6121 96.7216 48.2821 97.4744C48.9521 98.2271 49.4482 99.0467 49.7705 99.9315C50.0912 100.816 50.2523 101.649 50.2523 102.43C50.2523 102.946 50.1789 103.49 50.0321 104.061C49.8854 104.632 49.6684 105.201 49.3828 105.765C49.0957 106.33 48.7288 106.867 48.2821 107.376C47.8354 107.885 47.3074 108.334 46.6996 108.724C46.0918 109.114 45.4074 109.424 44.6464 109.655C43.8855 109.886 43.0368 110 42.1003 110C40.7172 110 39.5287 109.752 38.538 109.259C37.5458 108.764 36.729 108.14 36.0861 107.387C35.4432 106.634 34.971 105.816 34.6711 104.93C34.3711 104.045 34.2212 103.213 34.2212 102.432C34.2212 101.65 34.3711 100.794 34.6711 99.9012ZM36.7258 105.116C37.0257 105.931 37.4389 106.631 37.9621 107.217C38.4854 107.802 39.1044 108.259 39.8175 108.585C40.5306 108.913 41.3059 109.077 42.1434 109.077C42.9809 109.077 43.7467 108.913 44.4805 108.585C45.2143 108.258 45.8572 107.801 46.4092 107.217C46.9612 106.631 47.3967 105.931 47.719 105.116C48.0396 104.301 48.2007 103.405 48.2007 102.43C48.2007 101.454 48.0396 100.558 47.719 99.7437C47.3967 98.9289 46.9612 98.2287 46.4092 97.6431C45.8572 97.0574 45.2143 96.6007 44.4805 96.2729C43.7467 95.9451 42.9682 95.7811 42.1434 95.7811C41.3186 95.7811 40.529 95.9451 39.8175 96.2729C39.1044 96.6007 38.487 97.0574 37.9621 97.6431C37.4389 98.2287 37.0257 98.9289 36.7258 99.7437C36.4259 100.558 36.2759 101.454 36.2759 102.43C36.2759 103.405 36.4259 104.301 36.7258 105.116Z" fill="url(#paint14_linear_78_412)"/>
<path d="M53.816 95.1128H59.0662C59.7936 95.1128 60.4285 95.221 60.9677 95.4374C61.507 95.6539 61.9473 95.9292 62.2902 96.2634C62.6332 96.5975 62.8885 96.9667 63.0576 97.371C63.2251 97.7752 63.3096 98.173 63.3096 98.5629C63.3096 99.0085 63.2123 99.4302 63.0161 99.828C62.8199 100.226 62.5582 100.574 62.2296 100.874C61.901 101.173 61.5197 101.418 61.0874 101.606C60.6535 101.793 60.1924 101.887 59.7043 101.887V101.972C60.0122 101.986 60.4174 102.034 60.9199 102.118C61.4224 102.202 61.9122 102.369 62.3875 102.619C62.8629 102.871 63.2745 103.232 63.6239 103.706C63.9733 104.18 64.1472 104.814 64.1472 105.608C64.1472 106.109 64.0594 106.609 63.8839 107.102C63.7085 107.597 63.4245 108.04 63.0321 108.429C62.6396 108.819 62.1195 109.138 61.475 109.381C60.829 109.625 60.0361 109.747 59.0965 109.747H53.8145V95.1128H53.816ZM58.2382 101.51C58.6578 101.51 59.0518 101.44 59.4219 101.302C59.792 101.163 60.1206 100.967 60.4062 100.716C60.6918 100.465 60.9167 100.165 61.0762 99.8169C61.2373 99.4684 61.3171 99.0928 61.3171 98.6886C61.3171 98.3687 61.2613 98.0473 61.1496 97.7274C61.0379 97.4076 60.8593 97.1211 60.6152 96.8697C60.3711 96.6182 60.0568 96.4161 59.6724 96.2634C59.2879 96.1106 58.8237 96.0342 58.2781 96.0342H55.7208V101.512H58.235L58.2382 101.51ZM58.7726 108.827C59.2209 108.827 59.6452 108.762 60.0441 108.628C60.4429 108.496 60.7907 108.297 61.0842 108.033C61.3793 107.769 61.6138 107.448 61.7893 107.072C61.9648 106.696 62.0525 106.264 62.0525 105.777C62.0525 105.331 61.9712 104.906 61.8101 104.502C61.6489 104.098 61.4033 103.743 61.0746 103.436C60.746 103.129 60.328 102.885 59.8239 102.704C59.3198 102.522 58.7232 102.432 58.0372 102.432H55.724V108.829H58.7726V108.827Z" fill="url(#paint15_linear_78_412)"/>
<path d="M68.172 105.441L66.3278 109.747H65.3643L71.5683 95.1128H72.6165L79.4491 109.747H77.4167L75.405 105.441H68.1752H68.172ZM71.6704 97.4553H71.5859L68.5676 104.5H74.9599L71.6689 97.4553H71.6704Z" fill="url(#paint16_linear_78_412)"/>
</g>
<defs>
<linearGradient id="paint0_linear_78_412" x1="0.0021427" y1="46.0535" x2="96.0068" y2="46.0535" gradientUnits="userSpaceOnUse">
<stop stop-color="#E4C683"/>
<stop offset="0.23" stop-color="#E0AB3E"/>
<stop offset="0.7" stop-color="#E5D07A"/>
<stop offset="1" stop-color="#B88A44"/>
</linearGradient>
<linearGradient id="paint1_linear_78_412" x1="43.788" y1="31.2554" x2="53.0965" y2="31.2554" gradientUnits="userSpaceOnUse">
<stop stop-color="#E4C683"/>
<stop offset="0.23" stop-color="#E0AB3E"/>
<stop offset="0.7" stop-color="#E5D07A"/>
<stop offset="1" stop-color="#B88A44"/>
</linearGradient>
<linearGradient id="paint2_linear_78_412" x1="38.5987" y1="22.065" x2="45.3484" y2="22.065" gradientUnits="userSpaceOnUse">
<stop stop-color="#E4C683"/>
<stop offset="0.23" stop-color="#E0AB3E"/>
<stop offset="0.7" stop-color="#E5D07A"/>
<stop offset="1" stop-color="#B88A44"/>
</linearGradient>
<linearGradient id="paint3_linear_78_412" x1="52.7822" y1="24.3008" x2="57.5362" y2="24.3008" gradientUnits="userSpaceOnUse">
<stop stop-color="#E4C683"/>
<stop offset="0.23" stop-color="#E0AB3E"/>
<stop offset="0.7" stop-color="#E5D07A"/>
<stop offset="1" stop-color="#B88A44"/>
</linearGradient>
<linearGradient id="paint4_linear_78_412" x1="26.0085" y1="46.6933" x2="70.0003" y2="46.6933" gradientUnits="userSpaceOnUse">
<stop stop-color="#E4C683"/>
<stop offset="0.23" stop-color="#E0AB3E"/>
<stop offset="0.7" stop-color="#E5D07A"/>
<stop offset="1" stop-color="#B88A44"/>
</linearGradient>
<linearGradient id="paint5_linear_78_412" x1="44.9304" y1="48.3068" x2="64.6769" y2="48.3068" gradientUnits="userSpaceOnUse">
<stop stop-color="#E4C683"/>
<stop offset="0.23" stop-color="#E0AB3E"/>
<stop offset="0.7" stop-color="#E5D07A"/>
<stop offset="1" stop-color="#B88A44"/>
</linearGradient>
<linearGradient id="paint6_linear_78_412" x1="45.736" y1="44.082" x2="58.5254" y2="44.082" gradientUnits="userSpaceOnUse">
<stop stop-color="#E4C683"/>
<stop offset="0.23" stop-color="#E0AB3E"/>
<stop offset="0.7" stop-color="#E5D07A"/>
<stop offset="1" stop-color="#B88A44"/>
</linearGradient>
<linearGradient id="paint7_linear_78_412" x1="60.0491" y1="45.207" x2="68.3159" y2="45.207" gradientUnits="userSpaceOnUse">
<stop stop-color="#E4C683"/>
<stop offset="0.23" stop-color="#E0AB3E"/>
<stop offset="0.7" stop-color="#E5D07A"/>
<stop offset="1" stop-color="#B88A44"/>
</linearGradient>
<linearGradient id="paint8_linear_78_412" x1="62.1403" y1="40.9882" x2="68.0269" y2="40.9882" gradientUnits="userSpaceOnUse">
<stop stop-color="#E4C683"/>
<stop offset="0.23" stop-color="#E0AB3E"/>
<stop offset="0.7" stop-color="#E5D07A"/>
<stop offset="1" stop-color="#B88A44"/>
</linearGradient>
<linearGradient id="paint9_linear_78_412" x1="52.7824" y1="48.4281" x2="58.6179" y2="48.4281" gradientUnits="userSpaceOnUse">
<stop stop-color="#E4C683"/>
<stop offset="0.23" stop-color="#E0AB3E"/>
<stop offset="0.7" stop-color="#E5D07A"/>
<stop offset="1" stop-color="#B88A44"/>
</linearGradient>
<linearGradient id="paint10_linear_78_412" x1="47.6648" y1="51.1636" x2="53.6057" y2="51.1636" gradientUnits="userSpaceOnUse">
<stop stop-color="#E4C683"/>
<stop offset="0.23" stop-color="#E0AB3E"/>
<stop offset="0.7" stop-color="#E5D07A"/>
<stop offset="1" stop-color="#B88A44"/>
</linearGradient>
<linearGradient id="paint11_linear_78_412" x1="43.7817" y1="63.1115" x2="45.8109" y2="63.1115" gradientUnits="userSpaceOnUse">
<stop stop-color="#E4C683"/>
<stop offset="0.23" stop-color="#E0AB3E"/>
<stop offset="0.7" stop-color="#E5D07A"/>
<stop offset="1" stop-color="#B88A44"/>
</linearGradient>
<linearGradient id="paint12_linear_78_412" x1="46.0486" y1="53.5681" x2="48.4431" y2="53.5681" gradientUnits="userSpaceOnUse">
<stop stop-color="#E4C683"/>
<stop offset="0.23" stop-color="#E0AB3E"/>
<stop offset="0.7" stop-color="#E5D07A"/>
<stop offset="1" stop-color="#B88A44"/>
</linearGradient>
<linearGradient id="paint13_linear_78_412" x1="18.064" y1="102.43" x2="30.6588" y2="102.43" gradientUnits="userSpaceOnUse">
<stop stop-color="#E4C683"/>
<stop offset="0.23" stop-color="#E0AB3E"/>
<stop offset="0.7" stop-color="#E5D07A"/>
<stop offset="1" stop-color="#B88A44"/>
</linearGradient>
<linearGradient id="paint14_linear_78_412" x1="34.2212" y1="102.43" x2="50.2539" y2="102.43" gradientUnits="userSpaceOnUse">
<stop stop-color="#E4C683"/>
<stop offset="0.23" stop-color="#E0AB3E"/>
<stop offset="0.7" stop-color="#E5D07A"/>
<stop offset="1" stop-color="#B88A44"/>
</linearGradient>
<linearGradient id="paint15_linear_78_412" x1="53.816" y1="102.43" x2="64.1472" y2="102.43" gradientUnits="userSpaceOnUse">
<stop stop-color="#E4C683"/>
<stop offset="0.23" stop-color="#E0AB3E"/>
<stop offset="0.7" stop-color="#E5D07A"/>
<stop offset="1" stop-color="#B88A44"/>
</linearGradient>
<linearGradient id="paint16_linear_78_412" x1="65.3627" y1="102.43" x2="79.4459" y2="102.43" gradientUnits="userSpaceOnUse">
<stop stop-color="#E4C683"/>
<stop offset="0.23" stop-color="#E0AB3E"/>
<stop offset="0.7" stop-color="#E5D07A"/>
<stop offset="1" stop-color="#B88A44"/>
</linearGradient>
<clipPath id="clip0_78_412">
<rect width="96" height="110" fill="white"/>
</clipPath>
</defs>
</svg>
