<svg width="366" height="323" viewBox="0 0 366 323" fill="none" xmlns="http://www.w3.org/2000/svg">
<g clip-path="url(#clip0_229_1583)">
<path opacity="0.1" d="M936.753 -376.518C923.708 -320.608 907.288 -265.476 887.644 -211.512C878.904 -187.526 869.212 -163.237 852.359 -144.074C809.242 -95.0846 733.805 -93.549 669.422 -104.212C610.124 -114.01 551.993 -130.902 496.676 -154.391C441.855 -177.663 388.83 -207.706 330.073 -217.568C271.337 -227.431 202.995 -211.577 171.345 -161.117C152.523 -131.097 149.516 -93.1164 156.871 -58.4455C164.227 -23.7746 181.102 8.10617 199.815 38.1918C221.254 72.6464 246.133 107.512 249.357 147.958C252.688 189.831 229.54 232.634 192.697 252.792C140.278 281.472 76.0903 263.477 17.311 252.771C-57.3693 239.145 -137.48 239.274 -205.713 272.539C-273.947 305.826 -326.69 378.131 -319.681 453.724M923.513 -387.83C910.792 -333.174 894.653 -279.318 875.269 -226.674C866.637 -203.272 857.075 -179.588 840.633 -160.836C798.642 -112.863 725.649 -110.225 663.04 -119.352C648.178 -121.515 633.38 -124.154 618.669 -127.225C576.332 -136.093 534.773 -148.681 494.642 -164.816C441.076 -186.38 389.155 -214.519 331.738 -223.559C274.344 -232.622 209.593 -216.076 176.169 -169.185C163.6 -151.536 155.011 -132.524 151.376 -111.998C148.889 -98.0261 148.348 -83.5132 149.819 -69.0869C150.489 -62.4901 151.528 -55.8934 152.956 -49.275C158.71 -22.8014 170.934 3.10996 184.325 27.7451C185.645 30.1892 186.986 32.6116 188.349 35.0557C209.29 72.8627 231.4 111.513 232.612 153.776C233.78 194.481 212.276 235.9 176.385 255.756C125.329 284.024 63.0451 267.824 6.14789 258.805C1.66967 258.091 -2.83019 257.442 -7.35168 256.837C-75.6284 247.71 -147.02 251.43 -207.941 282.921C-272.886 316.489 -322.493 387.237 -314.64 460.688M910.273 -399.142C897.899 -345.74 882.019 -293.139 862.873 -241.814C854.349 -218.996 844.917 -195.94 828.908 -177.555C788.02 -130.599 717.471 -126.836 656.637 -134.471C642.185 -136.287 627.799 -138.537 613.499 -141.219C572.308 -148.984 531.809 -160.382 492.608 -175.219C440.298 -195.053 389.479 -221.288 333.426 -229.529C277.394 -237.791 215.824 -220.64 181.015 -177.209C166.975 -159.69 155.487 -142.43 149.365 -122.51C145.189 -108.927 142.831 -94.5006 142.766 -79.6849C142.723 -72.9151 143.134 -66.0156 144.043 -59.0295C147.677 -31.0419 159.835 -2.72979 172.967 24.0034C174.265 26.6637 175.585 29.3024 176.905 31.9411C197.349 73.1006 216.754 115.363 215.91 159.637C215.153 199.11 195.077 239.188 160.138 258.783C110.423 286.663 50.0432 272.258 -4.92865 264.904C-9.25544 264.32 -13.6038 263.801 -17.9739 263.326C-83.8925 256.188 -152.234 261.574 -210.062 293.346C-271.718 327.217 -318.21 396.386 -309.491 467.674M897.033 -410.454C884.983 -358.285 869.385 -306.982 850.498 -256.954C842.104 -234.72 832.759 -212.269 817.182 -194.296C777.397 -148.356 709.294 -143.49 650.255 -149.589C636.236 -151.038 622.26 -152.92 608.35 -155.234C568.305 -161.896 528.845 -172.083 490.596 -185.644C439.54 -203.748 389.826 -228.101 335.113 -235.542C280.423 -242.982 221.687 -225.333 185.839 -185.277C170.241 -167.844 155.963 -152.379 147.353 -133.043C141.468 -119.871 137.293 -105.51 135.714 -90.3047C134.978 -83.3402 134.74 -76.1811 135.108 -68.8057C136.601 -39.304 148.694 -8.6128 161.588 20.2616C162.864 23.1166 164.14 25.9715 165.438 28.8265C185.407 73.3385 202.151 119.062 199.166 165.477C196.7 203.652 177.813 242.476 143.826 261.768C95.4744 289.237 36.9762 276.627 -16.0918 270.961C-20.2671 270.506 -24.4641 270.117 -28.6827 269.771C-92.2648 264.602 -157.534 271.674 -212.29 303.75C-270.68 337.923 -314.013 405.513 -304.429 474.66M883.793 -421.765C872.089 -370.851 856.772 -320.824 838.102 -272.116C829.816 -250.466 820.6 -228.642 805.457 -211.036C766.775 -166.092 701.116 -160.122 643.873 -164.729C630.265 -165.811 616.7 -167.325 603.201 -169.25C564.303 -174.808 525.903 -183.806 488.606 -196.069C438.805 -212.464 390.193 -234.893 336.822 -241.533C283.473 -248.173 227.247 -230.156 190.707 -193.344C173.443 -175.955 156.46 -162.307 145.384 -143.576C137.79 -130.815 131.819 -116.519 128.704 -100.946C127.255 -93.8085 126.389 -86.3682 126.216 -78.6035C125.589 -47.5879 137.596 -14.4958 150.23 16.4766C151.485 19.5478 152.739 22.6191 153.994 25.6904C173.465 73.5765 187.656 122.652 182.443 171.317C178.505 208.151 160.571 245.741 127.536 264.753C80.547 291.811 23.9527 280.996 -27.2332 277.017C-31.2571 276.714 -35.3027 276.433 -39.3699 276.216C-100.616 273.037 -162.813 281.797 -214.496 314.132C-269.598 348.586 -309.816 414.619 -299.366 481.625M870.531 -433.077C859.152 -383.418 844.117 -334.666 825.706 -287.256C817.528 -266.19 808.42 -244.972 793.709 -227.777C756.131 -183.849 692.917 -176.755 637.448 -179.848C624.272 -180.583 611.119 -181.708 598.009 -183.265C560.258 -187.721 522.896 -195.507 486.551 -206.494C438.004 -221.159 390.496 -241.706 338.467 -247.524C286.48 -253.364 232.439 -235.152 195.51 -201.39C176.515 -184.022 156.893 -172.234 143.329 -154.088C134.048 -141.716 126.238 -127.528 121.608 -111.544C119.466 -104.234 117.952 -96.5121 117.238 -88.358C114.491 -55.8284 126.433 -20.3572 138.807 12.7564C140.04 16.0224 141.252 19.3099 142.485 22.5975C161.458 73.836 173.205 126.199 165.676 177.178C160.441 212.628 143.285 249.051 111.224 267.759C65.5979 294.406 10.8857 285.387 -38.3748 283.094C-42.2689 282.921 -46.1413 282.791 -50.0354 282.705C-108.923 281.494 -168.07 291.941 -216.682 324.557C-268.495 359.314 -305.575 423.768 -294.282 488.632M857.291 -444.389C846.258 -395.984 831.482 -348.487 813.31 -302.396C805.24 -281.914 796.262 -261.302 781.984 -244.496C745.509 -201.585 684.761 -193.387 631.065 -194.966C618.301 -195.334 605.559 -196.113 592.86 -197.259C556.255 -200.611 519.954 -207.208 484.539 -216.898C437.247 -229.832 390.842 -248.476 340.154 -253.494C289.509 -258.533 237.436 -240.279 200.334 -209.414C179.501 -192.09 157.369 -182.14 141.317 -164.578C130.327 -152.617 120.721 -138.494 114.556 -122.142C111.7 -114.637 109.558 -106.656 108.325 -98.1126C103.457 -64.0689 115.313 -26.2186 127.449 9.01465C128.661 12.4969 129.851 16.0007 131.041 19.4829C149.538 74.0739 158.927 129.66 148.953 183.04C142.593 217.105 126.043 252.36 94.9335 270.787C50.6489 297.045 -2.15954 289.799 -49.5162 289.193C-53.2589 289.15 -56.9799 289.15 -60.7226 289.193C-117.274 289.972 -173.349 302.084 -218.867 334.982C-267.391 370.042 -301.335 432.916 -289.177 495.64M844.052 -455.679C833.343 -408.529 818.848 -362.308 800.935 -317.536C792.974 -297.638 784.126 -277.653 770.258 -261.237C734.908 -219.342 676.583 -210.02 624.684 -210.106C612.352 -210.106 600.021 -210.517 587.711 -211.296C552.253 -213.545 517.011 -218.931 482.527 -227.344C436.49 -238.57 391.189 -255.31 341.842 -259.506C292.559 -263.746 236.636 -251.742 205.18 -217.503C179.739 -204.548 157.845 -192.09 139.305 -175.133C126.627 -163.583 115.183 -149.524 107.503 -132.784C103.955 -125.105 101.164 -116.843 99.3901 -107.91C92.4024 -72.3527 104.171 -32.1016 116.048 5.25122C117.217 8.94974 118.385 12.6482 119.553 16.3467C137.552 74.2902 144.735 133.077 132.187 188.858C124.832 221.56 108.758 255.604 78.5999 273.751C35.6781 299.597 -15.2481 294.147 -60.701 295.228C-64.2922 295.315 -67.8618 295.444 -71.453 295.617C-125.646 298.364 -178.692 312.163 -221.116 345.342C-266.353 380.683 -297.181 442.001 -284.158 502.583M830.812 -466.991C820.449 -421.095 806.214 -376.15 788.539 -332.677C780.686 -313.362 771.946 -293.983 758.533 -277.956C724.286 -237.077 668.406 -226.652 618.28 -225.203C606.36 -224.857 594.439 -224.879 582.541 -225.268C548.229 -226.414 514.026 -230.61 480.493 -237.726C435.711 -247.221 391.513 -262.059 343.507 -265.476C295.567 -268.893 241.438 -257.452 210.004 -225.528C182.529 -213.286 158.321 -201.996 137.293 -185.644C122.906 -174.484 109.666 -160.512 100.45 -143.403C96.1883 -135.552 92.7702 -126.987 90.4553 -117.687C81.3474 -80.615 93.0514 -37.9847 104.669 1.48779C105.815 5.38097 106.962 9.29587 108.087 13.2323C125.589 74.5498 130.694 136.495 115.443 194.719C107.243 226.038 91.4937 258.913 62.3096 276.757C20.7508 302.192 -28.2717 298.537 -71.8208 301.306C-75.2606 301.522 -78.6787 301.782 -82.1185 302.106C-133.975 306.843 -183.949 322.307 -223.302 355.789C-265.271 391.433 -292.941 451.171 -279.074 509.612M817.572 -478.303C807.555 -433.661 793.58 -389.993 776.164 -347.817C768.419 -329.064 759.809 -310.312 746.807 -294.696C713.664 -254.813 660.228 -243.285 611.898 -240.343C600.41 -239.63 588.901 -239.284 577.392 -239.305C544.227 -239.348 511.084 -242.333 478.481 -248.151C434.954 -255.916 391.859 -268.872 345.195 -271.467C298.595 -274.084 246.241 -263.183 214.829 -233.574C185.32 -222.024 158.775 -211.923 135.281 -196.156C119.207 -185.406 104.128 -171.521 93.3976 -154.001C88.4434 -145.955 84.3762 -137.131 81.5422 -127.441C70.3142 -88.8555 81.9316 -43.8461 93.311 -2.23242C94.436 1.87704 95.5609 6.00813 96.6426 10.1392C113.669 74.8092 116.849 139.955 98.7411 200.581C89.7846 230.558 74.2731 262.201 46.0408 279.763C5.845 304.788 -41.2953 302.928 -82.9406 307.383C-86.229 307.729 -89.4957 308.119 -92.7841 308.573C-142.282 315.278 -189.206 332.429 -225.487 366.192C-264.168 402.117 -288.701 460.277 -273.968 516.598M804.31 -489.615C794.618 -446.206 780.924 -403.814 763.746 -362.978C756.11 -344.81 747.629 -326.685 735.06 -311.437C703.02 -272.57 652.029 -259.917 605.494 -255.462C594.418 -254.402 583.32 -253.667 572.221 -253.299C540.203 -252.239 508.12 -254.034 476.448 -258.555C434.197 -264.611 392.184 -275.641 346.861 -277.437C301.624 -279.253 251.022 -268.893 219.653 -241.619C188.111 -230.762 159.251 -221.829 133.247 -206.667C115.464 -196.329 98.5897 -182.508 86.3232 -164.621C80.6552 -156.402 75.9606 -147.296 72.5857 -137.217C59.2376 -97.1178 70.7684 -49.7075 81.8882 -5.99579C82.9916 -1.67004 84.0733 2.65579 85.1334 7.00317C101.662 75.0256 103.09 143.416 81.9532 206.42C72.3477 235.057 56.966 265.488 29.7072 282.77C-9.14731 307.405 -54.3838 307.34 -94.1254 313.461C-97.2623 313.937 -100.378 314.478 -103.515 315.04C-150.676 323.735 -194.528 342.573 -227.715 376.595C-263.108 412.824 -284.526 469.404 -268.927 523.584M791.07 -500.927C781.724 -458.772 768.29 -417.656 751.372 -378.119C743.843 -360.534 735.471 -343.015 723.334 -328.178C692.398 -290.327 643.873 -276.572 599.091 -270.602C588.447 -269.175 577.759 -268.071 567.029 -267.336C536.157 -265.151 505.113 -265.779 474.393 -269.001C433.396 -273.327 392.487 -282.476 348.505 -283.449C304.61 -284.466 255.803 -274.668 224.456 -249.687C190.88 -239.543 159.684 -231.778 131.214 -217.201C111.721 -207.251 93.0298 -193.517 79.249 -175.241C72.8886 -166.827 67.545 -157.462 63.6293 -146.994C48.161 -105.38 59.6269 -55.5905 70.4871 -9.73749C71.5688 -5.21708 72.629 -0.65345 73.6458 3.91022C89.6765 75.2851 89.5251 146.984 65.1869 212.282C54.9973 239.62 39.6804 268.776 13.3736 285.776C-24.118 310.001 -67.4507 311.731 -105.288 319.539C-108.274 320.166 -111.238 320.815 -114.202 321.529C-159.005 332.192 -199.807 352.717 -229.922 387.021C-262.026 423.551 -280.307 478.553 -263.865 530.592M777.83 -512.238C768.809 -471.338 755.655 -431.498 738.975 -393.259C731.555 -376.258 723.313 -359.366 711.609 -344.897C681.775 -308.063 635.695 -293.182 592.708 -285.72C582.497 -283.925 572.2 -282.476 561.88 -281.33C532.155 -278.042 502.171 -277.458 472.381 -279.405C432.639 -282 392.833 -289.246 350.192 -289.419C307.66 -289.635 260.606 -280.378 229.28 -257.711C193.671 -248.26 160.138 -241.684 129.18 -227.691C108 -218.152 87.4915 -204.483 72.1747 -185.817C65.1004 -177.231 59.1294 -167.584 54.6945 -156.727C37.1061 -113.599 48.4855 -61.4086 59.1078 -13.4576C60.1679 -8.72094 61.1846 -3.96263 62.1797 0.817322C77.7345 75.5663 76.1769 150.64 48.4638 218.165C37.755 244.227 22.4382 272.107 -2.91675 288.804C-39.0454 312.618 -80.496 316.143 -116.43 325.638C-119.264 326.395 -122.076 327.174 -124.889 328.017C-167.356 340.67 -205.086 362.861 -232.128 397.446C-260.945 434.258 -276.11 487.702 -258.781 537.578M764.59 -523.55C755.915 -483.905 743.021 -445.341 726.601 -408.42C719.289 -392.004 711.154 -375.718 699.883 -361.659C671.175 -325.842 627.518 -309.858 586.327 -300.861C576.526 -298.719 566.661 -296.881 556.731 -295.367C528.153 -290.976 499.207 -289.203 470.369 -289.852C431.882 -290.738 393.179 -296.081 351.88 -295.453C310.689 -294.848 268.481 -280.443 234.126 -265.822C198.56 -250.682 160.636 -251.655 127.19 -238.289C104.301 -229.161 81.9749 -215.578 65.1437 -196.524C57.3771 -187.764 50.7571 -177.815 45.7812 -166.589C26.0727 -121.948 37.3657 -67.3782 47.7283 -17.3076C48.7451 -12.3546 49.7619 -7.37995 50.7138 -2.40533C65.771 75.6961 63.0235 154.273 31.7192 223.918C20.5561 248.748 5.17434 275.286 -19.2071 291.703C-53.9728 315.105 -93.5412 320.425 -127.55 331.607C-130.232 332.494 -132.893 333.403 -135.554 334.376C-175.685 348.997 -210.343 372.875 -234.313 407.741C-259.863 444.856 -271.87 496.721 -253.697 544.456M751.35 -534.862C742.999 -496.471 730.408 -459.183 714.205 -423.561C707 -407.728 698.996 -392.047 688.157 -378.378C660.552 -343.556 619.34 -326.469 579.923 -315.979C570.555 -313.47 561.08 -311.264 551.561 -309.361C524.129 -303.867 496.243 -300.882 468.335 -300.255C431.103 -299.412 393.503 -302.851 353.545 -301.423C313.717 -300.017 272.699 -286.607 238.951 -273.846C201.091 -259.528 161.09 -261.561 125.178 -248.779C100.602 -240.041 76.4582 -226.544 58.091 -207.1C49.6105 -198.146 42.3631 -187.937 36.8464 -176.322C14.9962 -130.166 26.2458 -73.218 36.3489 -21.0062C37.344 -15.8585 38.3176 -10.6675 39.2479 -5.45502C53.8075 75.9989 50.0864 158.21 14.9745 229.823C3.37876 253.463 -12.0895 278.639 -35.519 294.774C-68.9435 317.787 -106.587 324.881 -138.713 337.75C-141.244 338.767 -143.754 339.827 -146.263 340.908C-184.036 357.519 -215.665 383.062 -236.52 418.231C-258.781 455.648 -267.651 505.935 -248.635 551.529M738.089 -546.174C730.084 -509.037 717.753 -473.004 701.808 -438.701C694.712 -423.452 686.838 -408.399 676.41 -395.119C649.909 -361.313 611.141 -343.102 573.519 -331.098C564.563 -328.221 555.52 -325.647 546.39 -323.376C520.105 -316.779 493.279 -312.605 466.323 -310.68C430.346 -308.106 393.849 -309.663 355.233 -307.414C316.746 -305.208 276.983 -292.901 243.775 -281.892C203.579 -268.569 161.566 -271.489 123.144 -259.29C96.8589 -250.963 70.8982 -237.532 51.0167 -217.72C41.8439 -208.592 33.9475 -198.102 27.89 -186.098C3.91962 -138.429 15.0827 -79.0793 24.9478 -24.7695C25.9213 -19.4055 26.8731 -14.02 27.7601 -8.59119C41.8438 76.2152 37.344 162.233 -1.77014 235.662C-13.7553 258.135 -29.3534 281.926 -51.831 297.758C-83.8925 320.361 -119.653 329.25 -149.876 343.806C-152.256 344.952 -154.614 346.142 -156.972 347.375C-192.408 365.954 -220.965 393.185 -238.748 428.634C-257.721 466.333 -263.476 515.063 -243.573 558.515M724.849 -557.486C717.19 -521.604 705.118 -486.846 689.412 -453.862C682.424 -439.198 674.658 -424.75 664.685 -411.859C639.286 -379.07 602.985 -359.756 567.137 -346.238C558.614 -343.015 549.96 -340.052 541.241 -337.392C516.103 -329.692 490.315 -324.306 464.311 -321.105C429.589 -316.823 394.217 -316.455 356.92 -313.405C319.775 -310.399 281.288 -299.282 248.621 -289.96C206.067 -277.804 162.042 -281.416 121.154 -269.823C93.1596 -261.907 65.4032 -248.541 43.9856 -228.339C34.0989 -219.039 25.5752 -208.268 18.9985 -195.875C-7.09204 -146.691 3.9845 -84.9623 13.59 -28.5113C14.5419 -22.9311 15.4505 -17.3293 16.3159 -11.7058C29.902 76.4746 24.8829 166.472 -18.4932 241.502C-30.8461 262.871 -46.5956 285.192 -68.0997 300.743C-98.7983 322.934 -132.677 333.619 -160.974 349.862C-163.203 351.138 -165.409 352.458 -167.616 353.82C-200.694 374.389 -226.2 403.285 -240.912 439.016C-256.596 477.017 -259.214 524.168 -238.467 565.479M711.609 -568.776C704.275 -534.127 692.484 -500.667 677.037 -468.981C670.18 -454.901 662.521 -441.058 652.959 -428.578C628.664 -396.806 594.807 -376.367 560.733 -361.356C552.621 -357.766 544.4 -354.457 536.071 -351.407C512.079 -342.604 487.351 -336.029 462.278 -331.509C428.81 -325.496 394.542 -323.246 358.586 -319.375C322.804 -315.568 285.615 -305.705 253.445 -297.984C208.555 -287.234 162.496 -291.322 119.12 -280.313C89.4386 -272.808 59.8433 -259.528 36.9113 -238.938C26.3323 -229.443 17.1596 -218.412 10.0421 -205.629C-18.1686 -154.931 -7.15695 -90.8021 2.1889 -32.2531C3.11916 -26.4782 4.00616 -20.6601 4.82825 -14.8203C17.9384 76.7126 12.5948 170.928 -35.2595 247.364C-47.9586 267.651 -63.8811 288.502 -84.4334 303.75C-113.791 325.552 -145.744 338.01 -172.159 355.94C-174.236 357.346 -176.291 358.795 -178.325 360.287C-209.066 382.824 -231.501 413.429 -243.14 449.419C-255.536 487.724 -255.038 533.296 -233.426 572.465M698.369 -580.088C691.381 -546.693 679.85 -514.51 664.641 -484.143C657.892 -470.646 650.341 -457.431 641.234 -445.319C618.042 -414.563 586.63 -393.021 554.352 -376.475C546.672 -372.538 538.84 -368.84 530.922 -365.401C508.077 -355.495 484.409 -347.709 460.266 -341.912C428.053 -334.169 394.888 -330.016 360.274 -325.366C325.832 -320.737 290.05 -312.194 258.27 -306.03C211.043 -296.859 162.972 -301.25 117.108 -290.847C85.7175 -283.731 54.305 -270.537 29.8586 -249.557C18.5657 -239.889 8.76565 -228.577 1.10724 -215.405C-29.2235 -163.215 -18.2984 -96.6852 -9.19049 -35.9949C-8.28187 -30.0037 -7.43818 -23.9693 -6.61609 -17.9133C5.99649 76.9721 0.609627 175.664 -51.9608 253.225C-65.0277 272.496 -81.0801 291.789 -100.702 306.778C-128.696 328.168 -158.768 342.443 -183.279 362.039C-185.204 363.596 -187.108 365.175 -188.99 366.798C-217.374 391.325 -236.758 423.595 -245.303 459.866C-254.433 498.452 -250.777 542.466 -228.299 579.495M685.129 -591.4C678.465 -559.259 667.216 -528.33 652.267 -499.283C645.625 -486.371 638.205 -473.761 629.508 -462.06C607.441 -432.299 578.452 -409.653 547.97 -391.615C540.701 -387.311 533.302 -383.245 525.773 -379.438C504.074 -368.429 481.445 -359.453 458.254 -352.359C427.296 -342.907 395.234 -336.851 361.961 -331.379C328.883 -325.95 294.571 -318.791 263.116 -314.119C213.617 -306.765 163.448 -311.199 115.118 -301.401C82.0397 -294.696 48.81 -281.568 22.8276 -260.22C10.8424 -250.379 0.393261 -238.764 -7.78436 -225.225C-40.2353 -171.521 -29.3966 -102.611 -20.5483 -39.8015C-19.683 -33.5941 -18.8393 -27.365 -18.0605 -21.0927C-5.94549 77.1452 -11.1592 180.574 -68.6838 259.021C-82.0969 277.319 -98.3223 295.033 -116.971 309.719C-143.602 330.699 -171.791 346.769 -194.377 368.052C-196.151 369.739 -197.925 371.448 -199.634 373.2C-225.681 399.695 -241.993 433.652 -247.467 470.204C-253.308 509.093 -246.515 551.507 -223.193 586.416M671.867 -602.712C665.55 -571.826 654.56 -542.173 639.849 -514.423C633.316 -502.095 626.025 -490.112 617.761 -478.779C596.797 -450.034 570.253 -426.264 541.544 -406.712C534.708 -402.04 527.699 -397.606 520.581 -393.41C500.029 -381.298 478.46 -371.132 456.198 -362.741C426.495 -351.558 395.537 -343.599 363.605 -337.327C331.868 -331.098 299.115 -325.344 267.918 -322.122C216.17 -316.779 163.903 -321.084 113.063 -311.87C78.2754 -305.576 43.2284 -292.512 15.7317 -270.775C3.05421 -260.739 -8.04392 -248.865 -16.7624 -234.936C-51.3334 -179.718 -40.5814 -108.408 -31.9711 -43.4785C-31.1273 -37.0763 -30.3269 -30.6309 -29.5697 -24.1423C-17.9306 77.4696 -22.7766 185.916 -85.4717 264.926C-99.2742 282.316 -115.629 298.364 -133.326 312.769C-158.594 333.338 -184.88 351.203 -205.583 374.173C-207.206 375.99 -208.807 377.828 -210.386 379.71C-234.075 408.195 -247.337 443.818 -249.738 480.673C-252.291 519.864 -242.383 560.699 -218.196 593.467M658.627 -614.023C641.623 -529.823 586.478 -455.787 515.432 -407.447C444.386 -359.107 358.543 -335.207 272.764 -330.211C218.853 -327.075 164.378 -331.054 111.072 -322.425C57.7665 -313.795 3.66001 -290.09 -25.6756 -244.756C-62.3667 -188.023 -51.6796 -114.334 -43.3289 -47.285C-29.5914 62.9784 -29.7861 186.414 -102.195 270.723C-138.259 312.726 -189.271 340.8 -221.052 386.134C-265.098 448.965 -261.68 540.995 -213.09 600.388M-558 -395.681C-516.528 -435.391 -472.654 -472.615 -426.725 -507.091C-406.303 -522.404 -384.929 -537.479 -360.331 -544.314C-297.463 -561.812 -233.426 -521.907 -185.312 -477.827C-140.984 -437.23 -101.524 -391.355 -68.0133 -341.458C-34.8052 -292.015 -6.78917 -237.899 37.0195 -197.562C80.8499 -157.224 146.725 -133.194 200.81 -158.176C232.98 -173.035 256.258 -203.228 269.022 -236.277C281.786 -269.326 285.096 -305.251 285.853 -340.679C286.718 -381.233 284.923 -424.036 304.307 -459.681C324.383 -496.558 367.153 -519.809 409.036 -516.564C468.616 -511.957 512.555 -461.843 555.931 -420.77C611.054 -368.58 678.227 -324.933 753.557 -315.546C828.886 -306.16 912.588 -337.954 948.003 -405.068M-553.089 -378.984C-512.352 -418.067 -469.106 -454.511 -423.761 -488.058C-403.599 -502.981 -382.506 -517.581 -358.341 -524.329C-309.794 -537.869 -260.49 -517.429 -218.391 -487.625C-206.925 -479.514 -195.978 -470.711 -185.745 -461.692C-141.698 -422.933 -102.303 -378.897 -68.619 -330.816C-35.2594 -283.19 -7.11368 -230.654 36.3922 -191.57C60.7952 -169.661 91.2341 -152.12 122.949 -144.16C150.576 -137.239 179.306 -137.715 205.396 -149.308C210.048 -151.384 214.547 -153.763 218.853 -156.445C245.397 -172.927 264.652 -200.092 276.269 -229.399C280.012 -238.808 283.019 -248.454 285.485 -258.209C291.91 -283.687 294.723 -310.183 296.432 -336.224C299.201 -377.556 300.607 -420.143 321.549 -455.398C342.339 -490.415 383.444 -513.082 424.353 -510.141C482.57 -505.945 525.903 -458.361 568.608 -419.732C571.983 -416.683 575.38 -413.676 578.841 -410.713C631.044 -365.79 692.874 -329.93 761.107 -323.052C833.862 -315.72 914.059 -347.882 947.591 -413.698M-548.178 -362.265C-508.177 -400.699 -465.558 -436.365 -420.798 -469.024C-400.916 -483.537 -380.083 -497.704 -356.35 -504.344C-308.647 -517.667 -260.187 -498.504 -218.585 -470.214C-207.227 -462.514 -196.389 -454.144 -186.199 -445.557C-142.434 -408.658 -103.103 -366.439 -69.2679 -320.175C-35.757 -274.344 -7.43813 -223.451 35.7216 -185.579C61.1414 -163.28 92.3376 -145.112 124.94 -136.46C153.259 -128.955 182.984 -128.934 209.94 -140.483C214.764 -142.538 219.415 -144.939 223.893 -147.664C251.455 -164.362 271.207 -192.371 283.473 -222.543C287.411 -232.211 290.634 -242.117 293.317 -252.109C300.348 -278.215 304.069 -305.295 306.946 -331.79C311.619 -373.879 316.162 -416.228 338.705 -451.159C360.122 -484.337 399.626 -506.42 439.584 -503.76C496.438 -499.953 539.165 -454.922 581.199 -418.737C584.509 -415.882 587.863 -413.071 591.259 -410.28C642.575 -368.299 702.76 -335.51 768.571 -330.557C838.73 -325.258 915.444 -357.831 947.094 -422.306M-543.267 -345.567C-504.002 -383.374 -462.01 -418.262 -417.855 -450.013C-398.233 -464.114 -377.703 -477.849 -354.382 -484.381C-307.544 -497.488 -259.906 -479.601 -218.78 -452.846C-207.53 -445.557 -196.778 -437.619 -186.654 -429.465C-143.169 -394.405 -103.882 -354.024 -69.8954 -309.577C-36.233 -265.541 -7.71943 -216.314 35.0941 -179.631C61.5308 -156.965 93.484 -138.147 126.952 -128.804C155.984 -120.715 186.661 -120.174 214.504 -131.68C219.502 -133.735 224.326 -136.158 228.956 -138.905C257.534 -155.818 277.805 -184.693 290.72 -215.73C294.853 -225.657 298.271 -235.823 301.213 -246.053C308.85 -272.787 313.501 -300.471 317.547 -327.399C324.123 -370.267 331.717 -412.314 355.968 -446.963C377.884 -478.303 415.916 -499.802 454.922 -497.401C510.435 -494.005 552.534 -451.505 593.898 -417.764C597.165 -415.104 600.454 -412.487 603.785 -409.891C654.214 -370.851 712.777 -341.133 776.143 -338.084C843.705 -334.818 916.958 -367.78 946.704 -430.936M-538.335 -328.87C-499.826 -366.028 -458.441 -400.158 -414.87 -431.001C-395.508 -444.713 -375.258 -457.994 -352.37 -464.417C-306.397 -477.308 -259.603 -460.697 -218.931 -435.456C-207.812 -428.578 -197.146 -421.073 -187.065 -413.352C-143.862 -380.13 -104.639 -341.566 -70.5011 -298.957C-36.6873 -256.738 -7.93582 -209.176 34.4667 -173.64C61.9418 -150.627 94.6306 -131.14 128.985 -121.082C158.71 -112.431 190.361 -111.371 219.091 -122.834C224.239 -124.889 229.237 -127.311 234.04 -130.102C263.635 -147.253 284.425 -176.949 297.968 -208.852C302.295 -219.061 305.929 -229.486 309.088 -239.954C317.33 -267.314 322.89 -295.583 328.126 -322.965C336.606 -366.612 347.207 -408.334 373.189 -442.724C395.515 -472.269 432.185 -493.119 470.217 -491.021C524.367 -488.036 565.861 -448.066 606.554 -416.791C609.756 -414.325 613.001 -411.903 616.289 -409.502C665.853 -373.403 722.75 -346.757 783.693 -345.632C848.66 -344.421 918.429 -377.772 946.293 -439.587M-533.424 -312.151C-495.651 -348.682 -454.893 -382.033 -411.906 -411.968C-392.803 -425.269 -372.857 -438.117 -350.379 -444.432C-305.272 -457.128 -259.3 -441.772 -219.126 -418.045C-208.114 -411.6 -197.535 -404.506 -187.519 -397.217C-144.576 -365.833 -105.44 -329.108 -71.1285 -288.316C-37.1632 -247.892 -8.15207 -202.06 33.8177 -167.649C62.3313 -144.268 95.7556 -124.11 130.997 -113.383C161.436 -104.147 194.06 -102.568 223.655 -113.988C228.977 -116.043 234.126 -118.465 239.102 -121.299C269.736 -138.667 291.002 -169.228 305.194 -201.996C309.715 -212.464 313.566 -223.149 316.941 -233.855C325.789 -261.842 332.214 -290.738 338.683 -318.531C348.981 -362.957 362.588 -404.354 390.41 -438.484C413.039 -466.277 448.432 -486.457 485.513 -484.64C538.299 -482.045 579.187 -444.605 619.21 -415.796C622.369 -413.525 625.549 -411.297 628.772 -409.091C677.449 -375.912 732.702 -352.359 791.222 -353.159C853.614 -353.981 919.878 -387.722 945.861 -448.239M-528.513 -295.453C-491.476 -331.357 -451.345 -363.908 -408.942 -392.934C-390.121 -405.825 -370.434 -418.218 -348.367 -424.447C-304.126 -436.927 -258.976 -422.825 -219.278 -400.634C-208.396 -394.6 -197.903 -387.96 -187.93 -381.082C-145.268 -351.537 -106.197 -316.65 -71.7343 -277.675C-37.6176 -239.046 -8.32526 -194.945 33.1902 -161.658C62.7638 -137.953 96.9022 -117.103 133.031 -105.661C164.184 -95.8416 197.759 -93.7653 228.242 -105.142C233.737 -107.175 239.059 -109.641 244.186 -112.496C275.836 -130.08 297.622 -161.485 312.441 -195.139C317.157 -205.867 321.224 -216.811 324.837 -227.755C334.291 -256.37 341.647 -285.85 349.262 -314.076C361.463 -359.28 377.927 -400.331 407.63 -434.224C430.476 -460.286 464.679 -479.774 500.807 -478.216C552.231 -476.032 592.514 -441.123 631.866 -414.758C634.959 -412.681 638.096 -410.627 641.255 -408.637C689.044 -378.4 742.653 -357.939 798.75 -360.642C858.546 -363.497 921.328 -397.649 945.428 -456.826M-523.602 -278.756C-487.3 -314.011 -447.797 -345.805 -406 -373.923C-387.438 -386.424 -368.054 -398.363 -346.399 -404.484C-303.023 -416.748 -258.716 -403.922 -219.472 -383.266C-208.699 -377.643 -198.293 -371.435 -188.384 -364.99C-146.004 -337.283 -106.998 -304.235 -72.3833 -267.055C-38.1151 -230.243 -8.51997 -187.894 32.5196 -155.688C63.1532 -131.637 98.0055 -110.117 135.021 -97.9829C166.866 -87.5795 201.437 -84.984 232.807 -96.3174C238.453 -98.3505 243.948 -100.816 249.248 -103.715C281.915 -121.537 304.198 -153.785 319.667 -188.283C324.578 -199.27 328.84 -210.496 332.69 -221.678C342.75 -250.92 351.014 -281.005 359.819 -309.663C373.925 -355.646 393.157 -396.373 424.851 -430.006C447.826 -454.403 480.948 -473.134 516.103 -471.858C566.164 -470.062 605.862 -437.706 644.522 -413.784C647.572 -411.903 650.644 -410.043 653.738 -408.247C700.64 -380.952 752.605 -363.562 806.279 -368.191C863.479 -373.101 922.799 -407.62 944.995 -465.477M-518.691 -262.037C-483.125 -296.665 -444.249 -327.68 -403.036 -354.889C-384.734 -366.98 -365.631 -378.486 -344.408 -384.499C-301.898 -396.546 -258.457 -384.932 -219.667 -365.855C-209.023 -360.621 -198.704 -354.868 -188.86 -348.855C-146.761 -323.008 -107.82 -291.777 -73.0322 -256.414C-38.6126 -221.397 -8.69292 -180.843 31.8491 -149.676C63.5644 -125.3 99.109 -103.087 137.012 -90.2398C169.571 -79.274 205.094 -76.1594 237.35 -87.428C243.169 -89.4611 248.837 -91.9268 254.289 -94.8683C287.973 -112.907 310.775 -145.999 326.871 -181.383C331.977 -192.63 336.455 -204.115 340.544 -215.535C351.209 -245.383 360.404 -276.096 370.377 -305.186C386.386 -351.948 408.323 -392.394 442.05 -425.702C465.09 -448.455 497.173 -466.386 531.376 -465.412C580.096 -464.028 619.167 -434.202 657.156 -412.725C660.142 -411.038 663.17 -409.372 666.221 -407.772C712.236 -383.418 762.557 -369.099 813.807 -375.653C868.433 -382.596 924.249 -417.526 944.563 -474.064M-513.759 -245.34C-478.95 -279.318 -440.679 -309.577 -400.051 -335.878C-382.008 -347.557 -363.208 -358.631 -342.396 -364.536C-300.751 -376.367 -258.132 -366.006 -219.818 -348.466C-209.283 -343.642 -199.05 -338.322 -189.271 -332.741C-147.453 -308.734 -108.577 -279.34 -73.638 -245.794C-39.067 -212.572 -8.82284 -173.813 31.2216 -143.706C64.0402 -119.028 100.256 -96.0795 139.023 -82.5615C172.296 -71.0118 208.771 -67.3781 241.914 -78.6251C247.907 -80.6582 253.727 -83.1456 259.373 -86.1087C294.095 -104.363 317.395 -138.321 334.118 -174.549C339.418 -186.055 344.113 -197.8 348.418 -209.457C359.689 -239.932 369.814 -271.229 380.934 -300.774C398.847 -348.314 423.401 -388.522 459.27 -421.484C482.311 -442.659 513.442 -459.745 546.672 -459.053C594.028 -458.058 632.493 -430.785 669.79 -411.751C672.732 -410.259 675.696 -408.788 678.682 -407.382C723.81 -385.97 772.486 -374.723 821.314 -383.18C873.344 -392.156 925.676 -427.475 944.087 -482.694M-508.848 -228.621C-474.774 -261.972 -437.131 -291.431 -397.087 -316.844C-379.325 -328.113 -360.785 -338.754 -340.406 -344.551C-299.626 -356.165 -257.829 -347.081 -219.992 -331.076C-209.586 -326.664 -199.439 -321.776 -189.704 -316.628C-148.167 -294.459 -109.334 -266.903 -74.2438 -235.174C-39.5213 -203.769 -8.90934 -166.827 30.6158 -137.737C64.5378 -112.777 101.424 -89.0934 141.079 -74.8617C175.044 -62.728 212.514 -58.5969 246.522 -69.7789C252.688 -71.7904 258.681 -74.2994 264.479 -77.3058C300.218 -95.7767 324.015 -130.577 341.387 -167.692C346.882 -179.458 351.771 -191.462 356.315 -203.38C368.192 -234.482 379.225 -266.384 391.535 -296.362C411.373 -344.659 438.459 -384.694 476.513 -417.267C499.466 -436.905 529.71 -453.105 561.988 -452.673C607.982 -452.089 645.841 -427.346 682.468 -410.778C685.367 -409.48 688.266 -408.204 691.186 -406.993C735.428 -388.522 782.46 -380.346 828.864 -390.728C878.298 -401.759 927.147 -437.468 943.676 -491.345M-503.937 -211.923C-470.599 -244.647 -433.583 -273.327 -394.123 -297.811C-376.621 -308.69 -358.384 -318.856 -338.416 -324.566C-298.479 -335.964 -257.548 -328.156 -220.165 -313.665C-209.867 -309.664 -199.807 -305.23 -190.137 -300.493C-148.881 -280.162 -110.113 -254.445 -74.8712 -224.533C-39.9973 -194.923 -9.01748 -159.82 29.9669 -131.745C64.9922 -106.505 102.549 -82.0857 143.091 -67.1619C177.77 -54.4442 216.192 -49.794 251.087 -60.9545C257.404 -62.9659 263.57 -65.4748 269.541 -68.5245C306.297 -87.2334 330.614 -122.878 348.613 -160.858C354.303 -172.883 359.408 -185.168 364.189 -197.302C376.672 -229.032 388.636 -261.54 402.114 -291.928C423.856 -341.004 453.408 -380.93 493.755 -413.027C516.6 -431.196 545.979 -446.422 577.305 -446.292C621.936 -446.119 659.189 -423.885 695.145 -409.783C697.979 -408.68 700.835 -407.599 703.69 -406.56C747.045 -391.031 792.433 -385.927 836.415 -398.233C883.274 -411.297 928.64 -447.395 943.265 -499.953M-499.026 -195.226C-466.424 -227.301 -430.014 -255.224 -391.181 -278.799C-373.939 -289.268 -355.982 -299.001 -336.447 -304.602C-297.376 -315.806 -257.267 -309.253 -220.381 -296.275C-210.191 -292.707 -200.24 -288.684 -190.613 -284.38C-149.616 -265.887 -110.935 -242.009 -75.5202 -213.913C-40.4949 -186.098 -9.12571 -152.877 29.2961 -125.776C65.4464 -100.276 103.652 -75.0996 145.081 -59.462C180.474 -46.1604 219.869 -41.0127 255.63 -52.1083C262.12 -54.1198 268.438 -56.6503 274.582 -59.7C312.354 -78.6251 337.169 -115.113 355.839 -153.958C361.745 -166.265 367.045 -178.788 372.042 -191.16C385.131 -223.516 398.09 -256.587 412.649 -287.451C436.403 -337.262 468.249 -377.232 510.932 -408.745C533.605 -425.486 562.205 -439.717 592.557 -439.869C635.846 -440.085 672.473 -420.403 707.758 -408.745C710.549 -407.836 713.339 -406.95 716.152 -406.106C758.641 -393.518 802.363 -391.507 843.922 -405.717C888.185 -420.814 930.068 -457.323 942.81 -508.562M-494.093 -178.507C-462.248 -209.955 -426.444 -237.077 -388.195 -259.766C-371.213 -269.823 -353.559 -279.124 -334.435 -284.617C-296.229 -295.605 -256.942 -290.327 -220.532 -278.886C-210.451 -275.728 -200.586 -272.138 -191.024 -268.266C-150.309 -251.612 -111.692 -229.551 -76.126 -203.293C-40.9492 -177.296 -9.19061 -145.934 28.6688 -119.785C65.9656 -94.0464 104.799 -68.0704 147.115 -51.7623C183.2 -37.8982 223.569 -32.2099 260.217 -43.2621C266.88 -45.2736 273.37 -47.8041 279.665 -50.897C318.477 -70.0385 343.788 -107.37 363.086 -147.102C369.187 -159.668 374.703 -172.451 379.939 -185.06C393.633 -218.044 407.501 -251.72 423.25 -283.017C448.908 -333.585 483.068 -373.663 528.196 -404.506C550.674 -419.862 578.495 -433.056 607.896 -433.488C649.822 -434.115 685.843 -416.964 720.457 -407.75C723.183 -407.015 725.93 -406.344 728.678 -405.695C770.28 -396.027 812.358 -397.109 851.493 -413.244C893.16 -430.395 931.561 -467.272 942.421 -517.191M-489.182 -161.809C-458.073 -192.63 -422.896 -218.974 -385.231 -240.754C-368.53 -250.422 -351.136 -259.269 -332.445 -264.654C-295.105 -275.425 -256.639 -271.424 -220.705 -261.496C-210.754 -258.749 -200.975 -255.592 -191.456 -252.153C-151.023 -237.359 -112.471 -217.114 -76.7317 -192.674C-41.4035 -168.471 -9.2555 -139.013 28.0414 -113.815C66.4849 -87.839 105.945 -61.0841 149.148 -44.0839C185.947 -29.6359 227.268 -23.4502 264.803 -34.4592C271.618 -36.4491 278.281 -39.0012 284.75 -42.1374C324.578 -61.4951 350.387 -99.6915 370.333 -140.267C376.629 -153.093 382.34 -166.157 387.814 -179.004C402.114 -212.615 416.911 -246.875 433.829 -278.626C461.391 -329.973 497.822 -370.289 545.417 -400.288C567.678 -414.325 594.742 -426.416 623.191 -427.108C663.754 -428.124 699.169 -413.525 733.113 -406.755C735.795 -406.214 738.478 -405.739 741.161 -405.284C781.876 -398.558 822.309 -402.71 859.001 -420.77C898.071 -439.955 932.989 -477.243 941.967 -525.821M-484.272 -145.112C-453.898 -175.284 -419.348 -200.871 -382.268 -221.743C-365.826 -231 -348.713 -239.413 -330.454 -244.691C-293.98 -255.246 -256.336 -252.52 -220.9 -244.107C-211.057 -241.771 -201.365 -239.046 -191.911 -236.039C-151.758 -223.084 -113.271 -204.678 -77.3807 -182.054C-41.9011 -159.646 -9.34192 -132.091 27.3708 -107.846C66.9826 -81.6748 107.049 -54.0981 151.117 -36.3842C188.63 -21.3522 230.924 -14.6473 269.325 -25.6131C276.312 -27.6029 283.149 -30.1551 289.769 -33.3345C330.614 -52.9302 356.942 -91.9485 377.516 -133.411C384.006 -146.496 389.934 -159.82 395.624 -172.905C410.529 -207.122 426.236 -242.009 444.322 -274.192C473.787 -326.296 512.403 -367.001 562.551 -396.049C584.596 -408.81 610.924 -419.732 638.4 -420.727C677.6 -422.155 712.409 -410.086 745.682 -405.76C748.3 -405.414 750.939 -405.133 753.557 -404.873C793.385 -401.088 832.175 -408.312 866.443 -428.276C902.939 -449.493 934.373 -487.171 941.448 -534.43M-479.361 -128.393C-449.722 -157.938 -415.8 -182.746 -379.304 -202.688C-363.122 -211.534 -346.312 -219.493 -328.464 -224.684C-292.855 -235.023 -256.034 -233.574 -221.073 -226.696C-211.338 -224.771 -201.754 -222.5 -192.365 -219.904C-152.494 -208.787 -114.072 -192.219 -78.0081 -171.391C-42.377 -150.8 -9.38528 -125.149 26.7217 -101.833C67.5017 -75.4889 108.173 -47.0688 153.129 -28.6627C191.334 -13.0468 234.602 -5.84438 273.889 -16.7669C281.05 -18.7568 288.038 -21.3306 294.831 -24.5316C336.693 -44.3436 363.54 -84.227 384.742 -126.533C391.426 -139.878 397.57 -153.461 403.498 -166.784C419.01 -201.628 435.646 -237.099 454.9 -269.715C486.27 -322.598 527.049 -363.844 579.793 -391.766C601.6 -403.316 627.193 -413.027 653.716 -414.303C691.554 -416.142 725.779 -406.582 758.359 -404.722C760.934 -404.571 763.508 -404.462 766.083 -404.419C805.024 -403.576 842.191 -413.871 874.014 -435.759C907.915 -459.032 935.866 -497.098 941.058 -543.038M-474.428 -111.696C-445.547 -140.592 -412.231 -164.621 -376.34 -183.676C-360.417 -192.133 -343.889 -199.638 -326.474 -204.721C-291.73 -214.843 -255.731 -214.67 -221.246 -209.306C-211.641 -207.814 -202.122 -205.954 -192.798 -203.791C-153.208 -194.512 -114.851 -179.783 -78.6355 -160.771C-42.853 -141.976 -9.45015 -118.271 26.0728 -95.8416C68.0426 -69.3464 109.298 -40.0394 155.141 -20.9412C194.06 -4.74129 238.301 2.98016 278.454 -7.89911C285.766 -9.86733 292.949 -12.4628 299.893 -15.7071C342.793 -35.7353 370.117 -76.4623 391.967 -119.655C398.847 -133.259 405.186 -147.123 411.351 -160.685C427.469 -196.156 445.035 -232.233 465.458 -265.281C498.731 -318.942 541.609 -360.924 596.992 -387.527C618.583 -397.887 643.44 -406.366 668.99 -407.923C705.486 -410.151 739.084 -403.143 770.994 -403.749C773.503 -403.792 776.034 -403.878 778.544 -404.03C816.598 -406.128 852.121 -419.494 881.521 -443.308C912.826 -468.613 937.294 -507.069 940.604 -551.689M-469.517 -94.9765C-441.371 -123.245 -408.683 -146.496 -373.376 -164.643C-357.735 -172.689 -341.488 -179.761 -324.483 -184.736C-290.605 -194.663 -255.428 -195.831 -221.419 -191.895C-211.922 -190.835 -202.511 -189.386 -193.23 -187.656C-153.9 -180.215 -115.608 -167.325 -79.2412 -150.13C-43.3289 -133.13 -9.47181 -111.393 25.467 -89.8504C68.6483 -63.2254 110.467 -33.0317 157.196 -13.2414C196.808 3.52089 242.023 11.7614 283.062 0.947021C290.548 -1.0212 297.881 -3.6166 304.999 -6.90417C348.916 -27.1703 376.759 -68.7408 399.236 -112.799C406.311 -126.663 412.866 -140.786 419.269 -154.585C435.992 -190.684 454.468 -227.344 476.058 -260.847C511.257 -315.265 556.191 -358.177 614.256 -383.288C635.63 -392.523 659.73 -399.682 684.328 -401.521C719.462 -404.16 752.454 -399.682 783.693 -402.732C786.159 -402.97 788.626 -403.251 791.07 -403.597C828.237 -408.637 862.116 -425.096 889.094 -450.813C917.823 -478.173 938.787 -517.018 940.214 -560.298M-464.606 -78.2791C-437.196 -105.921 -405.135 -128.393 -370.412 -145.631C-355.031 -153.266 -339.065 -159.906 -322.493 -164.772C-289.458 -174.484 -255.125 -176.928 -221.614 -174.527C-212.225 -173.878 -202.901 -172.862 -193.685 -171.564C-154.635 -165.984 -116.408 -154.91 -79.8903 -139.532C-43.8265 -124.327 -9.53671 -104.558 24.7963 -83.9025C69.1891 -57.191 111.57 -26.0672 159.186 -5.56311C199.512 11.7832 245.679 20.5427 287.605 9.74994C295.264 7.78172 302.749 5.16473 310.04 1.85553C354.973 -18.6269 383.314 -61.041 406.44 -105.964C413.709 -120.087 420.481 -134.471 427.101 -148.508C444.43 -185.233 463.835 -222.5 486.594 -256.435C523.696 -311.632 570.685 -355.69 631.433 -379.07C652.613 -387.224 675.934 -393.042 699.58 -395.162C733.351 -398.19 765.737 -396.265 796.284 -401.759C798.685 -402.191 801.108 -402.667 803.509 -403.186C839.811 -411.167 872.024 -430.698 896.579 -458.34C922.712 -487.733 940.214 -526.968 939.738 -568.927M-459.695 -61.5817C-433.021 -88.5744 -401.587 -110.29 -367.448 -126.598C-352.326 -133.822 -336.663 -140.029 -320.503 -144.788C-288.333 -154.283 -254.844 -158.003 -221.787 -157.116C-212.528 -156.878 -203.29 -156.316 -194.117 -155.429C-155.349 -151.687 -117.187 -142.452 -80.4959 -128.89C-44.2807 -115.502 -9.55829 -97.7017 24.169 -77.9114C69.795 -51.135 112.717 -19.0595 161.22 2.13672C202.259 20.067 249.4 29.3241 292.192 18.5962C300.002 16.628 307.682 14.0109 315.124 10.6584C361.074 -10.0403 389.934 -53.3194 413.709 -99.1075C421.173 -113.491 428.161 -128.133 434.997 -142.43C452.932 -179.783 473.268 -217.655 497.195 -252.023C536.201 -307.977 585.245 -353.397 648.697 -374.831C669.725 -381.925 692.246 -386.381 714.919 -388.782C747.326 -392.22 779.107 -392.826 808.983 -400.764C811.341 -401.391 813.699 -402.062 816.036 -402.775C851.45 -413.698 882.019 -436.3 904.151 -465.866C927.688 -497.293 941.707 -536.939 939.349 -577.579M-454.763 -44.8627C-394.512 -106.115 -307.869 -138.018 -221.96 -139.726C-136.052 -141.413 -51.0739 -114.572 23.5199 -71.9202C70.4006 -45.1222 113.842 -12.0302 163.21 9.85809C212.579 31.7464 270.861 41.4361 320.186 19.4613C381.929 -8.02885 413.233 -75.5971 442.85 -136.309C491.592 -236.169 559.176 -339.468 665.896 -370.57C719.051 -386.056 777.138 -381.731 828.497 -402.343C899.737 -430.914 947.137 -509.881 938.873 -586.166" stroke="white" stroke-miterlimit="10"/>
</g>
<defs>
<clipPath id="clip0_229_1583">
<rect width="366" height="323" fill="white"/>
</clipPath>
</defs>
</svg>
