<svg width="128" height="128" viewBox="0 0 128 128" fill="none" xmlns="http://www.w3.org/2000/svg">
<rect width="128" height="128" fill="#184C43"/>
<path d="M17.2339 61.9079C17.3046 59.7895 17.4107 57.6807 17.621 55.5893C17.7848 53.9565 18.077 52.3256 18.5219 50.7392C18.6689 50.2149 18.6726 49.7409 18.5591 49.2011C18.2073 47.5257 18.1236 45.7807 17.5075 44.173C16.7668 42.2383 16.4448 40.2514 16.5006 38.1775C16.5676 35.7011 16.9473 33.3002 17.9337 31.0251C18.2967 30.1893 18.6298 29.3419 18.989 28.5061C19.1342 28.1695 19.3947 27.9374 19.7651 27.9586C20.1615 27.9819 20.2472 28.3533 20.3049 28.6551C20.7032 30.7233 21.2801 32.7566 21.3024 34.8982C21.3322 37.6145 20.9321 40.2379 20.0759 42.8032C19.6088 44.202 19.0597 45.6065 19.5306 47.2142C19.8526 46.4675 20.2379 45.769 20.4593 45.0184C21.2206 42.4414 22.354 40.0425 23.5247 37.6513C23.8392 37.0089 23.7443 36.1635 23.9546 35.4477C24.4162 33.8806 23.9881 32.2981 24.1165 30.7291C24.4311 26.8849 25.3337 23.2207 27.2712 19.8969C27.9115 18.8 28.7267 17.8172 29.5735 16.875C29.795 16.6293 30.0611 16.4146 30.3831 16.5384C30.7218 16.6699 30.7535 17.0433 30.7386 17.3664C30.612 20.4464 30.3682 23.5012 29.4488 26.4709C28.7304 28.7905 27.636 30.8916 26.3853 32.9268C26.2457 33.1551 26 33.3718 26.1471 33.751C27.837 31.3617 29.7968 29.2819 31.7697 27.2235C33.1023 25.8325 33.938 24.2074 34.2748 22.3249C35.01 18.2157 37.0294 14.9152 39.9924 12.1719C40.6177 11.5915 41.2133 10.9743 41.8237 10.3765C42.049 10.156 42.263 9.91608 42.5719 9.81935C43.0614 9.66651 43.3201 9.88319 43.2327 10.4094C42.5775 14.3058 41.2859 17.8868 38.5146 20.7501C37.8836 21.404 37.3309 22.1392 36.8153 22.9131C38.2968 21.8142 39.7206 20.6166 41.2766 19.6454C42.6538 18.7865 43.804 17.7263 44.8016 16.4552C45.3749 15.7258 45.9258 14.9752 46.4376 14.1994C47.9619 11.8933 49.9962 10.2469 52.4957 9.26217C54.4909 8.4767 56.5587 7.97756 58.7157 8.00078C59.3299 8.00658 59.5161 8.29871 59.2387 8.8675C59.101 9.15189 58.9168 9.42274 58.7064 9.65684C56.9421 11.6263 54.9097 13.2476 52.6576 14.567C50.923 15.5827 49.1717 16.6003 47.2305 17.1149C46.3073 17.3606 45.4791 17.6953 44.6974 18.3763C45.1906 18.446 45.6224 18.2622 46.0542 18.2699C47.947 18.3047 49.6351 17.5251 51.3101 16.7938C52.6856 16.194 54.1205 16.0006 55.5499 15.7781C57.653 15.4492 59.7431 15.6562 61.7811 16.312C62.0528 16.3991 62.3339 16.461 62.5647 16.6641C63.1844 17.2097 63.136 17.8056 62.373 18.0648C60.9045 18.5659 59.4528 19.1192 57.9769 19.6067C55.5331 20.4135 53.1453 20.1543 50.7164 19.5816C48.725 19.1134 46.7335 19.2798 44.7328 19.7151C43.3685 20.0111 42.1569 20.6495 40.8913 21.1777C40.4688 21.3537 40.2027 21.731 39.8453 21.9922C38.2447 23.1646 36.6348 24.3273 35.0621 25.5384C34.5726 25.9137 34.1855 26.4341 33.7779 26.9371C34.7811 26.4264 35.8345 26.0143 36.7502 25.3353C38.5909 23.9655 40.5786 22.8744 42.8344 22.6151C45.2464 22.3404 47.6864 22.2804 50.1097 22.6577C50.4875 22.7157 50.8262 22.8841 51.1687 23.0446C51.433 23.1665 51.7531 23.269 51.7792 23.6018C51.8108 23.9965 51.4348 24.1106 51.1761 24.2519C50.1786 24.7955 49.1865 25.3507 48.1592 25.8247C46.3836 26.6431 44.5801 27.4285 42.6166 27.564C40.7927 27.6897 38.9706 27.8039 37.128 27.7284C34.9597 27.6394 32.9478 28.2237 31.1536 29.6863C28.9723 31.4662 27.2954 33.6426 25.8344 36.0435C25.3896 36.7729 24.7289 37.3301 24.4162 38.1833C24.1221 38.9823 23.5787 39.6749 23.2772 40.561C24.3566 39.8993 24.9708 38.8798 25.6706 37.9395C28.3023 34.4126 31.537 31.8531 35.8903 31.0831C36.9568 30.8954 37.9916 30.5317 39.0785 30.4485C39.3986 30.4234 39.702 30.3944 39.9253 30.6884C40.171 31.0115 39.9719 31.2998 39.8416 31.5842C39.6871 31.9208 39.4601 32.2187 39.1734 32.4316C37.5896 33.602 36.0634 34.8557 34.5112 36.0687C32.222 37.8602 29.7838 39.3537 27.0702 40.2147C25.0471 40.857 23.601 42.1377 22.2926 43.7144C22.0506 44.0066 21.8645 44.3626 21.7156 44.7185C20.4947 47.6263 19.5362 50.6328 18.9518 53.7398C18.7136 55.007 18.842 56.3516 18.6577 57.6497C18.5405 58.4758 18.2538 59.2787 18.4009 60.2983C18.6949 59.2052 19.03 58.2959 19.458 57.4253C19.6404 57.0519 19.5343 56.6553 19.592 56.2723C20.29 51.6388 22.4564 47.8933 25.9107 44.9159C26.899 44.0627 27.8947 43.223 29.0393 42.6001C29.1566 42.5362 29.2794 42.4821 29.3967 42.4202C29.7112 42.2557 30.0648 42.1861 30.3384 42.4163C30.653 42.6794 30.478 43.0586 30.3645 43.3739C29.3632 46.1773 28.2781 48.9225 26.5528 51.3718C24.8573 53.7785 23.0091 56.013 20.8409 57.9767C20.1094 58.6384 19.9047 59.6618 19.5381 60.5653C18.8718 62.2117 18.7173 63.9393 18.7191 65.696C18.7191 66.6865 18.6391 67.6945 18.7973 68.6599C19.0355 70.1205 19.3035 71.5812 19.6125 73.0322C19.9885 74.8024 20.4668 76.5358 21.0382 78.2441C21.0921 78.4047 21.1647 78.5556 21.2336 78.7258C21.6207 77.1336 21.1852 75.6923 20.7664 74.2123C19.6963 70.432 19.8917 66.7465 21.6803 63.1906C22.4824 61.5945 23.3497 60.0526 24.405 58.6287C24.7717 58.1353 25.1607 57.3576 25.8456 57.671C26.443 57.9438 26.1434 58.7235 26.0894 59.2981C25.866 61.6758 25.6911 64.0592 25.3933 66.4253C25.1774 68.1356 24.4367 69.7142 24.0105 71.3761C23.7108 72.5466 23.2455 73.6764 22.9924 74.8565C22.6183 76.5939 22.5773 78.3641 22.9235 80.1188C23.2343 81.6975 23.6866 83.2471 24.5688 84.5859C26.1434 86.9791 27.3029 89.6876 29.6349 91.7557C29.2887 90.8851 29.0654 90.1325 28.7062 89.4574C27.757 87.6736 26.7129 85.9518 26.2215 83.9359C25.4473 80.7611 25.6241 77.6076 26.2494 74.4445C26.4225 73.5681 26.618 72.6994 26.886 71.8501C26.9902 71.5212 27.1298 71.1846 27.5374 71.1633C27.9413 71.142 28.1497 71.438 28.2483 71.7746C28.4884 72.5853 28.6894 73.4075 28.9016 74.2278C29.4451 76.3288 30.0965 78.4047 30.3347 80.5773C30.612 83.1156 30.6102 85.6654 30.4352 88.2076C30.2231 91.2895 31.3919 93.8045 33.4559 95.832C34.6452 96.9986 35.9034 98.1207 37.2546 99.1267C38.7826 100.266 40.2994 101.41 41.9298 102.383C41.9819 102.414 42.0452 102.427 42.1439 102.402C41.029 101.27 39.9998 100.067 38.818 98.9971C36.2067 96.6349 34.2618 93.8529 33.9082 90.09C33.7332 88.2404 33.3647 86.4103 33.4001 84.5375C33.4075 84.1564 33.4038 83.7772 33.8226 83.6224C34.2413 83.4677 34.4405 83.8411 34.6322 84.0868C36.4245 86.3735 38.0567 88.786 39.2739 91.452C40.3609 93.8335 41.2486 96.308 41.9298 98.8559C42.5329 101.11 43.6384 102.928 45.7545 104.047C47.6697 105.058 49.6351 105.939 51.6005 106.827C52.8903 107.409 54.1484 108.063 55.5164 108.438C55.7602 108.506 56.0059 108.558 56.2702 108.568C55.7621 108.034 55.1367 107.701 54.5076 107.395C51.5093 105.941 49.1102 103.791 47.2267 100.955C45.7415 98.7205 44.9003 96.2306 44.1856 93.6672C44.1167 93.4195 44.0404 93.1158 44.2582 92.961C44.5355 92.7637 44.8947 92.723 45.1962 92.9417C45.7955 93.375 46.4097 93.7929 46.9624 94.2862C48.7045 95.8417 50.4708 97.3662 51.9541 99.2177C53.4021 101.029 54.6416 102.973 55.7416 105.02C56.3167 106.088 57.0277 107.055 57.7554 108.007C58.2337 108.634 58.9968 108.889 59.6687 109.183C60.9659 109.75 62.306 110.22 63.6702 110.597C63.8693 110.653 64.0387 110.673 64.2341 110.582C65.4848 110.003 66.7821 109.539 68.0421 108.982C69.3282 108.413 70.242 107.504 70.8804 106.242C71.8482 104.329 72.8774 102.45 74.063 100.676C75.256 98.8907 76.7505 97.3933 78.3939 96.0468C79.2612 95.3348 80.0857 94.5687 80.9307 93.8258C81.0145 93.7523 81.0871 93.6594 81.1783 93.5956C81.5691 93.3189 81.9674 92.8043 82.4625 93.1951C82.9073 93.5453 82.5239 94.0425 82.3973 94.4546C81.852 96.2441 81.3178 98.0337 80.551 99.7478C79.6279 101.81 78.098 103.317 76.5514 104.838C74.9731 106.391 73.0505 107.38 71.234 108.601C71.6565 108.487 72.0827 108.386 72.5015 108.258C72.9463 108.121 73.419 108.028 73.8155 107.796C75.2262 106.966 76.8175 106.573 78.2432 105.782C79.5106 105.08 80.7465 104.319 81.986 103.569C83.7653 102.491 84.6103 100.738 85.0346 98.7785C85.7623 95.42 87.067 92.34 88.863 89.4651C89.7303 88.0779 90.5902 86.6869 91.5599 85.3733C91.6808 85.2089 91.8149 85.056 91.9433 84.8974C92.202 84.5762 92.524 84.3653 92.9316 84.493C93.3261 84.6168 93.3298 85.0251 93.3596 85.3559C93.4601 86.4374 93.3503 87.513 93.1828 88.579C92.8515 90.6878 92.4793 92.7966 91.4947 94.7041C90.6684 96.3041 89.6745 97.817 88.2935 98.9507C87.2531 99.8039 86.3151 100.725 85.5632 101.909C86.4175 101.557 87.1712 101.061 87.9213 100.564C89.9965 99.1886 91.9731 97.668 93.7207 95.8649C95.0328 94.5126 95.647 92.7733 95.982 90.9083C96.3059 89.1052 96.0304 87.2944 96.09 85.4874C96.2072 81.8406 96.8661 78.3408 98.221 74.9784C98.4593 74.3864 98.4499 73.719 98.7384 73.1347C98.8966 72.8135 99.0344 72.4789 99.4178 72.4789C99.777 72.4789 99.9445 72.8135 100.069 73.0999C100.54 74.1736 100.719 75.3305 100.914 76.4816C101.435 79.5403 101.441 82.5777 100.376 85.5145C99.8905 86.8533 99.3991 88.2114 98.543 89.3838C98.208 89.8443 97.899 90.3608 97.7948 90.9741C97.7185 91.421 97.5677 91.8583 97.3537 92.2471C97.4598 92.3884 97.5436 92.3052 97.5919 92.2471C99.4271 90.0919 101 87.7316 102.487 85.3172C103.54 83.605 103.818 81.622 104.14 79.6429C104.504 77.4006 103.86 75.3634 103.252 73.3146C102.267 69.9967 101.458 66.6497 101.134 63.1867C101.002 61.7667 100.923 60.3486 100.918 58.9227C100.918 58.5068 100.94 58.0889 101.35 57.938C101.748 57.7929 102.046 58.0696 102.31 58.3868C104.22 60.6852 105.517 63.2893 106.258 66.2454C107.114 69.6581 106.905 72.9722 105.843 76.2746C105.746 76.5764 105.694 76.9015 105.671 77.2187C105.649 77.538 105.712 77.863 105.701 78.1841C105.69 78.4956 105.634 78.8071 105.64 79.1341C106.326 77.4838 107.19 75.9399 107.644 74.1601C108.139 72.2157 108.394 70.2482 108.688 68.2787C109.061 65.785 108.804 63.3821 107.849 61.0102C107.17 59.3252 105.861 58.234 104.843 56.8701C102.487 53.7127 100.047 50.6076 98.5951 46.8428C98.275 46.0128 97.9418 45.1925 97.5529 44.3935C97.4114 44.1033 97.1974 43.7744 97.4691 43.4301C97.7594 43.0644 98.1094 43.223 98.4425 43.3353C99.0604 43.5423 99.5741 43.9543 100.118 44.3026C104.21 46.9221 106.704 50.7488 107.91 55.5216C108.089 56.2316 108.322 57.0016 107.912 57.7368C107.825 57.8935 107.894 58.0019 107.977 58.1083C108.569 58.855 109.021 59.685 109.422 60.5827C109.293 59.0717 109.221 57.553 109.021 56.0537C108.776 54.1964 108.482 52.3391 108.104 50.507C107.573 47.93 106.57 45.5717 104.754 43.6603C104.154 43.0296 103.425 42.6465 102.626 42.3234C99.3079 40.9808 96.2519 39.1661 93.5811 36.6936C92.1424 35.3626 90.6982 34.0392 89.2669 32.7005C89.0063 32.4567 88.7886 32.1588 88.5653 31.8744C88.4313 31.7041 88.2209 31.5416 88.3736 31.2746C88.5299 31.0018 88.7979 30.9457 89.0678 30.9786C89.7471 31.0618 90.4283 31.1547 91.1039 31.2746C94.6252 31.8957 97.6534 33.5943 100.319 35.9874C101.541 37.0844 102.53 38.4387 103.244 39.9651C103.674 40.8802 104.484 41.4103 105.111 42.1338C104.638 40.8454 104.007 39.6497 103.319 38.4948C102.377 36.918 101.575 35.2426 100.266 33.9174C99.1423 32.7779 98.128 31.5223 96.9945 30.3944C96.371 29.7733 95.4441 29.6302 94.709 29.1581C94.1804 28.8196 93.6295 28.7286 93.0042 28.8389C91.1728 29.162 89.3935 28.6184 87.5956 28.3997C86.5254 28.2701 85.4664 28.0573 84.4297 27.7013C82.7379 27.119 81.3309 26.0782 80.015 24.8845C79.6949 24.5943 79.332 24.3834 79.0063 24.1145C78.7959 23.9423 78.5912 23.7276 78.701 23.4103C78.8034 23.1181 79.0695 23.1394 79.3171 23.1201C80.5306 23.0253 81.7422 22.8589 82.9575 22.8299C86.6576 22.7409 89.8885 24.041 92.6822 26.5309C93.3392 27.1171 94.0836 27.5311 94.8672 27.9606C93.6258 26.0994 92.0531 24.6833 90.2868 23.4819C89.2129 22.7506 88.1986 21.9109 87.0745 21.2783C85.7809 20.5509 84.4167 19.9047 82.9761 19.5758C82.2912 19.4191 81.5244 19.6184 80.8004 19.7035C79.2222 19.8892 77.6513 20.1813 76.0675 20.2955C73.7913 20.458 71.5969 19.8544 69.4007 19.3301C68.7773 19.1811 68.1463 19.0689 67.5172 18.9393C67.1562 18.8658 66.8044 18.7362 66.7039 18.3299C66.6071 17.941 66.9533 17.7727 67.1785 17.5734C68.4255 16.4687 69.9703 16.2288 71.5095 16.0838C73.9234 15.8555 76.1978 16.5635 78.4293 17.4206C80.0597 18.0455 81.6752 18.7381 83.5513 18.4634C82.79 17.941 82.1982 17.3703 81.2546 17.0898C77.9789 16.1186 74.813 14.8166 71.9394 12.8413C70.9437 12.1564 69.8902 11.5644 68.9931 10.7325C68.7214 10.481 68.4497 10.1947 68.6172 9.78839C68.7754 9.40727 69.1588 9.58719 69.4491 9.53689C71.2936 9.22154 73.0896 9.56978 74.8949 9.91995C77.7909 10.481 79.9908 12.1313 81.7533 14.5012C82.3601 15.3176 82.9184 16.1844 83.5419 16.9737C84.3032 17.9371 85.2021 18.8368 86.2872 19.4423C88.0125 20.4058 89.5033 21.7039 91.0574 22.915C91.2509 23.0659 91.4482 23.211 91.7497 23.2574C91.4687 22.9518 91.1951 22.6403 90.9066 22.3423C88.863 20.2258 87.1508 17.8714 86.2071 15.0081C85.7307 13.561 85.3008 12.0887 85.1351 10.5564C85.1091 10.3224 84.9434 10.0186 85.2058 9.85417C85.4738 9.68586 85.7828 9.82322 86.034 9.95671C86.8679 10.4036 87.5491 11.0672 88.2023 11.7482C89.4214 13.0212 90.6702 14.3097 91.2565 16.0354C91.9433 18.059 92.6598 20.0749 92.9483 22.2359C93.1289 23.5805 93.663 24.8651 94.5824 25.9098C96.3003 27.86 98.221 29.6128 99.8179 31.6809C100.017 31.9382 100.224 32.1897 100.467 32.418C99.749 31.0812 99.1535 29.6863 98.4872 28.3301C97.4096 26.1401 96.9256 23.803 96.6539 21.3924C96.451 19.5913 96.183 17.794 96.2333 15.9735C96.2407 15.7084 96.17 15.3873 96.4808 15.2441C96.7656 15.1126 96.9852 15.308 97.2048 15.4666C97.8246 15.9135 98.1689 16.5984 98.5784 17.2175C99.5871 18.74 100.192 20.4715 100.909 22.1489C101.564 23.6831 102.187 25.2076 102.582 26.8501C103.041 28.7596 102.865 30.6904 102.984 32.6076C103.09 34.3198 103.108 35.9526 104.093 37.5236C105.403 39.613 106.438 41.8939 107.138 44.3103C107.289 44.8307 107.531 45.3221 107.784 45.8174C107.769 44.8965 107.933 44.0008 107.421 43.0896C106.853 42.0777 106.808 40.8512 106.522 39.7233C105.876 37.185 105.872 34.5848 105.986 31.9885C106.064 30.1912 106.427 28.4404 107.036 26.7495C107.097 26.5792 107.143 26.3993 107.173 26.2194C107.237 25.8305 107.367 25.4707 107.8 25.4591C108.206 25.4494 108.417 25.7609 108.534 26.1362C108.975 27.5524 109.47 28.9531 109.712 30.4292C109.986 32.1007 110.324 33.7587 110.514 35.4496C110.758 37.6068 110.319 39.6227 109.74 41.6676C108.943 44.4825 108.593 47.3381 109.228 50.2865C109.749 52.7144 110.064 55.1889 110.464 57.6439C110.484 57.7658 110.441 57.9012 110.503 58.0386C110.594 57.021 111.071 56.042 110.896 55.0167C110.25 51.2499 111.082 47.7521 112.424 44.2813C113.155 42.3911 114.235 40.7099 115.039 38.872C115.119 38.6882 115.258 38.5238 115.396 38.3787C115.815 37.9337 116.25 38.0362 116.459 38.6186C116.663 39.1893 116.686 39.7948 116.71 40.3868C116.877 44.2948 116.474 48.1429 115.428 51.9019C114.931 53.6856 113.944 55.1831 112.883 56.6882C111.515 58.6287 110.555 60.8168 110.475 63.3454C110.414 65.2936 110.237 67.2534 109.825 69.1609C109.524 70.5597 109.336 71.9836 108.96 73.3727C109.585 72.6046 109.827 71.6547 110.092 70.7377C110.972 67.6751 112.009 64.6841 113.552 61.9079C114.309 60.542 115.455 59.4915 116.386 58.263C117.015 57.4331 117.687 56.6399 118.353 55.8408C118.51 55.6532 118.696 55.4655 118.906 55.3572C119.714 54.9393 120.09 55.1792 119.982 56.1059C119.619 59.2265 118.886 62.262 117.551 65.0846C116.057 68.2439 113.777 70.7899 111.266 73.1115C110.464 73.8525 109.556 74.4483 108.856 75.3383C107.94 76.5029 107.371 77.8417 106.836 79.196C105.83 81.7497 104.508 84.1216 103.118 86.4586C103.06 86.5554 103.012 86.6599 102.924 86.8243C103.237 86.7875 103.35 86.5573 103.51 86.4006C104.62 85.3095 105.323 83.9146 106.111 82.5874C107.864 79.6274 110.322 77.4799 113.198 75.7852C114.659 74.9243 116.077 73.9763 117.7 73.4578C118.16 73.3108 118.716 73.007 119.07 73.4268C119.459 73.8892 118.995 74.3884 118.744 74.7869C117.132 77.3445 115.457 79.8595 113.205 81.8696C111.126 83.723 108.798 85.1876 106.243 86.2226C105.191 86.6482 104.391 87.4453 103.445 88.0238C101.904 88.9698 100.775 90.3512 99.6039 91.7364C98.2024 93.3944 96.5683 94.8396 95.0365 96.3795C94.9435 96.4724 94.856 96.5749 94.7983 96.722C95.6005 96.3989 96.3412 95.9655 97.0057 95.4025C98.3587 94.2534 99.7416 93.1525 101.227 92.191C103.352 90.8135 105.714 90.1596 108.154 89.7572C109.243 89.5773 110.343 89.4632 111.443 89.3684C111.852 89.3335 112.278 89.4071 112.688 89.4883C113.123 89.5754 113.207 90.0203 112.829 90.3705C111.439 91.6532 110.079 92.9745 108.508 94.0309C105.848 95.8166 102.805 96.5595 99.8365 97.5036C99.0009 97.7686 98.1484 97.7918 97.2811 97.7996C95.044 97.8189 93.0172 98.5057 91.1504 99.8232C88.5708 101.644 85.8945 103.308 83.1008 104.759C83.0487 104.786 83.0041 104.83 82.8496 104.946C83.9402 104.977 84.8206 104.613 85.6748 104.228C87.1936 103.544 88.6527 102.698 90.2719 102.286C92.524 101.713 94.8076 101.518 97.1285 101.7C98.9822 101.845 100.795 102.269 102.639 102.481C102.969 102.52 103.41 102.598 103.458 103.039C103.503 103.451 103.133 103.578 102.816 103.714C100.408 104.753 98.02 105.817 95.4814 106.533C93.073 107.214 90.7298 107.229 88.3289 106.707C87.2494 106.473 86.1476 106.078 85.0774 106.138C83.6145 106.221 82.1405 106.066 80.6683 106.432C79.2017 106.796 77.817 107.384 76.3895 107.84C75.524 108.117 74.7423 108.67 73.7596 109.183C75.0085 109.278 76.0582 109.021 77.1116 108.926C80.1974 108.651 83.1995 108.895 86.1085 110.1C87.4802 110.669 88.904 111.094 90.3055 111.584C90.3464 111.599 90.3967 111.592 90.4357 111.611C90.7856 111.791 91.2435 111.892 91.223 112.422C91.2025 112.923 90.7577 113.021 90.4134 113.099C89.44 113.315 88.4499 113.459 87.4709 113.646C84.4335 114.231 81.4295 114 78.4572 113.209C77.1656 112.865 75.939 112.298 74.8186 111.578C73.4823 110.719 72.0622 110.483 70.5435 110.326C68.9466 110.162 67.6736 110.862 66.3093 111.538C66.6816 111.975 67.2195 112.048 67.6792 112.265C69.786 113.257 71.7123 114.546 73.5512 115.999C74.2882 116.581 75.0531 117.117 75.6878 117.825C75.9521 118.119 76.1103 118.427 75.9353 118.816C75.7492 119.23 75.3863 119.222 75.0196 119.191C74.5097 119.148 74.0872 118.916 73.741 118.533C71.4332 115.989 68.5316 114.372 65.5556 112.87C64.9023 112.542 64.3328 112.489 63.633 112.884C61.9207 113.849 60.1637 114.737 58.7325 116.14C57.7666 117.086 56.8788 118.113 55.9389 119.088C55.5815 119.46 55.1963 119.804 54.6826 119.951C54.3011 120.06 53.9344 119.992 53.7166 119.7C53.4989 119.408 53.6273 119.046 53.8265 118.736C54.6826 117.396 55.8533 116.384 57.0612 115.418C58.7046 114.103 60.4262 112.905 62.2836 111.888C60.763 110.849 58.8256 110.413 57.6586 110.874C56.4786 111.34 55.3936 111.979 54.3513 112.741C52.3412 114.209 50.1339 115.182 47.6418 115.467C45.3339 115.73 43.0521 115.676 40.7647 115.339C40.7201 115.333 40.6735 115.339 40.6326 115.328C40.2399 115.213 39.7039 115.244 39.6406 114.691C39.5773 114.155 40.011 113.851 40.426 113.702C41.6842 113.25 42.8586 112.598 43.9995 111.924C46.7484 110.303 49.7542 109.881 52.8121 109.725C53.8544 109.671 54.9022 110.112 55.9742 109.93C56.071 109.912 56.1901 109.972 56.2944 109.787C55.4755 109.518 54.6845 109.206 53.8693 108.999C52.451 108.641 51.1054 108.049 49.7002 107.649C49.2666 107.527 48.846 107.436 48.403 107.452C46.4562 107.519 44.5522 107.798 42.6855 108.436C39.5401 109.512 36.3519 109.607 33.16 108.624C31.2355 108.032 29.231 107.703 27.3997 106.794C27.221 106.705 27.0237 106.635 26.8729 106.507C26.4672 106.167 26.5119 105.718 26.9921 105.492C28.3098 104.873 29.7298 104.608 31.1276 104.286C33.0651 103.841 35.0472 103.702 37.0126 103.88C39.4842 104.103 41.9261 104.565 44.1521 105.815C45.0659 106.328 46.0672 106.221 47.0276 106.358C47.102 106.091 46.9457 106.07 46.8266 106.026C43.9138 104.911 41.1128 103.555 38.5611 101.708C37.4314 100.889 36.1416 100.775 34.8685 100.564C33.3145 100.307 31.7343 100.369 30.1672 100.284C28.0231 100.168 25.92 99.7671 23.9844 98.6876C21.5444 97.3236 19.1975 95.8127 16.9938 94.0638C16.871 93.9651 16.75 93.8645 16.6328 93.7581C16.3164 93.4679 16.0707 93.0674 16.1898 92.6727C16.3145 92.2568 16.7854 92.3787 17.1297 92.3767C19.069 92.3574 20.9414 92.8604 22.8435 93.1448C27.0572 93.7774 30.6809 95.7295 34.0403 98.3277C34.4647 98.6566 34.9411 98.912 35.3915 99.2022C35.466 99.2506 35.533 99.3202 35.6595 99.2177C35.4362 98.8462 35.0882 98.6063 34.7531 98.3722C33.3517 97.3933 32.1698 96.1551 30.9396 94.973C29.9178 93.9902 28.8067 93.0984 28.0957 91.8176C27.6025 90.9296 26.5993 91.0186 25.8828 90.5524C24.5186 89.6663 22.8565 89.5405 21.4458 88.7725C19.2812 87.5923 16.992 86.5999 15.1289 84.9148C13.7777 83.694 12.5996 82.2721 11.468 80.823C10.8687 80.0549 10.301 79.2617 9.70733 78.4898C9.48958 78.2074 9.26251 77.8997 9.45235 77.5631C9.64592 77.2187 10.0386 77.3058 10.3625 77.36C11.5369 77.5573 12.5698 78.1416 13.6326 78.6485C15.3374 79.4629 17.0794 80.1826 18.6614 81.266C20.5915 82.5874 22.2088 84.2241 23.5731 86.1491C24.111 86.9075 24.6563 87.6601 25.209 88.4068C25.3486 88.5964 25.4864 88.8112 25.853 88.904C25.2258 87.8864 24.6265 86.9655 24.0793 86.0117C23.2567 84.5762 22.4489 83.1291 21.6226 81.6975C20.3626 79.5133 18.8885 77.536 16.7723 76.0541C14.2728 74.3032 12.393 71.9139 10.9971 69.0777C9.60125 66.2415 8.97589 63.1732 8.13092 60.1648C8.03786 59.8301 7.82011 59.358 8.29843 59.122C8.7265 58.9111 9.09315 59.1104 9.44305 59.418C13.4185 62.912 16.1302 67.2688 17.7011 72.4111C18.0454 73.539 18.5647 74.5818 19.1807 75.5878C18.9406 74.6186 18.7508 73.6338 18.453 72.6839C17.8183 70.6622 17.4591 68.5747 17.2358 66.4814C17.0143 64.4055 16.1098 62.6199 15.3504 60.7626C15.235 60.4801 14.9745 60.2577 14.766 60.0236C13.2268 58.2998 12.5214 56.1465 11.8868 53.9662C11.1274 51.3563 11.1739 48.6594 11.1963 45.9703C11.2056 44.9546 11.2782 43.9466 11.4215 42.9425C11.4606 42.6717 11.509 42.395 11.602 42.1416C11.7881 41.6366 12.1753 41.5631 12.5065 41.9849C12.9681 42.573 13.3422 43.2308 13.6084 43.9369C14.4794 46.2411 15.3244 48.5569 15.9609 50.9462C16.4541 52.7957 16.5081 54.7013 16.6365 56.6012C16.6905 57.406 16.7109 58.1934 16.6235 58.9963C16.5118 60.0332 17.1092 60.929 17.2302 61.9331L17.2339 61.9079ZM30.1858 106.444C32.2033 107.009 34.2115 107.602 36.2998 107.889C38.455 108.185 40.506 107.848 42.5049 106.985C38.4085 106.593 34.2934 106.745 30.1858 106.444ZM88.958 16.3469C89.0063 16.3159 89.0529 16.285 89.1013 16.254C89.52 16.8034 89.8885 17.3877 90.2143 18.0107C90.5493 18.653 90.9159 19.2779 91.3626 20.0807C90.6553 16.9098 89.4288 14.3019 86.9367 12.4911C87.0614 15.0429 89.3358 19.5061 91.1858 20.8217C90.4413 19.3224 89.6987 17.8365 88.958 16.3469ZM114.847 42.1009C112.617 46.0999 111.616 50.2362 111.996 54.8813C112.96 50.5612 113.887 46.4075 114.847 42.1009ZM22.5922 87.9367C22.0022 87.0855 13.3031 80.5502 12.6666 80.3645C12.9476 80.6856 13.1728 80.9623 13.4167 81.2215C14.6041 82.4849 15.6184 83.9417 17.1483 84.8277C18.52 85.6229 19.8805 86.4393 21.2503 87.2325C21.6877 87.4859 22.1437 87.7026 22.5922 87.9367ZM118.275 58.7003C116.239 62.7127 114.143 66.8316 111.849 70.8363C114.96 67.294 117.583 63.4692 118.275 58.7003ZM20.5617 94.8879C23.9993 97.7454 29.1752 99.5756 31.7176 98.9159C27.9822 97.7589 24.2878 96.2809 20.5617 94.8879ZM32.4769 98.674C28.8718 96.0023 24.8591 94.4758 20.4538 94.0502C24.3455 95.9172 28.5368 96.9425 32.4769 98.674ZM13.0481 46.216C13.0035 48.3731 14.8349 57.0732 15.4453 57.6788C15.5328 53.6721 14.6823 49.8202 13.0481 46.216ZM16.536 73.243C15.3355 68.9326 13.3273 65.1214 10.2824 62.1246C11.8179 66.0519 14.8014 69.2635 16.536 73.243ZM98.7924 103.896C95.111 104.784 91.3086 104.482 87.7705 105.12C91.5245 106.548 95.1929 105.513 98.7924 103.896ZM107.158 84.3499C110.68 82.3746 113.965 80.1207 115.954 76.3404C113.224 79.2482 109.969 81.533 107.158 84.3499ZM105.213 72.7362C106.051 67.708 104.601 63.6704 102.766 61.3565C104.058 65.0401 104.759 68.8591 105.213 72.7362ZM115.485 42.6194C114.653 46.7074 113.425 50.6966 112.686 54.9316C113.183 54.1674 113.522 53.4515 113.833 52.7202C115.195 49.5049 115.253 46.0476 115.485 42.6194ZM40.4502 98.4206C39.5457 94.5087 37.3085 89.558 35.6688 87.9116C37.2043 91.4152 38.0698 95.2439 40.4502 98.4206ZM98.9338 96.2286C101.659 96.128 108.186 93.0326 109.528 91.2856C106.142 93.1409 102.36 94.0386 98.9338 96.2286ZM106.328 55.2701C105.575 51.4434 103.535 48.5356 100.443 46.2101C101.273 47.961 102.425 49.3211 103.466 50.7546C104.517 52.2018 105.519 53.6682 106.328 55.2701ZM10.4276 63.7961C10.5114 66.5027 14.7586 73.4926 16.8263 74.4154C14.7232 70.9118 12.1678 67.6209 10.4276 63.7961ZM43.8301 114.225C47.4985 114.631 50.8225 113.753 53.8935 111.234C50.3926 112.17 47.2472 113.691 43.8301 114.225ZM28.0306 45.5891C26.7333 47.0982 21.8924 54.6162 21.6319 55.5294C24.1984 53.1285 27.6863 47.7095 28.0306 45.5891ZM98.785 103.358C95.3195 102.466 91.9786 102.799 88.7421 104.308C92.0829 103.979 95.446 103.9 98.785 103.358ZM101.787 30.907C101.86 27.0803 100.361 23.6927 98.7868 20.3284C99.6002 23.9133 100.326 27.5253 101.787 30.907ZM97.832 88.6757C99.3061 85.0231 100.687 81.3415 99.6523 77.2942C99.3433 81.1016 98.3885 84.8471 97.832 88.6757ZM91.7944 33.277C92.7957 34.9872 99.2093 39.6942 101.165 40.1547C99.8458 38.872 93.3596 34.1128 91.7944 33.277ZM22.3075 72.9528C23.1301 69.2925 24.8945 65.8314 24.418 61.7531C23.6177 65.5644 22.1623 69.0874 22.3075 72.9528ZM81.195 24.3892C84.2715 27.0107 87.8338 27.0571 91.277 27.5543C91.2919 27.5001 91.3068 27.444 91.3217 27.3899C88.0069 26.409 84.6921 25.4242 81.195 24.3892ZM21.7324 72.1016C21.6579 68.3793 23.1655 65.015 23.949 61.5307C21.7566 64.6957 20.8669 68.2013 21.7324 72.1016ZM86.7376 112.373C83.0487 112.298 79.4995 111.269 75.8944 110.657C79.3189 112.596 82.9557 113.029 86.7376 112.373ZM117.281 59.2652C114.477 61.9911 112.842 65.4135 111.852 69.3118C113.926 66.0287 115.39 62.5096 117.281 59.2652ZM79.7954 96.7239C76.825 99.1074 74.385 101.947 72.762 105.49C74.9601 102.441 77.7351 99.8929 79.7954 96.7239ZM29.2403 20.1968C27.9282 24.0468 27.0777 27.8348 25.8698 31.5087C27.6081 28.0051 29.2534 24.4705 29.2403 20.1968ZM21.3117 54.5175C23.1748 51.722 24.7233 48.7117 26.711 45.9993C23.9323 48.1738 22.1567 51.0313 21.3117 54.5175ZM86.7339 97.5229C88.9151 94.5881 90.0449 91.1096 91.5524 87.8284C89.4437 90.7865 87.5751 93.8722 86.7339 97.5229ZM41.2375 106.184C38.7919 104.608 32.1698 105.205 30.4799 105.865C34.0347 105.863 37.584 106.049 41.2375 106.184ZM35.1235 88.6022C35.023 92.133 36.6143 95.0988 39.1753 97.5945C37.3123 94.7583 36.5603 91.392 35.1235 88.6022ZM53.9065 104.449C52.0639 101.265 49.7914 98.4612 47.0053 96.1087C49.0767 99.09 51.3083 101.932 53.9065 104.449ZM108.048 40.619C108.167 36.6665 107.648 32.8688 107.665 29.0479C106.81 32.9056 106.954 36.7187 108.048 40.619ZM101.286 39.4659C99.0939 35.8733 95.8108 33.9348 91.854 32.7546C95.1091 34.9988 98.7161 36.4479 101.286 39.4659ZM46.5604 96.4821C48.0084 100.595 50.6364 103.511 54.02 105.766C51.1724 103.042 48.8664 99.8445 46.5604 96.4821ZM13.6791 80.0898C16.2084 82.1328 18.8662 83.9784 21.5835 85.8976C20.8855 84.1371 17.2246 81.4576 13.6791 80.0898ZM98.9953 77.0137C97.4803 80.3277 97.3351 83.9204 97.2942 87.5324C97.8618 84.0113 99.0232 80.5986 98.9953 77.0137ZM90.7075 26.6102C88.1093 24.7162 85.2952 23.6908 82.0828 24.2654C84.949 25.0779 87.8729 25.6641 90.7075 26.6102ZM29.2552 86.9675C29.4041 83.0691 29.0877 79.223 27.9543 75.2957C27.8984 79.3604 28.6578 83.1523 29.2552 86.9675ZM55.4903 9.87739C52.4883 10.3301 49.9329 11.5876 48.135 14.211C50.562 12.7213 52.9591 11.1775 55.4903 9.87739ZM28.3917 85.5726C27.7644 82.1734 27.4425 78.7433 27.381 75.2841C26.7203 78.8071 26.5156 82.2875 28.3917 85.5726ZM81.074 15.9077C78.3939 13.6538 75.2095 12.5124 71.9748 11.4773C74.8112 13.383 77.9454 14.6308 81.074 15.9077ZM91.8837 88.1244C90.9178 91.4984 89.3507 94.5687 87.5844 97.5423C90.1324 94.9537 91.7125 91.8834 91.8837 88.1244ZM79.7098 98.2116C77.7593 100.773 75.3602 102.913 73.5437 105.577C76.1773 103.638 78.4033 101.33 79.7098 98.2116ZM99.7788 94.9363C102.612 93.4737 105.636 92.489 108.476 91.065C105.199 91.4481 102.237 92.5934 99.7788 94.9363ZM35.4176 33.6833C33.8319 34.0915 28.0808 37.7596 27.0181 39.0461C30.1077 37.5255 32.9069 35.8482 35.4176 33.6833ZM86.557 111.739C84.4111 110.514 80.3593 109.899 77.0465 110.292C80.1676 110.781 83.2609 111.476 86.557 111.739ZM107.516 83.0324C109.632 80.7843 112.334 79.225 114.274 76.7699C111.599 78.3563 109.031 80.0704 107.516 83.0324ZM40.9899 13.5629C38.9817 15.9212 37.8967 18.8696 36.2644 21.4679C38.496 19.2508 40.0817 16.6235 40.9899 13.5629ZM51.8015 111.213C48.6766 111.139 45.8197 112.042 43.1266 113.789C46.1845 113.368 48.8943 111.942 51.8015 111.213ZM19.7018 32.3426C19.3035 35.5889 19.2793 38.8662 18.9406 42.1184C19.9382 38.9223 20.4221 35.6837 19.7018 32.3426ZM47.3049 15.8767C49.2908 15.3447 55.6485 11.2994 56.112 10.3282C53.1025 11.9571 50.0557 13.65 47.3049 15.8767ZM99.6337 46.2527C101.113 49.9866 103.676 52.9776 105.915 56.191C104.326 52.5326 101.634 49.6287 99.6337 46.2527ZM47.6101 23.9694C44.3159 23.2768 41.3175 24.188 38.4197 25.6545C41.4515 24.9328 44.5448 24.5595 47.6101 23.9694ZM19.0393 31.6132C17.8407 35.0085 17.8165 38.5006 18.2185 42.0294C18.5144 38.5586 18.7452 35.082 19.0393 31.6132ZM108.444 30.2435C108.327 31.9208 108.679 38.8062 108.941 39.404C109.373 36.3163 109.315 33.2519 108.444 30.2435ZM79.7414 14.1607C77.5099 11.5838 74.5878 10.7248 71.4071 10.51C74.264 11.5335 77.1395 12.5027 79.7414 14.1607ZM14.578 57.4563C13.8596 53.9933 12.6536 50.6405 12.4507 47.0595C12.2311 50.7353 12.7913 54.2331 14.578 57.4563ZM37.9953 26.5173C40.9471 26.1052 44.0553 26.6295 46.7801 24.8709C43.8673 25.5113 40.8541 25.5519 37.9953 26.5173ZM35.6465 32.567C32.3225 33.2499 29.6703 35.0704 27.5523 37.7789C29.9513 35.5483 32.8696 34.1902 35.6465 32.567ZM97.9456 20.2916C97.6738 22.3985 99.159 27.8213 100.52 29.7269C99.5294 26.6218 98.9171 23.4025 97.9456 20.2916ZM104.48 72.9993C104.164 69.6562 103.589 66.3847 102.517 63.0339C102.541 66.6207 103.667 69.7839 104.48 72.9993ZM28.1218 21.1816C26.6161 23.2632 25.4938 28.2488 25.5627 30.5607C26.4039 27.4769 27.2452 24.395 28.1218 21.1816ZM59.2685 17.6663C56.6778 17.9178 54.0852 18.1693 51.4944 18.4208C54.1522 18.9664 56.7504 18.7826 59.2685 17.6663ZM77.5173 18.3028C75.1071 17.5173 72.6894 16.8112 70.162 17.7766C72.6336 17.6489 75.0717 18.0184 77.5173 18.3028ZM70.4635 18.1558C72.7155 18.8464 75.0215 18.9915 77.3573 18.8232C75.0624 18.5601 72.7899 18.0764 70.4635 18.1558ZM35.9313 20.9765C37.0405 18.8193 38.3731 16.8015 39.5773 14.7043C38.3117 15.6194 36.1583 19.3378 35.9313 20.9765ZM52.144 17.705C54.5169 17.4786 56.8825 17.1788 59.2648 17.0549C56.8397 16.6371 54.4909 17.1594 52.144 17.705Z" fill="url(#paint0_linear_181_1052)"/>
<path d="M88.7059 58.5302C88.549 57.9818 88.4088 57.4808 88.2777 56.9975C87.9068 55.6364 87.7886 54.3403 87.9141 53.0325C88.0692 51.407 87.7462 49.8427 86.9525 48.381C86.8566 48.2034 86.8418 48.0831 86.8953 47.9134C87.1629 47.081 87.4103 46.1637 87.6539 45.1064C88.0452 43.404 88.3645 41.8614 88.3276 40.2379C88.3054 39.3088 87.9234 38.5315 87.2239 37.991C85.7123 36.8232 83.706 36.9712 82.3402 38.3481C82.283 38.4053 82.224 38.4625 82.1575 38.5296C82.0837 38.6026 82.0099 38.6755 81.936 38.7505C80.2196 40.5121 79.0937 42.1987 78.3905 44.0569C78.1709 44.6389 78.0269 45.2464 77.8867 45.8402C77.8313 46.071 77.7759 46.3097 77.715 46.5425C77.2905 48.1817 77.5618 49.6553 78.5234 50.9217C78.6489 51.0855 78.7043 51.2374 78.7043 51.409C78.708 52.3322 78.8612 53.1114 79.1694 53.79C79.3041 54.0878 79.2063 54.2693 79.0697 54.5218C79.0291 54.5987 78.9811 54.6855 78.9424 54.7783C78.9331 54.7783 78.9221 54.7783 78.9073 54.7783C78.5788 54.7585 78.2521 54.7822 77.9365 54.8059C77.6965 54.8236 77.4474 54.8433 77.2056 54.8414C76.1517 54.8236 75.0628 55.0722 73.8742 55.5791C72.6653 56.096 71.4619 56.8298 69.9743 57.9601C67.2778 60.0077 65.0464 61.2742 62.7411 62.0692C60.2569 62.9253 58.2229 64.3673 56.6929 66.3597C56.5452 66.551 56.3533 66.695 56.1484 66.8469C55.8826 67.0442 55.6076 67.2493 55.4194 67.5748C55.3511 67.6932 55.3142 67.7168 55.137 67.6577C54.2732 67.3677 53.5608 67.1448 52.8945 66.9613C52.6657 66.8982 52.5918 66.8193 52.5641 66.6082C52.5198 66.2729 52.3851 65.9474 52.1655 65.6357C51.8739 65.2254 51.6081 64.7815 51.3479 64.3495C50.9972 63.7656 50.6354 63.162 50.1998 62.6195C50.1334 62.5367 50.1186 62.4795 50.174 62.3157C50.7277 60.6449 50.8809 58.8814 50.628 57.0744C50.2035 54.0484 47.7027 53.427 46.2501 53.3244C45.7979 53.2909 45.4805 53.5315 45.3568 53.9951C45.2553 54.3699 45.1815 54.6855 45.1243 54.9874C44.9619 55.8238 44.8234 56.674 44.6887 57.4985C44.3952 59.3035 44.0907 61.1696 43.5315 62.9371C43.1956 64.0043 43.3875 65.0064 44.1036 65.9178C44.1516 65.9789 44.1959 66.0421 44.2421 66.1052C44.3085 66.1979 44.3768 66.2926 44.4543 66.3833C45.2442 67.3144 45.9677 68.3895 46.7318 69.7684C47.1324 70.4904 47.5199 71.1019 47.9149 71.6404C48.5517 72.5044 49.3342 73.1239 50.3124 73.5322C50.8514 73.7571 51.4106 73.8912 51.9551 74.0194C52.1987 74.0766 52.4737 74.1417 52.7339 74.2147C53.2563 74.3607 53.7934 74.4929 54.3138 74.6231L54.5464 74.6803C54.3212 74.7572 54.085 74.7552 53.8192 74.6724C53.5645 74.5935 53.3043 74.5264 53.0496 74.4593C52.9093 74.4238 52.769 74.3864 52.6306 74.3489L52.4146 74.2897C50.9344 73.8833 49.4044 73.4632 47.8337 73.4C47.4886 73.3862 47.3206 73.2659 47.1914 72.9404C47.1342 72.7964 47.0788 72.6524 47.0235 72.5104L47.0032 72.4571C46.8869 72.1553 46.7651 71.8416 46.6396 71.5379C46.0803 70.1886 45.3734 68.6499 44.0686 67.4959C42.5348 66.1387 41.1598 65.7659 39.6076 66.2886C39.0354 66.482 38.5592 66.914 38.3027 67.4722C38.0591 68.0029 38.0277 68.6006 38.2178 69.1529C38.3415 69.5139 38.4651 69.8749 38.5888 70.2359L38.6405 70.3878C39.065 71.6286 39.5024 72.9128 39.9601 74.1792C40.1188 74.6172 40.2702 75.061 40.416 75.493C40.798 76.6115 41.1912 77.7694 41.719 78.8544C42.3299 80.109 43.3155 80.8192 44.6499 80.9612C48.033 81.3242 51.9625 81.7719 55.7774 82.49C56.2813 82.5847 56.7556 82.4999 57.2281 82.2296C58.186 81.6792 59.048 80.9967 59.7659 80.399C60.3713 79.896 61.0653 79.5034 61.7371 79.1266C61.4824 79.535 61.2277 79.9591 61.0376 80.4226C61.0302 80.4226 61.0191 80.4266 61.0044 80.4286L60.9656 80.4365C60.1 80.6337 59.2454 81.0302 58.2765 81.6832C57.5696 82.1586 56.7833 82.5097 55.7959 82.7879C54.109 83.2633 52.7136 83.9182 51.5306 84.7901C49.6775 86.1552 48.655 88.2324 47.8411 90.0709C47.3501 91.1834 47.5661 92.2506 48.4834 93.2429C48.7658 93.5486 49.098 93.809 49.4708 94.0181C50.1205 94.3811 50.8606 94.5645 51.5933 94.5645C52.2836 94.5645 52.9665 94.4028 53.559 94.0753C55.041 93.2587 56.4327 92.3887 57.6932 91.4892C58.5736 90.8599 59.371 90.4792 60.2015 90.2859C60.6814 90.1754 61.1133 89.9288 61.5248 89.5343C62.2354 88.8498 62.9995 88.2067 63.7396 87.5853C63.9759 87.3881 64.2121 87.1888 64.4465 86.9896C64.7455 86.7351 65.0113 86.601 65.3084 86.5517C65.8695 86.4609 66.3291 86.1611 66.6742 85.66C66.8625 85.3858 67.0563 85.1116 67.2446 84.8453C67.4384 84.5731 67.6377 84.289 67.8315 84.0089C68.3962 83.1844 69.0736 82.4032 70.1884 82.2592C70.8288 82.1763 70.9082 82.1882 71.2127 82.78C71.9049 84.1332 73.0141 84.8552 74.5091 84.9242C76.375 85.009 78.1358 84.4074 79.7415 83.1291C80.2417 82.7306 80.5813 82.1901 80.777 81.48C80.8951 81.0519 80.9412 80.6298 80.9855 80.1583L80.9911 80.1011C81.0021 79.9709 81.0114 79.8664 81.0723 79.7894C82.1741 78.3751 82.6189 76.6963 82.8829 75.3944C82.9087 75.2662 82.9308 75.136 82.953 75.0097C83.0268 74.5757 83.097 74.1674 83.3074 73.8202C83.9035 72.8418 84.1914 71.9482 84.2117 71.0072C84.2117 70.9618 84.2117 70.9165 84.2117 70.8691C84.2117 70.66 84.2154 70.4628 84.2782 70.2813C85.0534 68.0759 85.9504 65.7698 87.6096 63.9353C88.944 62.4597 89.3132 60.6469 88.7096 58.5421L88.7059 58.5302ZM83.204 67.9141L83.0637 68.5651L84.5329 67.0402C83.8795 68.7781 83.3166 70.5575 82.7721 72.2796L82.7518 72.3407L83.0028 72.4551C82.9752 72.5143 82.9438 72.5715 82.9087 72.6248C82.5193 73.2422 82.3716 73.9267 82.2258 74.6014C82.1926 74.7533 82.1594 74.9071 82.1243 75.059C81.8917 76.0394 81.5854 77.1698 81.0649 78.2212C81.0132 76.4202 80.4373 74.8874 79.8467 73.4671L79.784 73.3132L79.3355 73.4375L79.3853 73.6308C79.4296 73.8064 79.4739 73.9839 79.5182 74.1595C79.6142 74.5382 79.712 74.9308 79.8172 75.3194C79.9538 75.8244 80.0553 76.3412 80.1236 76.8719C80.035 76.5484 79.9058 76.2189 79.736 75.8836C78.9055 74.2522 77.5286 73.2777 75.6423 72.9917C74.9281 72.8832 74.2654 72.8931 73.6287 73.0252C75.0296 71.5221 76.9564 71.1118 79.2137 71.8397L80.5389 72.2677L79.2672 71.4195C78.9184 71.1847 78.5566 70.9441 78.1266 70.8395C76.8162 70.5279 75.5297 70.808 74.0735 71.7193C73.7671 71.9127 73.4866 72.1612 73.2171 72.4808C72.7852 72.9956 72.3533 73.4927 71.8292 73.905C71.0743 74.4988 70.4837 75.3214 69.9669 76.4951C69.9374 76.5622 69.906 76.6292 69.8728 76.6963L69.6753 76.2683L69.5406 76.2919C69.4501 76.3077 69.38 76.3531 69.3375 76.4221C69.2729 76.5267 69.2988 76.6352 69.3117 76.6944C69.463 77.3828 69.4575 78.0831 69.428 78.736C69.3911 79.5547 69.6144 80.3418 70.0906 81.0756C70.1201 81.121 70.1515 81.1644 70.1847 81.2078C70.2179 81.2531 70.2493 81.2946 70.277 81.3399C70.2548 81.3459 70.2327 81.3478 70.2124 81.3498C68.7137 81.4682 67.8315 82.5413 67.1689 83.5769C66.8939 84.005 66.5893 84.4547 66.1814 85.0386L66.1556 85.0742C66.0246 85.2635 65.9101 85.4253 65.7311 85.4628C64.3653 85.7389 63.3816 86.672 62.4311 87.5755L62.2373 87.7589C62.1819 87.8122 62.1247 87.8635 62.0675 87.9167C61.9438 88.0292 61.8165 88.1436 61.6983 88.2718C61.0653 88.9504 60.2643 89.4041 59.3156 89.6172C58.7527 89.7434 58.2174 90.0038 57.577 90.4634C56.0857 91.5306 54.9211 92.3019 53.8026 92.9608C52.6361 93.6492 51.4531 93.809 50.2866 93.4382C49.5317 93.1975 48.9522 92.6669 48.5627 91.8561C48.3413 91.3945 48.3486 90.8757 48.5867 90.3155C50.0762 86.7884 52.3537 84.65 55.5541 83.7821C56.8848 83.4211 57.863 82.9891 58.7268 82.3835C59.4171 81.8982 60.1812 81.5155 60.9951 81.2452C61.4196 81.1052 61.774 81.0322 62.1099 81.0164C62.1948 81.0125 62.276 81.0105 62.3517 81.0105C62.8297 81.0105 63.1804 81.0855 63.4665 81.2452C63.8891 81.482 64.2047 81.9238 64.5259 82.7247C64.6496 83.0325 64.7031 83.3757 64.7677 83.7761C64.7843 83.8807 64.8009 83.9872 64.8212 84.0977L64.9522 84.8651L65.1774 84.1233C65.5835 82.7859 65.0556 81.837 64.4853 81.0835C63.771 80.1425 62.8057 80.107 62.0988 80.1918C62.2465 79.8644 62.4071 79.5922 62.599 79.3416C63.3133 78.4106 64.0848 77.4321 64.9947 76.6056C66.0818 75.6173 67.2058 75.4141 68.4313 75.9842C68.5236 76.0276 68.6639 76.0927 68.7949 76.0315C68.8447 76.0098 68.9112 75.9605 68.9481 75.856C68.9905 75.7317 69.0108 75.493 68.6546 75.3036C67.741 74.8085 66.7979 74.7434 65.8529 75.1103C66.2257 74.4002 66.582 73.98 67.0526 73.6861C67.06 73.6801 67.0766 73.6742 67.0914 73.6683C67.1633 73.6387 67.2722 73.5934 67.3221 73.4691C67.3516 73.3921 67.3479 73.3053 67.311 73.2205C67.2224 73.0075 67.0452 72.9582 66.7868 73.0785L66.761 73.0903C66.2553 73.3152 65.8252 73.7018 65.517 74.2088C64.297 76.215 62.6821 77.7576 60.7127 78.7913C60.0335 79.1483 59.4134 79.6158 58.8117 80.0695C58.5939 80.2333 58.3688 80.4029 58.1454 80.5647C56.9845 81.4011 55.8679 81.6832 54.6313 81.4524C52.3703 81.0302 50.0577 80.7324 47.8134 80.4463C46.73 80.3082 45.6115 80.1642 44.5023 80.0064C43.4872 79.8624 42.7323 79.2134 42.258 78.0791C41.7467 76.8581 41.2964 75.6074 40.8423 74.3252C40.9863 74.3311 41.1026 74.2917 41.1893 74.2068C41.3019 74.0964 41.3462 73.9267 41.3185 73.7038C41.1376 72.2145 40.87 71.0427 40.4732 70.0169C40.2074 69.3324 39.6833 68.7604 38.9967 68.4112C38.7955 68.3086 38.7973 68.2573 38.8933 68.0404C39.0945 67.5906 39.423 67.271 39.8734 67.0895C40.9992 66.6378 42.0697 66.8745 43.1457 67.8135C44.2254 68.7544 45.0911 69.9913 45.7924 71.5911C46.4993 73.2028 47.1416 74.7947 47.2616 76.5602C47.2671 76.6411 47.3077 76.6904 47.3354 76.7239C47.3428 76.7338 47.3538 76.7456 47.3649 76.7614L47.5827 77.0711L47.6879 76.7022C47.8079 76.284 47.8263 75.8777 47.806 75.4871C47.8522 75.7475 47.8614 76.0828 47.8392 76.5267C47.8171 76.9745 47.6602 77.3946 47.4959 77.8385C47.4092 78.0713 47.3206 78.3119 47.2431 78.5723L46.9958 79.4048L47.555 78.7656C48.7215 77.4321 48.8673 75.714 47.9518 74.2502L47.998 74.2581C50.2109 74.5777 52.1969 74.915 54.0979 75.8165C54.5224 76.0177 54.9635 76.2584 55.5264 76.5918C55.7258 76.7101 55.8384 76.9153 55.9602 77.1323C56.0414 77.2783 56.1244 77.4282 56.2389 77.5663L56.6135 78.016L56.5526 77.3276C56.5323 77.077 56.5102 76.8186 56.4087 76.5563C56.8627 76.6648 57.2318 76.9271 57.6194 77.2053L57.636 77.2171C57.6822 77.2506 57.7283 77.2842 57.7744 77.3157C58.2986 77.6866 58.3337 78.3218 58.3706 78.9964L58.402 79.5665L58.7028 79.1503C58.9391 78.8248 59.0406 78.4125 58.9889 77.9924C58.9317 77.5189 58.6844 77.0731 58.3097 76.7693C57.5456 76.144 56.7686 75.779 55.9362 75.6528C55.6243 75.6055 55.3289 75.5108 55.0336 75.3628C56.9162 74.0806 58.9852 72.8319 61.3587 72.2934L61.8441 72.1829L61.4104 71.9265C60.9287 71.6424 60.5208 71.7233 60.1092 71.8397C59.8084 71.9245 59.5131 72.0172 59.227 72.1139C59.3507 71.7036 59.3027 71.1709 59.0867 70.5831L59.7567 70.9579L59.8268 70.7409C59.9191 70.4568 59.7493 70.2951 59.6792 70.23L59.6626 70.2142C58.677 69.2161 57.7984 68.644 56.8184 68.3639C56.6763 68.3224 56.5379 68.2652 56.3902 68.2041C56.2942 68.1646 56.1946 68.1232 56.0949 68.0857C56.1263 68.0463 56.1576 68.0048 56.189 67.9654C56.2905 67.8313 56.3884 67.703 56.5305 67.6241C56.8756 67.4308 57.1229 67.127 57.3629 66.8331L57.4736 66.699C58.8431 65.0498 60.5208 63.8603 62.4643 63.164C63.7932 62.6886 65.1959 62.1599 66.4657 61.3985C66.6299 61.2998 66.7924 61.2032 66.9566 61.1065L67.0028 61.0789C68.0862 60.4378 69.2046 59.775 70.2013 58.9208C71.1481 58.1081 71.927 57.5893 72.7243 57.2421C73.0289 57.1099 73.3112 56.9541 73.5604 56.7805C74.4408 56.1709 75.4947 55.8435 76.8789 55.7527C77.285 55.7251 77.691 55.6955 78.1358 55.664L78.3278 55.6502C77.5434 56.5891 76.8254 57.5498 76.5042 58.8222L76.2089 59.986L76.8346 58.9839C76.8863 58.9011 76.9398 58.8163 76.9934 58.7334L77.0063 58.7137C77.1262 58.5243 77.2517 58.327 77.368 58.1278C77.4252 58.0311 77.4806 57.9404 77.5323 57.8556C77.2684 58.6565 77.2204 59.5106 77.4068 60.274C77.6043 61.0809 78.0491 61.7141 78.66 62.0553L79.1731 62.3315L78.9424 61.8127C78.8446 61.5937 78.7412 61.3807 78.6397 61.1736C78.3591 60.5995 78.0934 60.0571 77.9919 59.4436C77.8793 58.765 78.0509 58.1318 78.2318 57.4591C78.2761 57.2934 78.3222 57.1237 78.3628 56.9541L78.433 56.668C78.4994 56.601 78.5622 56.5438 78.6212 56.4945C79.1029 56.0802 79.4407 55.5357 79.6529 54.8295C79.8301 55.0741 79.9077 55.376 79.9907 55.6955C80.0479 55.9184 80.1088 56.1492 80.2048 56.3702L80.3488 56.7036L80.5296 56.3899C80.6016 56.2637 80.6238 56.1394 80.6293 56.0289C81.2808 56.6108 82.0505 56.8357 82.7887 56.9916L83.9164 57.2283L82.9161 56.6266C82.0062 56.0782 81.1406 55.5081 80.5352 54.5494C79.9981 53.6972 79.6769 52.7721 79.5588 51.7226C79.7065 51.7956 79.9427 51.8804 80.0775 51.6279C80.2565 51.2906 79.9353 51.0894 79.7988 51.0026C79.7545 50.975 79.7083 50.9454 79.6806 50.9217C78.6489 49.9749 78.2373 48.7597 78.4256 47.2072C78.7892 44.1911 80.19 41.526 82.7112 39.0602C83.73 38.064 84.9352 37.8687 86.2973 38.4842C87.0651 38.8294 87.5247 39.7546 87.4656 40.8395C87.3918 42.2026 87.222 43.4572 86.947 44.6744C86.4413 46.9113 85.6864 49.0359 85.0866 50.6357C85.0423 50.7521 85.0072 50.8704 84.9685 51.0125C84.95 51.0756 84.9371 51.1387 84.9168 51.2334C84.9057 51.2827 84.8928 51.3419 84.878 51.4169L84.7359 52.0639L85.1862 51.6043C85.8728 50.904 86.1645 50.0794 86.4413 49.2805C86.4432 49.2884 86.4468 49.2963 86.4487 49.3042C86.9175 50.5568 87.3531 52.056 87.0319 53.6677C86.9119 54.2733 87.0135 54.8789 87.1131 55.4746C87.126 55.5535 87.139 55.6324 87.1519 55.7093C87.342 56.8929 87.5782 57.9483 87.8735 58.9346C88.3995 60.6903 87.9677 62.2723 86.5539 63.7735C85.6606 64.7224 84.627 65.833 83.6728 67.0205C83.4809 67.2612 83.2908 67.5373 83.2077 67.922L83.204 67.9141ZM76.0982 77.9904L76.0816 78.0594C76.6796 78.3948 77.1927 79.2647 77.3274 80.1741C77.4455 80.9632 77.261 81.6635 76.8088 82.1468C76.6242 82.346 76.4027 82.4683 76.113 82.5373C74.9834 82.7997 73.9535 82.63 72.7742 81.9909C72.1891 81.622 71.6188 80.9198 71.2127 80.0636C71.0355 79.6928 71.1186 79.3574 71.497 78.9057C72.4862 77.726 74.7084 77.3138 76.0668 78.0555L76.0982 77.9904ZM72.5656 82.6715L72.645 82.7168C73.5641 83.2297 74.3061 83.4585 75.0739 83.4585C75.1551 83.4585 75.2363 83.4566 75.3193 83.4507C77.0893 83.3422 77.9568 82.4998 78.0491 80.8053C78.1247 79.4284 77.7501 78.4046 76.9398 77.7616C76.1037 77.0987 74.9428 76.8186 73.7524 76.9942C72.573 77.1678 71.5099 77.7635 70.8344 78.6275C70.4117 79.172 70.349 79.7401 70.6424 80.3635C70.6775 80.4404 70.7162 80.5154 70.755 80.5884C70.1201 79.7125 70.0297 78.665 70.4708 77.3157C70.958 75.8303 71.8421 74.7631 73.1008 74.1437C75.0517 73.185 77.6301 74.0352 78.8446 76.0375C79.3263 76.8324 79.6327 77.732 79.7803 78.7873L79.9076 79.6928L80.1402 78.811C80.1771 78.6729 80.2048 78.5348 80.2251 78.3967C80.2306 78.9945 80.1974 79.6099 80.1254 80.251C80.0055 81.3163 79.5533 82.1487 78.7818 82.7267C77.1668 83.932 75.4153 84.291 73.5752 83.7939C72.776 83.5789 72.2168 83.0837 71.9104 82.3223C71.8698 82.2237 71.8255 82.129 71.7794 82.0343C72.0322 82.2927 72.298 82.5117 72.5656 82.6715ZM39.9859 70.7015C40.1447 71.3603 40.2886 72.031 40.4271 72.682L40.4326 72.7037C40.4917 72.9799 40.5507 73.256 40.6116 73.5302C40.6282 73.6032 40.6338 73.6703 40.6319 73.7354C40.4289 73.1613 40.2314 72.5715 40.0413 72.0014L40.0339 71.9778C39.7682 71.1808 39.4932 70.3582 39.196 69.5553C39.5467 69.8493 39.8641 70.1965 39.9859 70.7015ZM46.2667 57.4078C46.1763 58.039 45.9419 58.6367 45.7149 59.2147C45.6651 59.341 45.6152 59.4692 45.5672 59.5974C45.4307 59.4436 45.3181 59.3055 45.3218 59.1082C45.3347 58.3132 45.4731 57.5439 45.6226 56.7193C45.6761 56.4274 45.7296 56.1275 45.7795 55.8218C46.1006 56.3347 46.3553 56.8002 46.2667 57.4078ZM45.5506 60.2701C45.7924 60.2701 45.9862 60.0492 46.2409 59.6724C46.9404 58.6308 47.4092 56.9048 46.4328 55.4628C46.3922 55.4016 46.3535 55.3306 46.3166 55.2615C46.2538 55.1432 46.1874 55.0209 46.0933 54.9144C45.9585 54.7625 45.9844 54.6343 46.0822 54.3601C46.0951 54.3245 46.108 54.291 46.1191 54.2555C46.1412 54.1904 46.1763 54.1726 46.383 54.1786C46.4236 54.1786 46.4642 54.1805 46.503 54.1786C48.0552 54.1293 49.4339 55.2694 49.7735 56.8831C50.0227 58.0647 50.0024 59.3213 49.7144 60.7258L49.6701 60.9447C49.5631 61.4734 49.4505 62.0198 49.2936 62.5465C49.0518 63.3553 48.5794 63.9866 48.0773 64.6533C47.9629 64.8072 47.8429 64.965 47.7285 65.1228C47.7156 65.1425 47.699 65.1603 47.6805 65.184C47.6067 65.2747 47.5033 65.399 47.4757 65.6179L47.4166 66.0677L47.7654 65.8073C48.631 65.1583 49.2826 64.3535 49.755 63.3455C50.1519 63.8722 50.473 64.4304 50.7849 64.9689L50.8754 65.1248C51.0156 65.3674 51.1522 65.6179 51.2851 65.8606C51.3885 66.05 51.4918 66.2413 51.5989 66.4287C52.1618 67.4249 52.0714 68.5315 51.9422 69.4902C51.9311 69.5751 51.9108 69.6619 51.8905 69.7526C51.8794 69.8 51.8683 69.8493 51.8591 69.8986L51.7631 70.372L52.1415 70.1057C52.662 69.7388 52.7598 69.2239 52.7782 67.7879C53.8653 68.1054 54.8528 68.4467 55.7885 68.8314C55.8882 68.8728 55.9879 68.9142 56.0875 68.9576C56.3662 69.076 56.6541 69.2003 56.9513 69.289C57.9461 69.5889 58.2986 70.4766 58.5755 71.3603C58.6364 71.5517 58.6733 71.7588 58.7139 71.9797C58.7323 72.0764 58.749 72.173 58.7711 72.2737C57.6711 72.684 56.6984 73.1811 55.7977 73.7926C55.5449 73.9642 55.3474 73.9977 55.065 73.9208C54.1717 73.6703 53.26 73.4395 52.3759 73.2146L52.3611 73.2107C51.9975 73.118 51.6321 73.0252 51.2685 72.9325C50.1426 72.6425 49.181 71.9561 48.4096 70.8928C48.0903 70.4549 47.8079 70.0169 47.5679 69.5948C46.8407 68.3126 46.0157 66.8587 44.912 65.6258C44.2144 64.8447 44.0353 63.9274 44.3676 62.8188C44.4322 62.6057 44.5023 62.3887 44.5743 62.1698C44.805 61.4695 45.0431 60.7455 45.0744 59.9683C45.2258 60.1537 45.3734 60.2701 45.5506 60.2701Z" fill="url(#paint1_linear_181_1052)"/>
<path d="M81.759 67.857C81.3381 67.5137 80.8675 67.2849 80.4116 67.0659C80.2344 66.9811 80.0351 66.8845 79.8487 66.7839C77.6284 65.5904 75.3176 65.4109 72.9791 66.2493C72.3184 66.486 71.6798 66.7957 71.0597 67.0975C70.6296 67.3066 70.1848 67.5236 69.7382 67.711C66.3901 69.1234 63.5275 69.5692 60.7332 69.1175C60.6261 69.0997 60.5209 69.0958 60.4157 69.0919H60.4028C60.3622 69.0899 60.3234 69.0879 60.2828 69.0859L59.9857 69.0662L60.1019 69.3601C60.1389 69.4528 60.1887 69.516 60.257 69.5535C60.2773 69.5653 60.2976 69.5732 60.3216 69.5811C61.3127 69.8829 62.3223 70.0348 63.3632 70.0348C64.5777 70.0348 65.8364 69.8276 67.1561 69.4154C68.8246 68.8926 70.4469 68.2416 71.9788 67.4782C74.6568 66.1427 77.3811 66.2295 80.0831 67.7406L80.3433 67.8846C81.0539 68.2791 81.7257 68.652 82.2831 69.2497L82.8313 69.8375L82.5895 69.0485C82.4474 68.5829 82.1798 68.2022 81.759 67.857Z" fill="url(#paint2_linear_181_1052)"/>
<path d="M61.2425 65.9552C61.3218 66.0006 61.3975 65.9986 61.4418 65.9966H61.4547C61.5359 65.9986 61.6153 66.0025 61.6965 66.0065C61.8479 66.0124 62.0158 66.0203 62.1838 66.0203C62.2465 66.0203 62.3093 66.0203 62.372 66.0164C64.8618 65.9217 67.3184 65.1563 70.1072 63.6058C71.1998 62.9982 72.2223 62.2427 73.2153 61.5089C73.8521 61.0374 74.5128 60.5502 75.1809 60.1103C75.2935 60.0353 75.3839 59.9406 75.4725 59.8479C75.5095 59.8104 75.5445 59.7729 75.5814 59.7355L75.7106 59.6112L75.4541 59.264L75.3157 59.3488C75.2677 59.3784 75.2178 59.408 75.168 59.4376L75.1551 59.4455C75.0388 59.5145 74.917 59.5855 74.8007 59.6644L74.2618 60.0235C73.4128 60.5896 72.4512 61.2327 71.5302 61.856C68.4646 63.9332 65.1904 65.1405 61.7999 65.4443C61.6799 65.4541 61.5581 65.468 61.4197 65.4837L60.9158 65.539L61.0985 65.8151C61.1391 65.8783 61.189 65.9256 61.2425 65.9552Z" fill="url(#paint3_linear_181_1052)"/>
<path d="M86.9325 62.8087L87.0377 62.4852L86.7221 62.5503C86.5578 62.5858 86.4637 62.6983 86.3936 62.7831C86.3733 62.8067 86.3548 62.8304 86.3345 62.8482C85.5722 63.5623 84.7417 64.2862 83.7229 64.5959C82.6764 64.9135 81.5395 64.9195 80.3435 64.6117C79.895 64.4953 79.4409 64.3651 78.9998 64.2369L78.9555 64.2251C78.7599 64.1679 78.5643 64.1126 78.3705 64.0574L77.4698 63.8029L78.2117 64.4066C78.4148 64.5723 78.6399 64.7242 78.8799 64.8583C79.7473 65.3436 80.7957 65.5921 81.8661 65.5921C82.6044 65.5921 83.3538 65.4738 84.0588 65.2331C84.8672 64.9569 86.7202 63.4597 86.9325 62.8087Z" fill="url(#paint4_linear_181_1052)"/>
<path d="M80.6791 59.2028C80.8876 59.3586 81.0962 59.4947 81.3029 59.6091C81.9194 59.9544 82.5266 60.124 83.1578 60.1299C83.1744 60.1299 83.1892 60.1299 83.2058 60.1299C84.1489 60.1299 85.0422 59.8518 85.9079 59.5815L86.098 59.5224C86.2881 59.4632 86.5188 59.3547 86.6092 59.0469L86.7015 58.7294L85.7713 58.9306C85.3025 59.0312 84.8411 59.1298 84.3796 59.2324C82.7333 59.5934 81.4469 59.1771 80.4465 57.96C80.4133 57.9186 80.3764 57.891 80.3358 57.8594C80.3173 57.8456 80.2952 57.8279 80.2712 57.8062L79.891 57.4846L79.974 57.9936C80.0589 58.5124 80.297 58.9187 80.6791 59.2028Z" fill="url(#paint5_linear_181_1052)"/>
<path d="M69.1253 69.088L69.0644 69.1018L69.1216 69.4825L69.1825 69.4766C71.4914 69.2418 73.2337 68.6086 74.666 67.4822L75.814 66.5788L74.3172 67.212C72.6413 67.9202 70.9101 68.654 69.1253 69.088Z" fill="url(#paint6_linear_181_1052)"/>
<path d="M63.2027 71.6325L63.1455 71.6522L63.2304 72.0231L63.5626 71.9659C65.1001 71.7035 66.691 71.4313 68.2654 71.2696L70.0188 71.09L68.2691 70.877C66.7316 70.6896 65.1702 70.9243 63.2027 71.6325Z" fill="url(#paint7_linear_181_1052)"/>
<path d="M59.251 84.0244L58.653 83.9988L59.1329 84.3814C60.0151 85.0837 60.4156 86.0464 60.4323 87.5042L60.4433 88.4708L60.7866 87.5771C61.1262 86.6954 61.0561 85.6775 60.6021 84.922C60.2717 84.3696 59.7918 84.0481 59.251 84.0244Z" fill="url(#paint8_linear_181_1052)"/>
<path d="M62.0748 72.7845L61.2756 72.8062L62.0028 73.1613C62.8685 73.5854 63.2966 74.4139 63.6935 75.2996L64.0165 76.0196L64.0441 75.2227C64.07 74.4987 63.843 73.8221 63.4222 73.3684C63.0622 72.9798 62.5861 72.7707 62.0748 72.7845Z" fill="url(#paint9_linear_181_1052)"/>
<defs>
<linearGradient id="paint0_linear_181_1052" x1="8.0025" y1="63.9877" x2="120.008" y2="63.9877" gradientUnits="userSpaceOnUse">
<stop stop-color="#E4C683"/>
<stop offset="0.23" stop-color="#E0AB3E"/>
<stop offset="0.7" stop-color="#E5D07A"/>
<stop offset="1" stop-color="#B88A44"/>
</linearGradient>
<linearGradient id="paint1_linear_181_1052" x1="7.99069" y1="63.9904" x2="119.991" y2="63.9904" gradientUnits="userSpaceOnUse">
<stop stop-color="#E4C683"/>
<stop offset="0.23" stop-color="#E0AB3E"/>
<stop offset="0.7" stop-color="#E5D07A"/>
<stop offset="1" stop-color="#B88A44"/>
</linearGradient>
<linearGradient id="paint2_linear_181_1052" x1="7.9819" y1="63.9403" x2="119.982" y2="63.9403" gradientUnits="userSpaceOnUse">
<stop stop-color="#E4C683"/>
<stop offset="0.23" stop-color="#E0AB3E"/>
<stop offset="0.7" stop-color="#E5D07A"/>
<stop offset="1" stop-color="#B88A44"/>
</linearGradient>
<linearGradient id="paint3_linear_181_1052" x1="7.98603" y1="64.0163" x2="120" y2="64.0163" gradientUnits="userSpaceOnUse">
<stop stop-color="#E4C683"/>
<stop offset="0.23" stop-color="#E0AB3E"/>
<stop offset="0.7" stop-color="#E5D07A"/>
<stop offset="1" stop-color="#B88A44"/>
</linearGradient>
<linearGradient id="paint4_linear_181_1052" x1="8.04321" y1="63.9644" x2="120" y2="63.9644" gradientUnits="userSpaceOnUse">
<stop stop-color="#E4C683"/>
<stop offset="0.23" stop-color="#E0AB3E"/>
<stop offset="0.7" stop-color="#E5D07A"/>
<stop offset="1" stop-color="#B88A44"/>
</linearGradient>
<linearGradient id="paint5_linear_181_1052" x1="8.03035" y1="64.0418" x2="120.03" y2="64.0418" gradientUnits="userSpaceOnUse">
<stop stop-color="#E4C683"/>
<stop offset="0.23" stop-color="#E0AB3E"/>
<stop offset="0.7" stop-color="#E5D07A"/>
<stop offset="1" stop-color="#B88A44"/>
</linearGradient>
<linearGradient id="paint6_linear_181_1052" x1="8.03063" y1="64" x2="120.061" y2="64" gradientUnits="userSpaceOnUse">
<stop stop-color="#E4C683"/>
<stop offset="0.23" stop-color="#E0AB3E"/>
<stop offset="0.7" stop-color="#E5D07A"/>
<stop offset="1" stop-color="#B88A44"/>
</linearGradient>
<linearGradient id="paint7_linear_181_1052" x1="8" y1="64.2262" x2="120" y2="64.2262" gradientUnits="userSpaceOnUse">
<stop stop-color="#E4C683"/>
<stop offset="0.23" stop-color="#E0AB3E"/>
<stop offset="0.7" stop-color="#E5D07A"/>
<stop offset="1" stop-color="#B88A44"/>
</linearGradient>
<linearGradient id="paint8_linear_181_1052" x1="8" y1="63.9259" x2="120.053" y2="63.9259" gradientUnits="userSpaceOnUse">
<stop stop-color="#E4C683"/>
<stop offset="0.23" stop-color="#E0AB3E"/>
<stop offset="0.7" stop-color="#E5D07A"/>
<stop offset="1" stop-color="#B88A44"/>
</linearGradient>
<linearGradient id="paint9_linear_181_1052" x1="61.2756" y1="74.4021" x2="64.046" y2="74.4021" gradientUnits="userSpaceOnUse">
<stop stop-color="#E4C683"/>
<stop offset="0.23" stop-color="#E0AB3E"/>
<stop offset="0.7" stop-color="#E5D07A"/>
<stop offset="1" stop-color="#B88A44"/>
</linearGradient>
</defs>
</svg>
