<svg width="32" height="32" viewBox="0 0 32 32" fill="none" xmlns="http://www.w3.org/2000/svg">
<rect width="32" height="32" fill="#184C43"/>
<path d="M4.30848 15.477C4.32616 14.9474 4.35268 14.4202 4.40526 13.8973C4.44621 13.4891 4.51926 13.0814 4.63046 12.6848C4.66722 12.5537 4.66815 12.4352 4.63977 12.3003C4.55183 11.8814 4.53089 11.4452 4.37688 11.0432C4.19169 10.5596 4.1112 10.0629 4.12515 9.54437C4.1419 8.92528 4.23683 8.32505 4.48343 7.75627C4.57416 7.54732 4.65745 7.33548 4.74725 7.12654C4.78354 7.04238 4.84869 6.98434 4.94128 6.98966C5.04039 6.99546 5.06179 7.08833 5.07621 7.16378C5.17579 7.68082 5.32003 8.18914 5.32561 8.72456C5.33306 9.40362 5.23302 10.0595 5.01898 10.7008C4.90219 11.0505 4.76493 11.4016 4.88265 11.8036C4.96315 11.6169 5.05946 11.4423 5.11483 11.2546C5.30514 10.6104 5.5885 10.0106 5.88117 9.41281C5.95981 9.25224 5.93608 9.04087 5.98865 8.86192C6.10405 8.47015 5.99703 8.07452 6.02913 7.68227C6.10777 6.72123 6.33344 5.80517 6.81781 4.97424C6.97787 4.7 7.18167 4.4543 7.39338 4.21876C7.44875 4.15733 7.51528 4.10364 7.59578 4.1346C7.68046 4.16749 7.68837 4.26083 7.68465 4.34161C7.65301 5.1116 7.59205 5.8753 7.3622 6.61772C7.1826 7.19764 6.909 7.72289 6.59633 8.23171C6.56143 8.28878 6.50001 8.34295 6.53677 8.43775C6.95926 7.84042 7.44921 7.32049 7.94242 6.80587C8.27557 6.45812 8.48449 6.05184 8.56871 5.58123C8.7525 4.55393 9.25734 3.72881 9.99809 3.04297C10.1544 2.89787 10.3033 2.74358 10.4559 2.59413C10.5122 2.53899 10.5657 2.47902 10.643 2.45484C10.7654 2.41663 10.83 2.4708 10.8082 2.60235C10.6444 3.57645 10.3215 4.47171 9.62864 5.18753C9.47091 5.35101 9.33272 5.5348 9.20383 5.72827C9.57421 5.45355 9.93016 5.15416 10.3191 4.91136C10.6635 4.69661 10.951 4.43157 11.2004 4.1138C11.3437 3.93146 11.4814 3.7438 11.6094 3.54985C11.9905 2.97332 12.499 2.56173 13.1239 2.31554C13.6227 2.11917 14.1397 1.99439 14.6789 2.00019C14.8325 2.00165 14.879 2.07468 14.8097 2.21687C14.7753 2.28797 14.7292 2.35569 14.6766 2.41421C14.2355 2.90658 13.7274 3.31189 13.1644 3.64175C12.7308 3.89567 12.2929 4.15008 11.8076 4.27873C11.5768 4.34016 11.3698 4.42383 11.1743 4.59408C11.2977 4.61149 11.4056 4.56554 11.5135 4.56748C11.9868 4.57618 12.4088 4.38127 12.8275 4.19844C13.1714 4.04851 13.5301 4.00014 13.8875 3.94452C14.4133 3.8623 14.9358 3.91405 15.4453 4.07801C15.5132 4.09977 15.5835 4.11525 15.6412 4.16604C15.7961 4.30243 15.784 4.4514 15.5932 4.51621C15.2261 4.64148 14.8632 4.7798 14.4942 4.90169C13.8833 5.10337 13.2863 5.03856 12.6791 4.8954C12.1812 4.77835 11.6834 4.81995 11.1832 4.92877C10.8421 5.00277 10.5392 5.16238 10.2228 5.29442C10.1172 5.33844 10.0507 5.43275 9.96133 5.49804C9.56118 5.79114 9.1587 6.08183 8.76552 6.3846C8.64315 6.47843 8.54637 6.60853 8.44447 6.73429C8.69527 6.6066 8.95862 6.50358 9.18755 6.33381C9.64772 5.99138 10.1447 5.71859 10.7086 5.65378C11.3116 5.5851 11.9216 5.57011 12.5274 5.66442C12.6219 5.67893 12.7066 5.72101 12.7922 5.76116C12.8582 5.79163 12.9383 5.81726 12.9448 5.90045C12.9527 5.99912 12.8587 6.02766 12.794 6.06296C12.5446 6.19887 12.2966 6.33768 12.0398 6.45618C11.5959 6.66077 11.145 6.85714 10.6542 6.89099C10.1982 6.92243 9.74264 6.95097 9.282 6.9321C8.73993 6.90986 8.23695 7.05592 7.78841 7.42157C7.24308 7.86654 6.82386 8.41066 6.4586 9.01089C6.3474 9.19323 6.18222 9.33252 6.10405 9.54582C6.03053 9.74557 5.89467 9.91872 5.81929 10.1402C6.08916 9.97483 6.2427 9.71994 6.41765 9.48488C7.07558 8.60316 7.88426 7.96327 8.97258 7.77078C9.23919 7.72386 9.4979 7.63293 9.76963 7.61213C9.84966 7.60585 9.9255 7.59859 9.98134 7.67211C10.0428 7.75288 9.99297 7.82495 9.9604 7.89604C9.92178 7.9802 9.86501 8.05469 9.79336 8.10789C9.39739 8.40051 9.01585 8.71392 8.6278 9.01718C8.05549 9.46505 7.44595 9.83844 6.76756 10.0537C6.26178 10.2142 5.90025 10.5344 5.57315 10.9286C5.51266 11.0016 5.46613 11.0906 5.42891 11.1796C5.12367 11.9066 4.88405 12.6582 4.73795 13.435C4.67839 13.7518 4.71049 14.0879 4.66443 14.4124C4.63512 14.619 4.56346 14.8197 4.60022 15.0746C4.67374 14.8013 4.75749 14.574 4.86451 14.3563C4.9101 14.263 4.88358 14.1638 4.89801 14.0681C5.07249 12.9097 5.61409 11.9733 6.47768 11.229C6.72475 11.0157 6.97368 10.8058 7.25984 10.65C7.28915 10.6341 7.31986 10.6205 7.34917 10.605C7.42781 10.5639 7.51621 10.5465 7.58461 10.6041C7.66324 10.6699 7.61951 10.7646 7.59113 10.8435C7.3408 11.5443 7.06953 12.2306 6.6382 12.8429C6.21432 13.4446 5.75228 14.0033 5.21022 14.4942C5.02736 14.6596 4.97618 14.9154 4.88451 15.1413C4.71794 15.5529 4.67932 15.9848 4.67978 16.424C4.67978 16.6716 4.65978 16.9236 4.69933 17.165C4.75888 17.5301 4.82589 17.8953 4.90313 18.258C4.99711 18.7006 5.1167 19.134 5.25954 19.561C5.27303 19.6012 5.29118 19.6389 5.3084 19.6815C5.40518 19.2834 5.2963 18.9231 5.19161 18.5531C4.92406 17.608 4.97292 16.6866 5.42007 15.7976C5.62061 15.3986 5.83743 15.0131 6.10126 14.6572C6.19292 14.5338 6.29016 14.3394 6.46139 14.4178C6.61075 14.486 6.53584 14.6809 6.52235 14.8245C6.46651 15.4189 6.42277 16.0148 6.34833 16.6063C6.29435 17.0339 6.10916 17.4286 6.00261 17.844C5.9277 18.1366 5.81138 18.4191 5.7481 18.7141C5.65457 19.1485 5.64434 19.591 5.73088 20.0297C5.80859 20.4244 5.92165 20.8118 6.1422 21.1465C6.53584 21.7448 6.82572 22.4219 7.40873 22.9389C7.32218 22.7213 7.26635 22.5331 7.17655 22.3643C6.93925 21.9184 6.67822 21.4879 6.55538 20.984C6.36182 20.1903 6.40602 19.4019 6.56236 18.6111C6.60563 18.392 6.65449 18.1749 6.72149 17.9625C6.74755 17.8803 6.78244 17.7961 6.88434 17.7908C6.98531 17.7855 7.03743 17.8595 7.06209 17.9437C7.12211 18.1463 7.17236 18.3519 7.22541 18.5569C7.36127 19.0822 7.52412 19.6012 7.58368 20.1443C7.65301 20.7789 7.65254 21.4164 7.60881 22.0519C7.55576 22.8224 7.84797 23.4511 8.36398 23.958C8.6613 24.2497 8.97584 24.5302 9.31364 24.7817C9.69565 25.0666 10.0749 25.3524 10.4825 25.5957C10.4955 25.6034 10.5113 25.6068 10.536 25.6005C10.2573 25.3176 9.99995 25.0167 9.70449 24.7493C9.05168 24.1587 8.56545 23.4632 8.47704 22.5225C8.43331 22.0601 8.34118 21.6026 8.35002 21.1344C8.35188 21.0391 8.35095 20.9443 8.45564 20.9056C8.56033 20.8669 8.61012 20.9603 8.65804 21.0217C9.10612 21.5934 9.51418 22.1965 9.81848 22.863C10.0902 23.4584 10.3122 24.077 10.4825 24.714C10.6332 25.2774 10.9096 25.7321 11.4386 26.0116C11.9174 26.2646 12.4088 26.4847 12.9001 26.7067C13.2226 26.8522 13.5371 27.0157 13.8791 27.1096C13.9401 27.1265 14.0015 27.1395 14.0675 27.142C13.9405 27.0085 13.7842 26.9253 13.6269 26.8489C12.8773 26.4851 12.2776 25.9478 11.8067 25.2387C11.4354 24.6801 11.2251 24.0576 11.0464 23.4168C11.0292 23.3549 11.0101 23.2789 11.0645 23.2403C11.1339 23.1909 11.2237 23.1808 11.299 23.2354C11.4489 23.3438 11.6024 23.4482 11.7406 23.5716C12.1761 23.9604 12.6177 24.3416 12.9885 24.8044C13.3505 25.2571 13.6604 25.7432 13.9354 26.2549C14.0792 26.5219 14.2569 26.7637 14.4388 27.0017C14.5584 27.1584 14.7492 27.2222 14.9172 27.2958C15.2415 27.4375 15.5765 27.555 15.9175 27.6493C15.9673 27.6633 16.0097 27.6682 16.0585 27.6455C16.3712 27.5008 16.6955 27.3848 17.0105 27.2455C17.332 27.1033 17.5605 26.8759 17.7201 26.5606C17.962 26.0823 18.2194 25.6126 18.5157 25.1691C18.814 24.7227 19.1876 24.3483 19.5985 24.0117C19.8153 23.8337 20.0214 23.6422 20.2327 23.4564C20.2536 23.4381 20.2718 23.4149 20.2946 23.3989C20.3923 23.3297 20.4918 23.2011 20.6156 23.2988C20.7268 23.3863 20.631 23.5106 20.5993 23.6136C20.463 24.061 20.3295 24.5084 20.1378 24.9369C19.907 25.4525 19.5245 25.8293 19.1378 26.2095C18.7433 26.5978 18.2626 26.845 17.8085 27.1502C17.9141 27.1216 18.0207 27.0965 18.1254 27.0646C18.2366 27.0302 18.3548 27.007 18.4539 26.949C18.8066 26.7415 19.2044 26.6433 19.5608 26.4455C19.8777 26.2699 20.1866 26.0798 20.4965 25.8922C20.9413 25.6228 21.1526 25.1846 21.2586 24.6946C21.4406 23.855 21.7668 23.085 22.2158 22.3663C22.4326 22.0195 22.6476 21.6717 22.89 21.3433C22.9202 21.3022 22.9537 21.264 22.9858 21.2243C23.0505 21.1441 23.131 21.0913 23.2329 21.1233C23.3315 21.1542 23.3325 21.2563 23.3399 21.339C23.365 21.6093 23.3376 21.8783 23.2957 22.1448C23.2129 22.6719 23.1198 23.1991 22.8737 23.676C22.6671 24.076 22.4186 24.4542 22.0734 24.7377C21.8133 24.951 21.5788 25.1812 21.3908 25.4772C21.6044 25.3892 21.7928 25.2653 21.9803 25.141C22.4991 24.7972 22.9933 24.417 23.4302 23.9662C23.7582 23.6281 23.9118 23.1933 23.9955 22.7271C24.0765 22.2763 24.0076 21.8236 24.0225 21.3719C24.0518 20.4602 24.2165 19.5852 24.5553 18.7446C24.6148 18.5966 24.6125 18.4297 24.6846 18.2837C24.7242 18.2034 24.7586 18.1197 24.8544 18.1197C24.9442 18.1197 24.9861 18.2034 25.0173 18.275C25.135 18.5434 25.1797 18.8326 25.2285 19.1204C25.3588 19.8851 25.3602 20.6444 25.0941 21.3786C24.9726 21.7133 24.8498 22.0529 24.6358 22.346C24.552 22.4611 24.4748 22.5902 24.4487 22.7435C24.4296 22.8553 24.3919 22.9646 24.3384 23.0618C24.3649 23.0971 24.3859 23.0763 24.398 23.0618C24.8568 22.523 25.2499 21.9329 25.6217 21.3293C25.8851 20.9013 25.9544 20.4055 26.0349 19.9107C26.1261 19.3501 25.9651 18.8409 25.8129 18.3287C25.5668 17.4992 25.3644 16.6624 25.2834 15.7967C25.2504 15.4417 25.2309 15.0871 25.2295 14.7307C25.2295 14.6267 25.2351 14.5222 25.3374 14.4845C25.437 14.4482 25.5114 14.5174 25.5775 14.5967C26.0549 15.1713 26.3792 15.8223 26.5644 16.5614C26.7784 17.4145 26.7263 18.243 26.4606 19.0687C26.4364 19.1441 26.4234 19.2254 26.4178 19.3047C26.4122 19.3845 26.4281 19.4657 26.4253 19.546C26.4225 19.6239 26.4085 19.7018 26.4099 19.7835C26.5816 19.371 26.7975 18.985 26.911 18.54C27.0348 18.0539 27.0986 17.562 27.1721 17.0697C27.2651 16.4462 27.2009 15.8455 26.9622 15.2526C26.7924 14.8313 26.4653 14.5585 26.2108 14.2175C25.6217 13.4282 25.0117 12.6519 24.6488 11.7107C24.5687 11.5032 24.4855 11.2981 24.3882 11.0984C24.3529 11.0258 24.2993 10.9436 24.3673 10.8575C24.4399 10.7661 24.5273 10.8058 24.6106 10.8338C24.7651 10.8856 24.8935 10.9886 25.0294 11.0756C26.0526 11.7305 26.6761 12.6872 26.9776 13.8804C27.0222 14.0579 27.0804 14.2504 26.978 14.4342C26.9562 14.4734 26.9734 14.5005 26.9943 14.5271C27.1423 14.7138 27.2554 14.9213 27.3554 15.1457C27.3233 14.7679 27.3051 14.3883 27.2554 14.0134C27.1939 13.5491 27.1204 13.0848 27.026 12.6268C26.8934 11.9825 26.6426 11.3929 26.1884 10.9151C26.0386 10.7574 25.8562 10.6616 25.6566 10.5809C24.827 10.2452 24.063 9.79152 23.3953 9.1734C23.0356 8.84064 22.6745 8.50981 22.3167 8.17512C22.2516 8.11418 22.1971 8.03969 22.1413 7.96859C22.1078 7.92603 22.0552 7.8854 22.0934 7.81866C22.1325 7.75046 22.1995 7.73644 22.2669 7.74466C22.4368 7.76546 22.6071 7.78867 22.776 7.81866C23.6563 7.97391 24.4133 8.39857 25.0796 8.99686C25.3853 9.2711 25.6324 9.60966 25.8111 9.99127C25.9186 10.22 26.121 10.3526 26.2778 10.5335C26.1596 10.2113 26.0019 9.91244 25.8297 9.62369C25.5943 9.2295 25.3937 8.81065 25.0666 8.47934C24.7856 8.19446 24.532 7.88057 24.2486 7.59859C24.0928 7.44334 23.861 7.40754 23.6772 7.28953C23.5451 7.20489 23.4074 7.18216 23.251 7.20973C22.7932 7.2905 22.3484 7.15459 21.8989 7.09994C21.6314 7.06753 21.3666 7.01433 21.1074 6.92533C20.6845 6.77975 20.3327 6.51954 20.0038 6.22112C19.9237 6.14857 19.833 6.09585 19.7516 6.02862C19.699 5.98558 19.6478 5.93189 19.6753 5.85257C19.7008 5.77954 19.7674 5.78486 19.8293 5.78002C20.1326 5.75632 20.4355 5.71473 20.7394 5.70747C21.6644 5.68522 22.4721 6.01024 23.1705 6.63272C23.3348 6.77927 23.5209 6.88277 23.7168 6.99014C23.4064 6.52486 23.0133 6.17082 22.5717 5.87046C22.3032 5.68764 22.0497 5.47773 21.7686 5.31957C21.4452 5.13771 21.1042 4.97617 20.744 4.89395C20.5728 4.85477 20.3811 4.90459 20.2001 4.92587C19.8055 4.9723 19.4128 5.04534 19.0169 5.07387C18.4478 5.1145 17.8992 4.9636 17.3502 4.83252C17.1943 4.79528 17.0366 4.76723 16.8793 4.73482C16.789 4.71644 16.7011 4.68404 16.676 4.58247C16.6518 4.48525 16.7383 4.44318 16.7946 4.39336C17.1064 4.11719 17.4926 4.05721 17.8774 4.02094C18.4809 3.96387 19.0494 4.14089 19.6073 4.35515C20.0149 4.51137 20.4188 4.68452 20.8878 4.61584C20.6975 4.48525 20.5495 4.34257 20.3136 4.27244C19.4947 4.02964 18.7033 3.70414 17.9848 3.21032C17.7359 3.0391 17.4726 2.8911 17.2483 2.68313C17.1804 2.62025 17.1124 2.54867 17.1543 2.4471C17.1939 2.35182 17.2897 2.3968 17.3623 2.38422C17.8234 2.30539 18.2724 2.39244 18.7237 2.47999C19.4477 2.62025 19.9977 3.03281 20.4383 3.6253C20.59 3.82941 20.7296 4.04609 20.8855 4.24342C21.0758 4.48429 21.3005 4.70919 21.5718 4.86058C22.0031 5.10144 22.3758 5.42598 22.7643 5.72875C22.8127 5.76648 22.8621 5.80275 22.9374 5.81436C22.8672 5.73794 22.7988 5.66007 22.7267 5.58559C22.2158 5.05646 21.7877 4.46784 21.5518 3.75202C21.4327 3.39024 21.3252 3.02217 21.2838 2.63911C21.2773 2.58059 21.2359 2.50465 21.3015 2.46354C21.3685 2.42146 21.4457 2.4558 21.5085 2.48918C21.717 2.6009 21.8873 2.7668 22.0506 2.93705C22.3553 3.2553 22.6676 3.57742 22.8141 4.00885C22.9858 4.51476 23.165 5.01873 23.2371 5.55899C23.2822 5.89513 23.4158 6.21628 23.6456 6.47746C24.0751 6.96499 24.5553 7.40319 24.9545 7.92023C25.0043 7.98455 25.0559 8.04743 25.1169 8.1045C24.9373 7.77029 24.7884 7.42157 24.6218 7.08252C24.3524 6.53502 24.2314 5.95075 24.1635 5.34811C24.1128 4.89782 24.0458 4.4485 24.0583 3.99337C24.0602 3.92711 24.0425 3.84682 24.1202 3.81103C24.1914 3.77814 24.2463 3.82699 24.3012 3.86665C24.4561 3.97838 24.5422 4.14959 24.6446 4.30436C24.8968 4.68501 25.048 5.11788 25.2271 5.53722C25.3909 5.92077 25.5468 6.30189 25.6454 6.71252C25.7604 7.1899 25.7162 7.67259 25.7459 8.1519C25.7725 8.57994 25.7771 8.98816 26.0233 9.38089C26.3508 9.90325 26.6095 10.4735 26.7845 11.0776C26.8222 11.2077 26.8827 11.3305 26.9459 11.4544C26.9422 11.2241 26.9832 11.0002 26.8552 10.7724C26.7133 10.5194 26.7021 10.2128 26.6305 9.93082C26.469 9.29625 26.4681 8.64621 26.4965 7.99713C26.516 7.54781 26.6067 7.11009 26.7589 6.68737C26.7742 6.64481 26.7859 6.59983 26.7933 6.55485C26.8091 6.45763 26.8417 6.36767 26.9501 6.36477C27.0516 6.36235 27.1041 6.44022 27.1334 6.53405C27.2437 6.88809 27.3675 7.23826 27.428 7.6073C27.4964 8.02518 27.5811 8.43968 27.6285 8.8624C27.6895 9.40169 27.5797 9.90566 27.435 10.4169C27.2358 11.1206 27.1483 11.8345 27.307 12.5716C27.4373 13.1786 27.5159 13.7972 27.616 14.411C27.6211 14.4415 27.6104 14.4753 27.6257 14.5097C27.6485 14.2552 27.7676 14.0105 27.7239 13.7542C27.5624 12.8125 27.7704 11.938 28.1059 11.0703C28.2888 10.5978 28.5586 10.1775 28.7596 9.718C28.7797 9.67206 28.8146 9.63094 28.849 9.59467C28.9537 9.48343 29.0626 9.50906 29.1147 9.65464C29.1658 9.79732 29.1714 9.94871 29.1775 10.0967C29.2194 11.0737 29.1184 12.0357 28.8569 12.9755C28.7327 13.4214 28.4861 13.7958 28.2208 14.1721C27.8788 14.6572 27.6388 15.2042 27.6187 15.8363C27.6034 16.3234 27.5592 16.8133 27.4564 17.2902C27.381 17.6399 27.334 17.9959 27.24 18.3432C27.3963 18.1511 27.4568 17.9137 27.5229 17.6844C27.743 16.9188 28.0021 16.171 28.3879 15.477C28.5773 15.1355 28.8639 14.8729 29.0965 14.5658C29.2538 14.3583 29.4218 14.16 29.5883 13.9602C29.6274 13.9133 29.6739 13.8664 29.7265 13.8393C29.9285 13.7348 30.0225 13.7948 29.9955 14.0265C29.9047 14.8066 29.7214 15.5655 29.3878 16.2712C29.0142 17.061 28.4442 17.6975 27.8165 18.2779C27.616 18.4631 27.3889 18.6121 27.2139 18.8346C26.985 19.1257 26.8426 19.4604 26.7091 19.799C26.4574 20.4374 26.127 21.0304 25.7794 21.6147C25.765 21.6388 25.7529 21.665 25.7311 21.7061C25.8092 21.6969 25.8376 21.6393 25.8776 21.6002C26.1549 21.3274 26.3308 20.9786 26.5276 20.6469C26.9659 19.9068 27.5806 19.37 28.2995 18.9463C28.6647 18.7311 29.0193 18.4941 29.425 18.3644C29.5399 18.3277 29.6791 18.2518 29.7675 18.3567C29.8647 18.4723 29.7489 18.5971 29.686 18.6967C29.2831 19.3361 28.8643 19.9649 28.3013 20.4674C27.7816 20.9308 27.1995 21.2969 26.5607 21.5557C26.2978 21.6621 26.0977 21.8613 25.8613 22.0059C25.4761 22.2425 25.1936 22.5878 24.901 22.9341C24.5506 23.3486 24.1421 23.7099 23.7591 24.0949C23.7359 24.1181 23.714 24.1437 23.6996 24.1805C23.9001 24.0997 24.0853 23.9914 24.2514 23.8506C24.5897 23.5633 24.9354 23.2881 25.3067 23.0478C25.8381 22.7034 26.4285 22.5399 27.0385 22.4393C27.3107 22.3943 27.5857 22.3658 27.8607 22.3421C27.9631 22.3334 28.0696 22.3518 28.172 22.3721C28.2809 22.3938 28.3018 22.5051 28.2073 22.5926C27.8598 22.9133 27.5196 23.2436 27.1269 23.5077C26.462 23.9541 25.7013 24.1399 24.9591 24.3759C24.7502 24.4422 24.5371 24.448 24.3203 24.4499C23.761 24.4547 23.2543 24.6264 22.7876 24.9558C22.1427 25.4109 21.4736 25.8269 20.7752 26.1896C20.7622 26.1964 20.751 26.2075 20.7124 26.2365C20.9851 26.2443 21.2051 26.1534 21.4187 26.0571C21.7984 25.8859 22.1632 25.6745 22.568 25.5715C23.131 25.4283 23.7019 25.3795 24.2821 25.425C24.7456 25.4612 25.1988 25.5672 25.6599 25.6204C25.7422 25.63 25.8525 25.6494 25.8646 25.7597C25.8758 25.8627 25.7832 25.8946 25.7041 25.9284C25.102 26.1882 24.505 26.4542 23.8703 26.6331C23.2683 26.8034 22.6824 26.8073 22.0822 26.6767C21.8124 26.6182 21.5369 26.5195 21.2694 26.5345C20.9036 26.5553 20.5351 26.5166 20.1671 26.608C19.8004 26.6989 19.4542 26.846 19.0974 26.9601C18.881 27.0293 18.6856 27.1676 18.4399 27.2958C18.7521 27.3195 19.0145 27.2551 19.2779 27.2314C20.0494 27.1628 20.7999 27.2237 21.5271 27.525C21.87 27.6672 22.226 27.7736 22.5764 27.896C22.5866 27.8999 22.5992 27.8979 22.6089 27.9028C22.6964 27.9477 22.8109 27.9729 22.8058 28.1054C22.8006 28.2307 22.6894 28.2554 22.6033 28.2747C22.36 28.3289 22.1125 28.3647 21.8677 28.4116C21.1084 28.5576 20.3574 28.5001 19.6143 28.3023C19.2914 28.2162 18.9848 28.0745 18.7047 27.8945C18.3706 27.6798 18.0156 27.6208 17.6359 27.5816C17.2367 27.5405 16.9184 27.7156 16.5773 27.8844C16.6704 27.9937 16.8049 28.0121 16.9198 28.0662C17.4465 28.3144 17.9281 28.6365 18.3878 28.9997C18.572 29.1453 18.7633 29.2793 18.9219 29.4563C18.988 29.5298 19.0276 29.6067 18.9838 29.7039C18.9373 29.8074 18.8466 29.8055 18.7549 29.7978C18.6274 29.7871 18.5218 29.7291 18.4353 29.6333C17.8583 28.9973 17.1329 28.5929 16.3889 28.2176C16.2256 28.1354 16.0832 28.1223 15.9082 28.221C15.4802 28.4624 15.0409 28.6844 14.6831 29.035C14.4416 29.2715 14.2197 29.5284 13.9847 29.7721C13.8954 29.865 13.7991 29.9511 13.6706 29.9878C13.5753 30.0149 13.4836 29.998 13.4292 29.925C13.3747 29.8519 13.4068 29.7615 13.4566 29.6841C13.6706 29.3489 13.9633 29.096 14.2653 28.8546C14.6761 28.5257 15.1065 28.2263 15.5709 27.9719C15.1908 27.7122 14.7064 27.6034 14.4147 27.7185C14.1197 27.835 13.8484 27.9947 13.5878 28.1852C13.0853 28.5523 12.5335 28.7956 11.9104 28.8667C11.3335 28.9325 10.763 28.9189 10.1912 28.8348C10.18 28.8333 10.1684 28.8348 10.1581 28.8319C10.06 28.8033 9.92597 28.8111 9.91015 28.6728C9.89433 28.5388 10.0027 28.4628 10.1065 28.4256C10.421 28.3124 10.7146 28.1494 10.9999 27.9811C11.6871 27.5758 12.4385 27.4704 13.203 27.4312C13.4636 27.4176 13.7256 27.5279 13.9936 27.4825C14.0178 27.4781 14.0475 27.4931 14.0736 27.4467C13.8689 27.3794 13.6711 27.3016 13.4673 27.2498C13.1128 27.1603 12.7764 27.0123 12.4251 26.9122C12.3166 26.8817 12.2115 26.859 12.1007 26.8629C11.6141 26.8798 11.1381 26.9495 10.6714 27.1091C9.88502 27.378 9.08797 27.4017 8.28999 27.156C7.80888 27.008 7.30776 26.9258 6.84991 26.6984C6.80524 26.6762 6.75592 26.6588 6.71823 26.6269C6.6168 26.5417 6.62797 26.4295 6.74801 26.3729C7.07744 26.2182 7.43246 26.1519 7.7819 26.0716C8.26627 25.9604 8.7618 25.9255 9.25315 25.97C9.87106 26.0257 10.4815 26.1413 11.038 26.4537C11.2665 26.5819 11.5168 26.5553 11.7569 26.5896C11.7755 26.5229 11.7364 26.5176 11.7066 26.5064C10.9785 26.2278 10.2782 25.8888 9.64028 25.4269C9.35784 25.2223 9.0354 25.1938 8.71714 25.141C8.32862 25.0767 7.93358 25.0922 7.5418 25.0709C7.00579 25.0419 6.48 24.9418 5.9961 24.6719C5.3861 24.3309 4.79936 23.9532 4.24846 23.5159C4.21775 23.4913 4.1875 23.4661 4.15819 23.4395C4.07909 23.367 4.01767 23.2669 4.04745 23.1682C4.07862 23.0642 4.19634 23.0947 4.28242 23.0942C4.76726 23.0893 5.23534 23.2151 5.71087 23.2862C6.7643 23.4444 7.67022 23.9324 8.51008 24.5819C8.61617 24.6642 8.73528 24.728 8.84788 24.8005C8.86649 24.8126 8.88324 24.8301 8.91489 24.8044C8.85905 24.7116 8.77204 24.6516 8.68829 24.5931C8.33792 24.3483 8.04246 24.0388 7.7349 23.7433C7.47945 23.4976 7.20167 23.2746 7.02393 22.9544C6.90063 22.7324 6.64984 22.7547 6.4707 22.6381C6.12964 22.4166 5.71413 22.3851 5.36144 22.1931C4.8203 21.8981 4.24799 21.65 3.78223 21.2287C3.44443 20.9235 3.1499 20.568 2.867 20.2058C2.71718 20.0137 2.57526 19.8154 2.42683 19.6225C2.37239 19.5518 2.31563 19.4749 2.36309 19.3908C2.41148 19.3047 2.50966 19.3265 2.59062 19.34C2.88422 19.3893 3.14246 19.5354 3.40814 19.6621C3.83435 19.8657 4.26986 20.0457 4.66536 20.3165C5.14787 20.6469 5.55221 21.056 5.89327 21.5373C6.02774 21.7269 6.16407 21.915 6.30226 22.1017C6.33716 22.1491 6.37159 22.2028 6.46325 22.226C6.30645 21.9716 6.15663 21.7414 6.01983 21.5029C5.81417 21.1441 5.61223 20.7823 5.40564 20.4244C5.09064 19.8783 4.72213 19.384 4.19309 19.0135C3.5682 18.5758 3.09825 17.9785 2.74928 17.2694C2.40031 16.5604 2.24397 15.7933 2.03273 15.0412C2.00947 14.9575 1.95503 14.8395 2.07461 14.7805C2.18162 14.7278 2.27329 14.7776 2.36076 14.8545C3.35463 15.728 4.03256 16.8172 4.42527 18.1028C4.51135 18.3848 4.64117 18.6455 4.79518 18.897C4.73515 18.6546 4.68769 18.4085 4.61325 18.171C4.45458 17.6656 4.36478 17.1437 4.30895 16.6204C4.25358 16.1014 4.02744 15.655 3.8376 15.1906C3.80876 15.12 3.74361 15.0644 3.6915 15.0059C3.3067 14.5749 3.13036 14.0366 2.97169 13.4915C2.78185 12.8391 2.79348 12.1649 2.79907 11.4926C2.80139 11.2386 2.81954 10.9867 2.85537 10.7356C2.86514 10.6679 2.87724 10.5988 2.9005 10.5354C2.94703 10.4092 3.04381 10.3908 3.12664 10.4962C3.24203 10.6433 3.33555 10.8077 3.40209 10.9842C3.61985 11.5603 3.83109 12.1392 3.99022 12.7365C4.11352 13.1989 4.12702 13.6753 4.15912 14.1503C4.17261 14.3515 4.17773 14.5483 4.15586 14.7491C4.12795 15.0083 4.27731 15.2322 4.30755 15.4833L4.30848 15.477ZM7.54646 26.6109C8.05084 26.7521 8.55289 26.9006 9.07495 26.9722C9.61376 27.0462 10.1265 26.962 10.6262 26.7463C9.60212 26.6481 8.57336 26.6863 7.54646 26.6109ZM22.2395 4.08672C22.2516 4.07898 22.2632 4.07124 22.2753 4.0635C22.38 4.20086 22.4721 4.34693 22.5536 4.50267C22.6373 4.66324 22.729 4.81947 22.8406 5.02019C22.6638 4.22746 22.3572 3.57548 21.7342 3.12278C21.7654 3.76073 22.3339 4.87654 22.7964 5.20543C22.6103 4.83059 22.4247 4.45914 22.2395 4.08672ZM28.7117 10.5252C28.1543 11.525 27.904 12.559 27.9989 13.7203C28.2399 12.6403 28.4716 11.6019 28.7117 10.5252ZM5.64806 21.9842C5.50056 21.7714 3.32578 20.1376 3.16665 20.0911C3.23691 20.1714 3.29321 20.2406 3.35416 20.3054C3.65102 20.6212 3.90461 20.9854 4.28708 21.2069C4.63 21.4057 4.97013 21.6098 5.31258 21.8081C5.42193 21.8715 5.53592 21.9257 5.64806 21.9842ZM29.5688 14.6751C29.0598 15.6782 28.5358 16.7079 27.9621 17.7091C28.7401 16.8235 29.3957 15.8673 29.5688 14.6751ZM5.14042 23.722C5.99982 24.4364 7.2938 24.8939 7.92939 24.729C6.99555 24.4397 6.07194 24.0702 5.14042 23.722ZM8.11923 24.6685C7.21796 24.0006 6.21479 23.619 5.11344 23.5126C6.08637 23.9793 7.13421 24.2356 8.11923 24.6685ZM3.26204 11.554C3.25087 12.0933 3.70872 14.2683 3.86133 14.4197C3.8832 13.418 3.67056 12.4551 3.26204 11.554ZM4.13399 18.3108C3.83388 17.2332 3.33183 16.2803 2.57061 15.5311C2.95448 16.513 3.70034 17.3159 4.13399 18.3108ZM24.6981 25.9739C23.7777 26.1959 22.8272 26.1205 21.9426 26.2801C22.8811 26.637 23.7982 26.3783 24.6981 25.9739ZM26.7896 21.0875C27.6699 20.5936 28.4912 20.0302 28.9886 19.0851C28.306 19.812 27.4922 20.3833 26.7896 21.0875ZM26.3034 18.184C26.5127 16.927 26.1503 15.9176 25.6915 15.3391C26.0144 16.26 26.1898 17.2148 26.3034 18.184ZM28.8713 10.6549C28.6633 11.6768 28.3562 12.6742 28.1715 13.7329C28.2957 13.5418 28.3804 13.3629 28.4581 13.1801C28.7987 12.3762 28.8132 11.5119 28.8713 10.6549ZM10.1125 24.6051C9.88642 23.6272 9.32713 22.3895 8.91721 21.9779C9.30108 22.8538 9.51744 23.811 10.1125 24.6051ZM24.7335 24.0572C25.4146 24.032 27.0464 23.2581 27.3819 22.8214C26.5355 23.2852 25.5901 23.5097 24.7335 24.0572ZM26.5821 13.8175C26.3936 12.8608 25.8837 12.1339 25.1108 11.5525C25.3183 11.9903 25.6064 12.3303 25.8665 12.6887C26.1293 13.0504 26.3797 13.4171 26.5821 13.8175ZM2.6069 15.949C2.62784 16.6257 3.68964 18.3732 4.20658 18.6039C3.6808 17.7279 3.04195 16.9052 2.6069 15.949ZM10.9575 28.5562C11.8746 28.6578 12.7056 28.4382 13.4734 27.8084C12.5981 28.0425 11.8118 28.4227 10.9575 28.5562ZM7.00765 11.3973C6.68334 11.7745 5.47311 13.6541 5.40797 13.8823C6.04961 13.2821 6.92157 11.9274 7.00765 11.3973ZM24.6962 25.8395C23.8299 25.6165 22.9947 25.6997 22.1855 26.0769C23.0207 25.9947 23.8615 25.9749 24.6962 25.8395ZM25.4468 7.72676C25.4649 6.77008 25.0903 5.92318 24.6967 5.08209C24.9 5.97832 25.0815 6.88132 25.4468 7.72676ZM24.458 22.1689C24.8265 21.2558 25.1718 20.3354 24.9131 19.3235C24.8358 20.2754 24.5971 21.2118 24.458 22.1689ZM22.9486 8.31925C23.1989 8.74681 24.8023 9.92356 25.2913 10.0387C24.9615 9.718 23.3399 8.52819 22.9486 8.31925ZM5.57687 18.2382C5.78253 17.3231 6.22363 16.4578 6.10451 15.4383C5.90444 16.3911 5.54058 17.2719 5.57687 18.2382ZM20.2987 6.0973C21.0679 6.75267 21.9585 6.76427 22.8192 6.88857C22.823 6.87503 22.8267 6.86101 22.8304 6.84746C22.0017 6.60225 21.173 6.35606 20.2987 6.0973ZM5.43309 18.0254C5.41448 17.0948 5.79137 16.2537 5.98726 15.3827C5.43914 16.1739 5.21673 17.0503 5.43309 18.0254ZM21.6844 28.0933C20.7622 28.0745 19.8749 27.8172 18.9736 27.6643C19.8297 28.1489 20.7389 28.2573 21.6844 28.0933ZM29.3203 14.8163C28.6191 15.4978 28.2106 16.3534 27.9631 17.328C28.4814 16.5072 28.8476 15.6274 29.3203 14.8163ZM19.9489 24.181C19.2062 24.7768 18.5962 25.4869 18.1905 26.3725C18.74 25.6102 19.4338 24.9732 19.9489 24.181ZM7.31009 5.0492C6.98206 6.01169 6.76942 6.95871 6.46744 7.87718C6.90203 7.00127 7.31334 6.11762 7.31009 5.0492ZM5.32794 13.6294C5.7937 12.9305 6.18082 12.1779 6.67775 11.4998C5.98307 12.0435 5.53918 12.7578 5.32794 13.6294ZM21.6835 24.3807C22.2288 23.647 22.5112 22.7774 22.8881 21.9571C22.3609 22.6966 21.8938 23.4681 21.6835 24.3807ZM10.3094 26.5461C9.69797 26.1519 8.04246 26.3014 7.61997 26.4663C8.50868 26.4658 9.396 26.5122 10.3094 26.5461ZM8.78088 22.1506C8.75575 23.0332 9.15358 23.7747 9.79382 24.3986C9.32806 23.6896 9.14009 22.848 8.78088 22.1506ZM13.4766 26.1122C13.016 25.3161 12.4479 24.6153 11.7513 24.0272C12.2692 24.7725 12.8271 25.483 13.4766 26.1122ZM27.012 10.1548C27.0418 9.16663 26.912 8.2172 26.9162 7.26196C26.7026 8.22639 26.7384 9.17969 27.012 10.1548ZM25.3216 9.86649C24.7735 8.96833 23.9527 8.48369 22.9635 8.18866C23.7773 8.74971 24.679 9.11197 25.3216 9.86649ZM11.6401 24.1205C12.0021 25.1488 12.6591 25.8777 13.505 26.4416C12.7931 25.7606 12.2166 24.9611 11.6401 24.1205ZM3.41977 20.0224C4.0521 20.5332 4.71654 20.9946 5.39587 21.4744C5.22139 21.0343 4.30615 20.3644 3.41977 20.0224ZM24.7488 19.2534C24.3701 20.0819 24.3338 20.9801 24.3235 21.8831C24.4655 21.0028 24.7558 20.1496 24.7488 19.2534ZM22.6769 6.65255C22.0273 6.17904 21.3238 5.9227 20.5207 6.06635C21.2372 6.26949 21.9682 6.41604 22.6769 6.65255ZM7.31381 21.7419C7.35103 20.7673 7.27193 19.8058 6.98857 18.8239C6.97461 19.8401 7.16445 20.7881 7.31381 21.7419ZM13.8726 2.46935C13.1221 2.58252 12.4832 2.8969 12.0337 3.55275C12.6405 3.18033 13.2398 2.79437 13.8726 2.46935ZM7.09791 21.3931C6.94111 20.5433 6.86061 19.6858 6.84526 18.821C6.68008 19.7018 6.6289 20.5719 7.09791 21.3931ZM20.2685 3.97692C19.5985 3.41346 18.8024 3.1281 17.9937 2.86934C18.7028 3.34574 19.4863 3.65771 20.2685 3.97692ZM22.9709 22.0311C22.7294 22.8746 22.3377 23.6422 21.8961 24.3856C22.5331 23.7384 22.9281 22.9709 22.9709 22.0311ZM19.9274 24.5529C19.4398 25.1933 18.8401 25.7282 18.3859 26.3942C19.0443 25.9096 19.6008 25.3326 19.9274 24.5529ZM24.9447 23.7341C25.6529 23.3684 26.409 23.1222 27.119 22.7663C26.2996 22.862 25.5594 23.1484 24.9447 23.7341ZM8.8544 8.42082C8.45797 8.52287 7.02021 9.4399 6.75453 9.76153C7.52691 9.38137 8.22672 8.96204 8.8544 8.42082ZM21.6393 27.9347C21.1028 27.6285 20.0898 27.4747 19.2616 27.5729C20.0419 27.6953 20.8152 27.8689 21.6393 27.9347ZM26.8789 20.7581C27.408 20.1961 28.0836 19.8062 28.5684 19.1925C27.8998 19.5891 27.2577 20.0176 26.8789 20.7581ZM10.2475 3.39072C9.74543 3.98031 9.47417 4.71741 9.06611 5.36697C9.62399 4.81269 10.0204 4.15588 10.2475 3.39072ZM12.9504 27.8031C12.1691 27.7847 11.4549 28.0106 10.7816 28.4474C11.5461 28.3419 12.2236 27.9855 12.9504 27.8031ZM4.92546 8.08564C4.82589 8.89723 4.81984 9.71655 4.73515 10.5296C4.98455 9.73058 5.10553 8.92093 4.92546 8.08564ZM11.8262 3.96919C12.3227 3.83618 13.9121 2.82484 14.028 2.58204C13.2756 2.98928 12.5139 3.41249 11.8262 3.96919ZM24.9084 11.5632C25.2783 12.4966 25.919 13.2444 26.4788 14.0478C26.0814 13.1331 25.4086 12.4072 24.9084 11.5632ZM11.9025 5.99235C11.079 5.8192 10.3294 6.047 9.60491 6.41362C10.3629 6.23321 11.1362 6.13986 11.9025 5.99235ZM4.75981 7.9033C4.46017 8.75213 4.45412 9.62514 4.55462 10.5073C4.6286 9.63965 4.6863 8.77051 4.75981 7.9033ZM27.1111 7.56087C27.0818 7.9802 27.1697 9.70156 27.2353 9.85101C27.3433 9.07908 27.3289 8.31296 27.1111 7.56087ZM19.9354 3.54018C19.3775 2.89594 18.647 2.68119 17.8518 2.6275C18.566 2.88336 19.2849 3.12568 19.9354 3.54018ZM3.64451 14.3641C3.4649 13.4983 3.16339 12.6601 3.11268 11.7649C3.05777 12.6838 3.19782 13.5583 3.64451 14.3641ZM9.49883 6.62933C10.2368 6.52631 11.0138 6.65738 11.695 6.21773C10.9668 6.37783 10.2135 6.38798 9.49883 6.62933ZM8.91163 8.14175C8.08061 8.31248 7.41757 8.7676 6.88807 9.44473C7.48783 8.88707 8.21741 8.54754 8.91163 8.14175ZM24.4864 5.0729C24.4185 5.59961 24.7898 6.95532 25.1299 7.43173C24.8824 6.65545 24.7293 5.85063 24.4864 5.0729ZM26.12 18.2498C26.0409 17.414 25.8972 16.5962 25.6292 15.7585C25.6352 16.6552 25.9167 17.446 26.12 18.2498ZM7.03045 5.29539C6.65402 5.81581 6.37345 7.06221 6.39067 7.64019C6.60098 6.86923 6.81129 6.09875 7.03045 5.29539ZM14.8171 4.41657C14.1694 4.47945 13.5213 4.54233 12.8736 4.6052C13.538 4.7416 14.1876 4.69565 14.8171 4.41657ZM19.3793 4.5757C18.7768 4.37933 18.1724 4.2028 17.5405 4.44414C18.1584 4.41222 18.7679 4.5046 19.3793 4.5757ZM17.6159 4.53894C18.1789 4.71161 18.7554 4.74788 19.3393 4.7058C18.7656 4.64003 18.1975 4.51911 17.6159 4.53894ZM8.98282 5.24412C9.26013 4.70484 9.59328 4.20038 9.89433 3.67609C9.57793 3.90486 9.03958 4.83446 8.98282 5.24412ZM13.036 4.42625C13.6292 4.36966 14.2206 4.29469 14.8162 4.26374C14.2099 4.15927 13.6227 4.28985 13.036 4.42625Z" fill="url(#paint0_linear_181_1046)"/>
<path d="M22.1765 14.6326C22.1373 14.4955 22.1022 14.3702 22.0694 14.2494C21.9767 13.9091 21.9472 13.5851 21.9785 13.2581C22.0173 12.8518 21.9365 12.4607 21.7381 12.0952C21.7141 12.0509 21.7105 12.0208 21.7238 11.9784C21.7907 11.7702 21.8526 11.5409 21.9135 11.2766C22.0113 10.851 22.0911 10.4653 22.0819 10.0595C22.0764 9.82719 21.9808 9.63288 21.806 9.49776C21.4281 9.20581 20.9265 9.24279 20.5851 9.58702C20.5708 9.60132 20.556 9.61562 20.5394 9.63239C20.5209 9.65064 20.5025 9.66889 20.484 9.68763C20.0549 10.128 19.7734 10.5497 19.5976 11.0142C19.5427 11.1597 19.5067 11.3116 19.4717 11.46C19.4578 11.5177 19.444 11.5774 19.4288 11.6356C19.3226 12.0454 19.3905 12.4138 19.6308 12.7304C19.6622 12.7714 19.6761 12.8093 19.6761 12.8522C19.677 13.083 19.7153 13.2778 19.7923 13.4475C19.826 13.522 19.8016 13.5673 19.7674 13.6305C19.7573 13.6497 19.7453 13.6714 19.7356 13.6946C19.7333 13.6946 19.7305 13.6946 19.7268 13.6946C19.6447 13.6896 19.563 13.6955 19.4841 13.7015C19.4241 13.7059 19.3618 13.7108 19.3014 13.7103C19.0379 13.7059 18.7657 13.768 18.4685 13.8948C18.1663 14.024 17.8655 14.2075 17.4936 14.49C16.8194 15.0019 16.2616 15.3185 15.6853 15.5173C15.0642 15.7313 14.5557 16.0918 14.1732 16.5899C14.1363 16.6378 14.0883 16.6738 14.0371 16.7117C13.9707 16.761 13.9019 16.8123 13.8548 16.8937C13.8378 16.9233 13.8285 16.9292 13.7843 16.9144C13.5683 16.8419 13.3902 16.7862 13.2236 16.7403C13.1664 16.7245 13.148 16.7048 13.141 16.6521C13.13 16.5682 13.0963 16.4868 13.0414 16.4089C12.9685 16.3063 12.902 16.1954 12.837 16.0874C12.7493 15.9414 12.6589 15.7905 12.55 15.6549C12.5334 15.6342 12.5297 15.6199 12.5435 15.5789C12.6819 15.1612 12.7202 14.7203 12.657 14.2686C12.5509 13.5121 11.9257 13.3567 11.5625 13.3311C11.4495 13.3227 11.3701 13.3829 11.3392 13.4988C11.3138 13.5925 11.2954 13.6714 11.2811 13.7468C11.2405 13.9559 11.2059 14.1685 11.1722 14.3746C11.0988 14.8259 11.0227 15.2924 10.8829 15.7343C10.7989 16.0011 10.8469 16.2516 11.0259 16.4794C11.0379 16.4947 11.049 16.5105 11.0605 16.5263C11.0771 16.5495 11.0942 16.5731 11.1136 16.5958C11.3111 16.8286 11.4919 17.0974 11.683 17.4421C11.7831 17.6226 11.88 17.7755 11.9787 17.9101C12.1379 18.1261 12.3336 18.281 12.5781 18.383C12.7128 18.4393 12.8527 18.4728 12.9888 18.5049C13.0497 18.5192 13.1184 18.5354 13.1835 18.5537C13.3141 18.5902 13.4483 18.6232 13.5785 18.6558L13.6366 18.6701C13.5803 18.6893 13.5212 18.6888 13.4548 18.6681C13.3911 18.6484 13.3261 18.6316 13.2624 18.6148C13.2273 18.606 13.1923 18.5966 13.1576 18.5872L13.1037 18.5724C12.7336 18.4708 12.3511 18.3658 11.9584 18.35C11.8721 18.3466 11.8302 18.3165 11.7979 18.2351C11.7836 18.1991 11.7697 18.1631 11.7559 18.1276L11.7508 18.1143C11.7217 18.0388 11.6913 17.9604 11.6599 17.8845C11.5201 17.5471 11.3434 17.1625 11.0171 16.874C10.6337 16.5347 10.2899 16.4415 9.9019 16.5722C9.75886 16.6205 9.63981 16.7285 9.57567 16.8681C9.51477 17.0007 9.50692 17.1501 9.55445 17.2882C9.58536 17.3785 9.61628 17.4687 9.64719 17.559L9.66011 17.597C9.76624 17.9071 9.8756 18.2282 9.99003 18.5448C10.0297 18.6543 10.0675 18.7652 10.104 18.8733C10.1995 19.1529 10.2978 19.4424 10.4298 19.7136C10.5825 20.0273 10.8289 20.2048 11.1625 20.2403C12.0083 20.331 12.9906 20.443 13.9444 20.6225C14.0703 20.6462 14.1889 20.625 14.307 20.5574C14.5465 20.4198 14.762 20.2492 14.9415 20.0997C15.0928 19.974 15.2663 19.8758 15.4343 19.7817C15.3706 19.8837 15.3069 19.9898 15.2594 20.1057C15.2576 20.1057 15.2548 20.1067 15.2511 20.1071L15.2414 20.1091C15.025 20.1584 14.8114 20.2576 14.5691 20.4208C14.3924 20.5396 14.1958 20.6274 13.949 20.697C13.5272 20.8158 13.1784 20.9795 12.8826 21.1975C12.4194 21.5388 12.1638 22.0581 11.9603 22.5177C11.8375 22.7959 11.8915 23.0627 12.1208 23.3107C12.1914 23.3872 12.2745 23.4523 12.3677 23.5045C12.5301 23.5953 12.7151 23.6411 12.8983 23.6411C13.0709 23.6411 13.2416 23.6007 13.3897 23.5188C13.7603 23.3147 14.1082 23.0972 14.4233 22.8723C14.6434 22.715 14.8427 22.6198 15.0504 22.5715C15.1703 22.5439 15.2783 22.4822 15.3812 22.3836C15.5589 22.2124 15.7499 22.0517 15.9349 21.8963C15.994 21.847 16.053 21.7972 16.1116 21.7474C16.1864 21.6838 16.2528 21.6502 16.3271 21.6379C16.4674 21.6152 16.5823 21.5403 16.6686 21.415C16.7156 21.3465 16.7641 21.2779 16.8111 21.2113C16.8596 21.1433 16.9094 21.0723 16.9579 21.0022C17.0991 20.7961 17.2684 20.6008 17.5471 20.5648C17.7072 20.5441 17.727 20.547 17.8032 20.695C17.9762 21.0333 18.2535 21.2138 18.6273 21.2311C19.0938 21.2523 19.534 21.1018 19.9354 20.7823C20.0604 20.6827 20.1453 20.5475 20.1942 20.37C20.2238 20.263 20.2353 20.1574 20.2464 20.0396L20.2478 20.0253C20.2505 19.9927 20.2528 19.9666 20.2681 19.9474C20.5435 19.5938 20.6547 19.1741 20.7207 18.8486C20.7272 18.8165 20.7327 18.784 20.7382 18.7524C20.7567 18.6439 20.7742 18.5418 20.8268 18.4551C20.9759 18.2104 21.0479 17.987 21.0529 17.7518C21.0529 17.7405 21.0529 17.7291 21.0529 17.7173C21.0529 17.665 21.0539 17.6157 21.0695 17.5703C21.2633 17.019 21.4876 16.4425 21.9024 15.9838C22.236 15.6149 22.3283 15.1617 22.1774 14.6355L22.1765 14.6326ZM20.801 16.9785L20.7659 17.1413L21.1332 16.7601C20.9699 17.1945 20.8291 17.6394 20.693 18.0699L20.688 18.0852L20.7507 18.1138C20.7438 18.1286 20.7359 18.1429 20.7272 18.1562C20.6298 18.3106 20.5929 18.4817 20.5564 18.6503C20.5481 18.6883 20.5398 18.7268 20.5311 18.7648C20.4729 19.0099 20.3963 19.2924 20.2662 19.5553C20.2533 19.105 20.1093 18.7219 19.9617 18.3668L19.946 18.3283L19.8339 18.3594L19.8463 18.4077C19.8574 18.4516 19.8685 18.496 19.8796 18.5399C19.9035 18.6346 19.928 18.7327 19.9543 18.8299C19.9884 18.9561 20.0138 19.0853 20.0309 19.218C20.0087 19.1371 19.9765 19.0547 19.934 18.9709C19.7264 18.5631 19.3821 18.3194 18.9106 18.2479C18.732 18.2208 18.5664 18.2233 18.4072 18.2563C18.7574 17.8805 19.2391 17.7779 19.8034 17.9599L20.1347 18.0669L19.8168 17.8549C19.7296 17.7962 19.6392 17.736 19.5316 17.7099C19.204 17.632 18.8824 17.702 18.5184 17.9298C18.4418 17.9782 18.3716 18.0403 18.3043 18.1202C18.1963 18.2489 18.0883 18.3732 17.9573 18.4763C17.7686 18.6247 17.6209 18.8303 17.4917 19.1238C17.4843 19.1405 17.4765 19.1573 17.4682 19.1741L17.4188 19.0671L17.3851 19.073C17.3625 19.0769 17.345 19.0883 17.3344 19.1055C17.3182 19.1317 17.3247 19.1588 17.3279 19.1736C17.3658 19.3457 17.3644 19.5208 17.357 19.684C17.3478 19.8887 17.4036 20.0854 17.5226 20.2689C17.53 20.2802 17.5379 20.2911 17.5462 20.3019C17.5545 20.3133 17.5623 20.3236 17.5692 20.335C17.5637 20.3365 17.5582 20.337 17.5531 20.3374C17.1784 20.367 16.9579 20.6353 16.7922 20.8942C16.7235 21.0012 16.6473 21.1137 16.5454 21.2597L16.5389 21.2685C16.5061 21.3159 16.4775 21.3563 16.4328 21.3657C16.0913 21.4347 15.8454 21.668 15.6078 21.8939L15.5593 21.9397C15.5455 21.953 15.5312 21.9659 15.5169 21.9792C15.486 22.0073 15.4541 22.0359 15.4246 22.068C15.2663 22.2376 15.0661 22.351 14.8289 22.4043C14.6882 22.4359 14.5544 22.5009 14.3942 22.6159C14.0214 22.8827 13.7303 23.0755 13.4506 23.2402C13.159 23.4123 12.8633 23.4523 12.5716 23.3595C12.3829 23.2994 12.238 23.1667 12.1407 22.964C12.0853 22.8486 12.0872 22.7189 12.1467 22.5789C12.519 21.6971 13.0884 21.1625 13.8885 20.9455C14.2212 20.8553 14.4658 20.7473 14.6817 20.5959C14.8543 20.4745 15.0453 20.3789 15.2488 20.3113C15.3549 20.2763 15.4435 20.2581 15.5275 20.2541C15.5487 20.2531 15.569 20.2526 15.5879 20.2526C15.7074 20.2526 15.7951 20.2714 15.8666 20.3113C15.9723 20.3705 16.0512 20.481 16.1315 20.6812C16.1624 20.7581 16.1758 20.8439 16.1919 20.944C16.1961 20.9702 16.2002 20.9968 16.2053 21.0244L16.2381 21.2163L16.2944 21.0308C16.3959 20.6965 16.2639 20.4593 16.1213 20.2709C15.9428 20.0356 15.7014 20.0268 15.5247 20.048C15.5616 19.9661 15.6018 19.898 15.6498 19.8354C15.8283 19.6026 16.0212 19.358 16.2487 19.1514C16.5204 18.9043 16.8014 18.8535 17.1078 18.996C17.1309 19.0069 17.166 19.0232 17.1987 19.0079C17.2112 19.0025 17.2278 18.9901 17.237 18.964C17.2476 18.9329 17.2527 18.8733 17.1637 18.8259C16.9353 18.7021 16.6995 18.6859 16.4632 18.7776C16.5564 18.6 16.6455 18.495 16.7631 18.4215C16.765 18.42 16.7691 18.4186 16.7728 18.4171C16.7908 18.4097 16.8181 18.3983 16.8305 18.3673C16.8379 18.348 16.837 18.3263 16.8277 18.3051C16.8056 18.2519 16.7613 18.2395 16.6967 18.2696L16.6902 18.2726C16.5638 18.3288 16.4563 18.4255 16.3793 18.5522C16.0743 19.0537 15.6705 19.4394 15.1782 19.6978C15.0084 19.7871 14.8534 19.904 14.7029 20.0174C14.6485 20.0583 14.5922 20.1007 14.5364 20.1412C14.2461 20.3503 13.967 20.4208 13.6578 20.3631C13.0926 20.2576 12.5144 20.1831 11.9534 20.1116C11.6825 20.0771 11.4029 20.0411 11.1256 20.0016C10.8718 19.9656 10.6831 19.8034 10.5645 19.5198C10.4367 19.2145 10.3241 18.9019 10.2106 18.5813C10.2466 18.5828 10.2756 18.5729 10.2973 18.5517C10.3255 18.5241 10.3365 18.4817 10.3296 18.426C10.2844 18.0536 10.2175 17.7607 10.1183 17.5042C10.0519 17.3331 9.92081 17.1901 9.74917 17.1028C9.69887 17.0772 9.69933 17.0643 9.72333 17.0101C9.77362 16.8976 9.85575 16.8178 9.96834 16.7724C10.2498 16.6595 10.5174 16.7186 10.7864 16.9534C11.0564 17.1886 11.2728 17.4978 11.4481 17.8978C11.6248 18.3007 11.7854 18.6987 11.8154 19.1401C11.8168 19.1603 11.8269 19.1726 11.8338 19.181C11.8357 19.1835 11.8385 19.1864 11.8412 19.1904L11.8957 19.2678L11.922 19.1756C11.952 19.071 11.9566 18.9694 11.9515 18.8718C11.963 18.9369 11.9653 19.0207 11.9598 19.1317C11.9543 19.2436 11.9151 19.3487 11.874 19.4596C11.8523 19.5178 11.8302 19.578 11.8108 19.6431L11.7489 19.8512L11.8888 19.6914C12.1804 19.358 12.2168 18.9285 11.988 18.5626L11.9995 18.5645C12.5527 18.6444 13.0492 18.7288 13.5245 18.9541C13.6306 19.0044 13.7409 19.0646 13.8816 19.1479C13.9314 19.1775 13.9596 19.2288 13.99 19.2831C14.0103 19.3196 14.0311 19.357 14.0597 19.3916L14.1534 19.504L14.1382 19.3319C14.1331 19.2693 14.1275 19.2047 14.1022 19.1391C14.2157 19.1662 14.308 19.2318 14.4049 19.3013L14.409 19.3043C14.4205 19.3127 14.4321 19.321 14.4436 19.3289C14.5747 19.4216 14.5834 19.5804 14.5927 19.7491L14.6005 19.8916L14.6757 19.7876C14.7348 19.7062 14.7601 19.6031 14.7472 19.4981C14.7329 19.3797 14.6711 19.2683 14.5774 19.1923C14.3864 19.036 14.1921 18.9448 13.984 18.9132C13.9061 18.9014 13.8322 18.8777 13.7584 18.8407C14.2291 18.5201 14.7463 18.208 15.3397 18.0733L15.461 18.0457L15.3526 17.9816C15.2322 17.9106 15.1302 17.9308 15.0273 17.9599C14.9521 17.9811 14.8783 18.0043 14.8067 18.0285C14.8377 17.9259 14.8257 17.7927 14.7717 17.6458L14.9392 17.7395L14.9567 17.6852C14.9798 17.6142 14.9373 17.5738 14.9198 17.5575L14.9156 17.5536C14.6692 17.304 14.4496 17.161 14.2046 17.091C14.1691 17.0806 14.1345 17.0663 14.0976 17.051C14.0736 17.0412 14.0486 17.0308 14.0237 17.0214C14.0316 17.0116 14.0394 17.0012 14.0473 16.9913C14.0726 16.9578 14.0971 16.9258 14.1326 16.906C14.2189 16.8577 14.2807 16.7818 14.3407 16.7083L14.3684 16.6747C14.7108 16.2625 15.1302 15.9651 15.6161 15.791C15.9483 15.6721 16.299 15.54 16.6164 15.3496C16.6575 15.325 16.6981 15.3008 16.7392 15.2766L16.7507 15.2697C17.0215 15.1094 17.3012 14.9437 17.5503 14.7302C17.787 14.527 17.9818 14.3973 18.1811 14.3105C18.2572 14.2775 18.3278 14.2385 18.3901 14.1951C18.6102 14.0427 18.8737 13.9609 19.2197 13.9382C19.3212 13.9313 19.4228 13.9239 19.534 13.916L19.5819 13.9125C19.3858 14.1473 19.2063 14.3875 19.1261 14.7055L19.0522 14.9965L19.2087 14.746C19.2216 14.7253 19.235 14.7041 19.2483 14.6834L19.2516 14.6784C19.2816 14.6311 19.3129 14.5818 19.342 14.532C19.3563 14.5078 19.3702 14.4851 19.3831 14.4639C19.3171 14.6641 19.3051 14.8777 19.3517 15.0685C19.4011 15.2702 19.5123 15.4285 19.665 15.5138L19.7933 15.5829L19.7356 15.4532C19.7111 15.3984 19.6853 15.3452 19.6599 15.2934C19.5898 15.1499 19.5233 15.0143 19.498 14.8609C19.4698 14.6912 19.5127 14.5329 19.5579 14.3648C19.569 14.3233 19.5806 14.2809 19.5907 14.2385L19.6082 14.167C19.6249 14.1502 19.6405 14.1359 19.6553 14.1236C19.7757 14.02 19.8602 13.8839 19.9132 13.7074C19.9575 13.7685 19.9769 13.844 19.9977 13.9239C20.012 13.9796 20.0272 14.0373 20.0512 14.0925L20.0872 14.1759L20.1324 14.0975C20.1504 14.0659 20.1559 14.0348 20.1573 14.0072C20.3202 14.1527 20.5126 14.2089 20.6972 14.2479L20.9791 14.3071L20.729 14.1567C20.5015 14.0196 20.2851 13.877 20.1338 13.6374C19.9995 13.4243 19.9192 13.193 19.8897 12.9307C19.9266 12.9489 19.9857 12.9701 20.0194 12.907C20.0641 12.8227 19.9838 12.7724 19.9497 12.7507C19.9386 12.7437 19.9271 12.7364 19.9202 12.7304C19.6622 12.4937 19.5593 12.1899 19.6064 11.8018C19.6973 11.0478 20.0475 10.3815 20.6778 9.76505C20.9325 9.516 21.2338 9.46718 21.5743 9.62105C21.7663 9.70735 21.8812 9.93864 21.8664 10.2099C21.848 10.5507 21.8055 10.8643 21.7368 11.1686C21.6103 11.7278 21.4216 12.259 21.2716 12.6589C21.2606 12.688 21.2518 12.7176 21.2421 12.7531C21.2375 12.7689 21.2343 12.7847 21.2292 12.8084C21.2264 12.8207 21.2232 12.8355 21.2195 12.8542L21.184 13.016L21.2966 12.9011C21.4682 12.726 21.5411 12.5199 21.6103 12.3201C21.6108 12.3221 21.6117 12.3241 21.6122 12.326C21.7294 12.6392 21.8383 13.014 21.758 13.4169C21.728 13.5683 21.7534 13.7197 21.7783 13.8686C21.7815 13.8884 21.7847 13.9081 21.788 13.9273C21.8355 14.2232 21.8946 14.4871 21.9684 14.7337C22.0999 15.1726 21.9919 15.5681 21.6385 15.9434C21.4151 16.1806 21.1568 16.4582 20.9182 16.7551C20.8702 16.8153 20.8227 16.8843 20.8019 16.9805L20.801 16.9785ZM19.0245 19.4976L19.0204 19.5149C19.1699 19.5987 19.2982 19.8162 19.3319 20.0435C19.3614 20.2408 19.3152 20.4159 19.2022 20.5367C19.1561 20.5865 19.1007 20.6171 19.0282 20.6343C18.7459 20.6999 18.4884 20.6575 18.1935 20.4977C18.0473 20.4055 17.9047 20.2299 17.8032 20.0159C17.7589 19.9232 17.7796 19.8394 17.8742 19.7264C18.1216 19.4315 18.6771 19.3284 19.0167 19.5139L19.0245 19.4976ZM18.1414 20.6679L18.1612 20.6792C18.391 20.8074 18.5765 20.8646 18.7685 20.8646C18.7888 20.8646 18.8091 20.8641 18.8298 20.8627C19.2723 20.8355 19.4892 20.625 19.5123 20.2013C19.5312 19.8571 19.4375 19.6012 19.235 19.4404C19.0259 19.2747 18.7357 19.2047 18.4381 19.2485C18.1432 19.2919 17.8775 19.4409 17.7086 19.6569C17.6029 19.793 17.5872 19.935 17.6606 20.0909C17.6694 20.1101 17.6791 20.1288 17.6887 20.1471C17.53 19.9281 17.5074 19.6663 17.6177 19.3289C17.7395 18.9576 17.9605 18.6908 18.2752 18.5359C18.7629 18.2963 19.4075 18.5088 19.7111 19.0094C19.8316 19.2081 19.9082 19.433 19.9451 19.6968L19.9769 19.9232L20.0351 19.7027C20.0443 19.6682 20.0512 19.6337 20.0563 19.5992C20.0577 19.7486 20.0494 19.9025 20.0314 20.0628C20.0014 20.3291 19.8883 20.5372 19.6954 20.6817C19.2917 20.983 18.8538 21.0728 18.3938 20.9485C18.194 20.8947 18.0542 20.7709 17.9776 20.5806C17.9674 20.5559 17.9564 20.5322 17.9448 20.5086C18.0081 20.5732 18.0745 20.6279 18.1414 20.6679ZM9.99649 17.6754C10.0362 17.8401 10.0722 18.0078 10.1068 18.1705L10.1081 18.1759C10.1229 18.245 10.1377 18.314 10.1529 18.3826C10.1571 18.4008 10.1584 18.4176 10.158 18.4338C10.1072 18.2903 10.0579 18.1429 10.0103 18.0004L10.0085 17.9944C9.94204 17.7952 9.87329 17.5896 9.799 17.3888C9.88667 17.4623 9.96603 17.5491 9.99649 17.6754ZM11.5667 14.3519C11.5441 14.5098 11.4855 14.6592 11.4287 14.8037C11.4163 14.8352 11.4038 14.8673 11.3918 14.8994C11.3577 14.8609 11.3295 14.8264 11.3304 14.7771C11.3337 14.5783 11.3683 14.386 11.4057 14.1798C11.419 14.1068 11.4324 14.0319 11.4449 13.9554C11.5252 14.0837 11.5888 14.2001 11.5667 14.3519ZM11.3877 15.0675C11.4481 15.0675 11.4965 15.0123 11.5602 14.9181C11.7351 14.6577 11.8523 14.2262 11.6082 13.8657C11.5981 13.8504 11.5884 13.8326 11.5791 13.8154C11.5635 13.7858 11.5468 13.7552 11.5233 13.7286C11.4896 13.6906 11.4961 13.6586 11.5205 13.59C11.5238 13.5811 11.527 13.5728 11.5298 13.5639C11.5353 13.5476 11.5441 13.5432 11.5958 13.5446C11.6059 13.5446 11.6161 13.5451 11.6257 13.5446C12.0138 13.5323 12.3585 13.8174 12.4434 14.2208C12.5057 14.5162 12.5006 14.8303 12.4286 15.1814L12.4175 15.2362C12.3908 15.3684 12.3626 15.505 12.3234 15.6366C12.263 15.8388 12.1448 15.9966 12.0193 16.1633C11.9907 16.2018 11.9607 16.2412 11.9321 16.2807C11.9289 16.2856 11.9247 16.2901 11.9201 16.296C11.9017 16.3187 11.8758 16.3497 11.8689 16.4045L11.8541 16.5169L11.9414 16.4518C12.1578 16.2896 12.3206 16.0884 12.4388 15.8364C12.538 15.968 12.6183 16.1076 12.6962 16.2422L12.7188 16.2812C12.7539 16.3419 12.7881 16.4045 12.8213 16.4651C12.8471 16.5125 12.873 16.5603 12.8997 16.6072C13.0404 16.8562 13.0178 17.1329 12.9855 17.3726C12.9828 17.3938 12.9777 17.4155 12.9726 17.4382C12.9699 17.45 12.9671 17.4623 12.9648 17.4746L12.9408 17.593L13.0354 17.5264C13.1655 17.4347 13.1899 17.306 13.1946 16.947C13.4663 17.0264 13.7132 17.1117 13.9471 17.2078C13.972 17.2182 13.997 17.2286 14.0219 17.2394C14.0916 17.269 14.1635 17.3001 14.2378 17.3223C14.4865 17.3972 14.5747 17.6191 14.6439 17.8401C14.6591 17.8879 14.6683 17.9397 14.6785 17.9949C14.6831 18.0191 14.6872 18.0433 14.6928 18.0684C14.4178 18.171 14.1746 18.2953 13.9494 18.4481C13.8862 18.4911 13.8369 18.4994 13.7663 18.4802C13.5429 18.4176 13.315 18.3599 13.094 18.3036L13.0903 18.3027C12.9994 18.2795 12.908 18.2563 12.8171 18.2331C12.5357 18.1606 12.2953 17.989 12.1024 17.7232C12.0226 17.6137 11.952 17.5042 11.892 17.3987C11.7102 17.0781 11.5039 16.7147 11.228 16.4065C11.0536 16.2112 11.0088 15.9818 11.0919 15.7047C11.108 15.6514 11.1256 15.5972 11.1436 15.5424C11.2012 15.3674 11.2608 15.1864 11.2686 14.9921C11.3064 15.0384 11.3434 15.0675 11.3877 15.0675Z" fill="url(#paint1_linear_181_1046)"/>
<path d="M20.4397 16.9642C20.3345 16.8784 20.2169 16.8212 20.1029 16.7665C20.0586 16.7453 20.0088 16.7211 19.9622 16.696C19.4071 16.3976 18.8294 16.3527 18.2448 16.5623C18.0796 16.6215 17.9199 16.6989 17.7649 16.7744C17.6574 16.8267 17.5462 16.8809 17.4345 16.9278C16.5975 17.2809 15.8819 17.3923 15.1833 17.2794C15.1565 17.2749 15.1302 17.2739 15.1039 17.273H15.1007C15.0905 17.2725 15.0809 17.272 15.0707 17.2715L14.9964 17.2666L15.0255 17.34C15.0347 17.3632 15.0472 17.379 15.0642 17.3884C15.0693 17.3913 15.0744 17.3933 15.0804 17.3953C15.3282 17.4707 15.5806 17.5087 15.8408 17.5087C16.1444 17.5087 16.4591 17.4569 16.789 17.3538C17.2061 17.2232 17.6117 17.0604 17.9947 16.8696C18.6642 16.5357 19.3453 16.5574 20.0208 16.9351L20.0858 16.9711C20.2635 17.0698 20.4314 17.163 20.5708 17.3124L20.7078 17.4594L20.6474 17.2621C20.6118 17.1457 20.5449 17.0505 20.4397 16.9642Z" fill="url(#paint2_linear_181_1046)"/>
<path d="M15.3106 16.4888C15.3305 16.5001 15.3494 16.4997 15.3605 16.4992H15.3637C15.384 16.4997 15.4038 16.5006 15.4241 16.5016C15.462 16.5031 15.504 16.5051 15.5459 16.5051C15.5616 16.5051 15.5773 16.5051 15.593 16.5041C16.2155 16.4804 16.8296 16.2891 17.5268 15.9014C17.8 15.7496 18.0556 15.5607 18.3038 15.3772C18.463 15.2593 18.6282 15.1375 18.7952 15.0276C18.8234 15.0088 18.846 14.9851 18.8681 14.962C18.8774 14.9526 18.8861 14.9432 18.8954 14.9339L18.9277 14.9028L18.8635 14.816L18.8289 14.8372C18.8169 14.8446 18.8045 14.852 18.792 14.8594L18.7888 14.8614C18.7597 14.8786 18.7293 14.8964 18.7002 14.9161L18.5654 15.0059C18.3532 15.1474 18.1128 15.3082 17.8826 15.464C17.1161 15.9833 16.2976 16.2851 15.45 16.3611C15.42 16.3635 15.3895 16.367 15.3549 16.3709L15.2289 16.3847L15.2746 16.4538C15.2848 16.4696 15.2972 16.4814 15.3106 16.4888Z" fill="url(#paint3_linear_181_1046)"/>
<path d="M21.7331 15.7022L21.7594 15.6213L21.6805 15.6376C21.6395 15.6465 21.6159 15.6746 21.5984 15.6958C21.5933 15.7017 21.5887 15.7076 21.5836 15.712C21.3931 15.8906 21.1854 16.0716 20.9307 16.149C20.6691 16.2284 20.3849 16.2299 20.0859 16.1529C19.9737 16.1238 19.8602 16.0913 19.75 16.0592L19.7389 16.0563C19.69 16.042 19.6411 16.0282 19.5926 16.0144L19.3674 15.9507L19.5529 16.1016C19.6037 16.1431 19.66 16.181 19.72 16.2146C19.9368 16.3359 20.1989 16.398 20.4665 16.398C20.6511 16.398 20.8384 16.3684 21.0147 16.3083C21.2168 16.2392 21.6801 15.8649 21.7331 15.7022Z" fill="url(#paint4_linear_181_1046)"/>
<path d="M20.1698 14.8007C20.2219 14.8397 20.2741 14.8737 20.3257 14.9023C20.4798 14.9886 20.6317 15.031 20.7895 15.0325C20.7936 15.0325 20.7973 15.0325 20.8015 15.0325C21.0372 15.0325 21.2606 14.9629 21.477 14.8954L21.5245 14.8806C21.572 14.8658 21.6297 14.8387 21.6523 14.7617L21.6754 14.6823L21.4428 14.7326C21.3256 14.7578 21.2103 14.7824 21.0949 14.8081C20.6833 14.8983 20.3617 14.7943 20.1116 14.49C20.1033 14.4796 20.0941 14.4727 20.084 14.4649C20.0793 14.4614 20.0738 14.457 20.0678 14.4515L19.9727 14.3712L19.9935 14.4984C20.0147 14.6281 20.0743 14.7297 20.1698 14.8007Z" fill="url(#paint5_linear_181_1046)"/>
<path d="M17.2813 17.272L17.2661 17.2754L17.2804 17.3706L17.2956 17.3691C17.8729 17.3105 18.3084 17.1522 18.6665 16.8706L18.9535 16.6447L18.5793 16.803C18.1603 16.98 17.7275 17.1635 17.2813 17.272Z" fill="url(#paint6_linear_181_1046)"/>
<path d="M15.8007 17.9081L15.7864 17.9131L15.8076 18.0058L15.8907 17.9915C16.275 17.9259 16.6728 17.8578 17.0663 17.8174L17.5047 17.7725L17.0673 17.7192C16.6829 17.6724 16.2926 17.7311 15.8007 17.9081Z" fill="url(#paint7_linear_181_1046)"/>
<path d="M14.8128 21.0061L14.6633 20.9997L14.7832 21.0954C15.0038 21.2709 15.1039 21.5116 15.1081 21.876L15.1108 22.1177L15.1967 21.8943C15.2816 21.6738 15.264 21.4194 15.1505 21.2305C15.0679 21.0924 14.948 21.012 14.8128 21.0061Z" fill="url(#paint8_linear_181_1046)"/>
<path d="M15.5187 18.1961L15.3189 18.2016L15.5007 18.2903C15.7171 18.3964 15.8242 18.6035 15.9234 18.8249L16.0041 19.0049L16.011 18.8057C16.0175 18.6247 15.9607 18.4555 15.8555 18.3421C15.7656 18.2449 15.6465 18.1927 15.5187 18.1961Z" fill="url(#paint9_linear_181_1046)"/>
<defs>
<linearGradient id="paint0_linear_181_1046" x1="2.00062" y1="15.9969" x2="30.002" y2="15.9969" gradientUnits="userSpaceOnUse">
<stop stop-color="#E4C683"/>
<stop offset="0.23" stop-color="#E0AB3E"/>
<stop offset="0.7" stop-color="#E5D07A"/>
<stop offset="1" stop-color="#B88A44"/>
</linearGradient>
<linearGradient id="paint1_linear_181_1046" x1="1.99767" y1="15.9976" x2="29.9977" y2="15.9976" gradientUnits="userSpaceOnUse">
<stop stop-color="#E4C683"/>
<stop offset="0.23" stop-color="#E0AB3E"/>
<stop offset="0.7" stop-color="#E5D07A"/>
<stop offset="1" stop-color="#B88A44"/>
</linearGradient>
<linearGradient id="paint2_linear_181_1046" x1="1.99548" y1="15.9851" x2="29.9955" y2="15.9851" gradientUnits="userSpaceOnUse">
<stop stop-color="#E4C683"/>
<stop offset="0.23" stop-color="#E0AB3E"/>
<stop offset="0.7" stop-color="#E5D07A"/>
<stop offset="1" stop-color="#B88A44"/>
</linearGradient>
<linearGradient id="paint3_linear_181_1046" x1="1.99651" y1="16.0041" x2="30" y2="16.0041" gradientUnits="userSpaceOnUse">
<stop stop-color="#E4C683"/>
<stop offset="0.23" stop-color="#E0AB3E"/>
<stop offset="0.7" stop-color="#E5D07A"/>
<stop offset="1" stop-color="#B88A44"/>
</linearGradient>
<linearGradient id="paint4_linear_181_1046" x1="2.0108" y1="15.9911" x2="30" y2="15.9911" gradientUnits="userSpaceOnUse">
<stop stop-color="#E4C683"/>
<stop offset="0.23" stop-color="#E0AB3E"/>
<stop offset="0.7" stop-color="#E5D07A"/>
<stop offset="1" stop-color="#B88A44"/>
</linearGradient>
<linearGradient id="paint5_linear_181_1046" x1="2.00759" y1="16.0104" x2="30.0076" y2="16.0104" gradientUnits="userSpaceOnUse">
<stop stop-color="#E4C683"/>
<stop offset="0.23" stop-color="#E0AB3E"/>
<stop offset="0.7" stop-color="#E5D07A"/>
<stop offset="1" stop-color="#B88A44"/>
</linearGradient>
<linearGradient id="paint6_linear_181_1046" x1="2.00766" y1="16" x2="30.0153" y2="16" gradientUnits="userSpaceOnUse">
<stop stop-color="#E4C683"/>
<stop offset="0.23" stop-color="#E0AB3E"/>
<stop offset="0.7" stop-color="#E5D07A"/>
<stop offset="1" stop-color="#B88A44"/>
</linearGradient>
<linearGradient id="paint7_linear_181_1046" x1="2" y1="16.0566" x2="30" y2="16.0566" gradientUnits="userSpaceOnUse">
<stop stop-color="#E4C683"/>
<stop offset="0.23" stop-color="#E0AB3E"/>
<stop offset="0.7" stop-color="#E5D07A"/>
<stop offset="1" stop-color="#B88A44"/>
</linearGradient>
<linearGradient id="paint8_linear_181_1046" x1="2" y1="15.9815" x2="30.0133" y2="15.9815" gradientUnits="userSpaceOnUse">
<stop stop-color="#E4C683"/>
<stop offset="0.23" stop-color="#E0AB3E"/>
<stop offset="0.7" stop-color="#E5D07A"/>
<stop offset="1" stop-color="#B88A44"/>
</linearGradient>
<linearGradient id="paint9_linear_181_1046" x1="15.3189" y1="18.6005" x2="16.0115" y2="18.6005" gradientUnits="userSpaceOnUse">
<stop stop-color="#E4C683"/>
<stop offset="0.23" stop-color="#E0AB3E"/>
<stop offset="0.7" stop-color="#E5D07A"/>
<stop offset="1" stop-color="#B88A44"/>
</linearGradient>
</defs>
</svg>
